<svg xmlns="http://www.w3.org/2000/svg" viewBox="0 0 1441 961"><defs><style>.cls-1{fill:#fcf5ec}.cls-2{fill:#f8ded9}.cls-3{fill:#f3bcc1}.cls-4{fill:#fdf6ed}.cls-5{fill:#fefefe}.cls-6{fill:#b6dbe5}.cls-7{fill:#c8e4eb}.cls-8{fill:#f9f4ef}.cls-9{fill:#faf4ef}.cls-10{fill:#faf4ee}.cls-11{fill:#f9e6e2}.cls-12{fill:#d7d9ee}.cls-13{fill:#d6d9ee}.cls-14{fill:#d7d8ec}.cls-15{fill:#f6ccd0}.cls-16{fill:#fee7d6}.cls-17{fill:#c9cde9}.cls-18{fill:#faf5ee}.cls-19{fill:#fdf4eb}.cls-20{fill:#f3bdc2}.cls-21{fill:#f3bdc1}.cls-22{fill:#f2bfc3}.cls-23{fill:#f0c0c4}.cls-24{fill:#bedae3}.cls-25{fill:#f3c1c5}.cls-26{fill:#bddbe2}.cls-27{fill:#f1c0c5}.cls-28{fill:#f1c1c6}.cls-29{fill:#bedce2}.cls-30{fill:#f1c1c5}.cls-31{fill:#bddae1}.cls-32{fill:#f2c0c5}.cls-33{fill:#bcdbe1}.cls-34{fill:#c1dbe2}.cls-35{fill:#bddce3}.cls-36{fill:#bddae3}.cls-37{fill:#bcdae1}.cls-38{fill:#f0c0c3}.cls-39{fill:#f2c1c5}.cls-40{fill:#bedce1}.cls-41{fill:#bbdae3}.cls-42{fill:#f1bfc3}.cls-43{fill:#bbd9e1}.cls-44{fill:#bbdbe2}.cls-45{fill:#bcdce1}.cls-46{fill:#f1c1c4}.cls-47{fill:#bcdbe3}.cls-48{fill:#f1c3c7}.cls-49{fill:#bedadf}.cls-50{fill:#bfdbe1}.cls-51{fill:#bcdae2}.cls-52{fill:#bddbe1}.cls-53{fill:#f2bfc5}.cls-54{fill:#f0c1c4}.cls-55{fill:#f0bfc4}.cls-56{fill:#f1bfc4}.cls-57{fill:#efc4c7}.cls-58{fill:#bddae2}.cls-59{fill:#f1c0c3}.cls-60{fill:#f0c2c6}.cls-61{fill:#badae2}.cls-62{fill:#bfdae2}.cls-63{fill:#bddbe0}.cls-64{fill:#f0c0c5}.cls-65{fill:#bcdae3}.cls-66{fill:#efc1c4}.cls-67{fill:#bcdbe2}.cls-68{fill:#f1c0c4}.cls-69{fill:#bfdae1}.cls-70{fill:#bcdce3}.cls-71{fill:#b3dae9}.cls-72{fill:#badbe2}.cls-73{fill:#bbdae1}.cls-74{fill:#badbe1}.cls-75{fill:#f2c0c4}.cls-76{fill:#bdd9e0}.cls-77{fill:#bdd9e1}.cls-78{fill:#bbdbe1}.cls-79{fill:#efc1c6}.cls-80{fill:#efc1c5}.cls-81{fill:#f1bec3}.cls-82{fill:#f0bfc3}.cls-83{fill:#f1c0c2}.cls-84{fill:#efc0c3}.cls-85{fill:#bedbe2}.cls-86{fill:#e1d9df}.cls-87{fill:#d5d9e0}.cls-88{fill:#faf5ef}.cls-89{fill:#c9cdea}.cls-90{fill:#fcf6ed}.cls-91{fill:#faf5ed}</style></defs><g id="Layer_2" data-name="Layer 2"><g id="Layer_1-2" data-name="Layer 1"><path d="M1428.43.58c4,0,9.55-1.56,11.55.44s.44,7.55.44,11.55V501.23c-2,1.84-4.35,1.2-6.64.85-11-1.68-22.11-3-33.3-2.4-22.77,1.22-44.77,5.44-65.64,15.28a149.59,149.59,0,0,0-38.59,26.27c-12,11.21-21.08,24.79-29.34,38.91a200.14,200.14,0,0,0-9.27,18.24c-1.21,2.68-2.29,5.59-5.13,7.16a67.21,67.21,0,0,1-15.32-5.6c-17.49-8.37-36.15-12.05-55.07-15.07-20.57-3.28-41.06-2.73-61.54.48a213.89,213.89,0,0,0-79.51,29.25,199.4,199.4,0,0,0-44.41,36.71c-1.55,1.74-3,3.59-5.19,4.58a6.57,6.57,0,0,0-5.22,3.85c-1.48,3.08-2.54,3.23-6.57,2.77.89,1.51,1.71,3.25.69,4.68-3.85,5.37-5.34,12.46-10.63,16.55-3.83,3-4.57,6.44-4.92,10.55a25.81,25.81,0,0,1-4.15,7.58c-2.9,1.44-3.23,4.4-4,7a65.29,65.29,0,0,1-6.68,15c-2.51,4-1.9,7.56-2.05,11.44-.51,2.36-.72,4.84-2.45,6.75-.88.75-2,1.55-2,2.7.23,4.77-2,8.88-3.34,13.21-.51,1.61-.62,2.74,1.09,3.66,2.17,1.18,1.91,2.78.42,4.41-2.36,3.26-2.52,7-2.56,10.82a29.87,29.87,0,0,1-.4,6.41,57.45,57.45,0,0,0,0,18,8.4,8.4,0,0,1,1.09,4.92c-1.08,5,.4,9.92.8,14.87.16,2,.68,4-.46,5.83-2.56,2.23-5.69,1.48-8.6,1.49-20.19,0-40.19,1.46-59.79,6.79-21,5.72-40.24,14.77-56.4,29.69-1.22,1.13-2.43,2.3-4.22,2.47-6.69-2.88-11.53-8.35-17.33-12.49-26.73-19.07-56.18-31.09-88.93-34.16a134.83,134.83,0,0,0-50.45,4.82c-24.63,7.14-46.54,19.18-64.69,37.25-22.53,22.43-36,49.67-40.34,81.28A96.81,96.81,0,0,0,548.25,956c0,1.87.16,4.25-2.83,4.38H8c-1.5,0-3,0-4.5,0-1.84.07-2.83-.6-2.75-2.58.06-1.33,0-2.67,0-4q0-98.13,0-196.25c-.09-2.38,1.87-2.88,3.46-3.7,42.77-22,65.5-57.78,71.48-104.66,3.83-30-.16-59.37-9.78-88-8.75-26.09-7.11-52.06,1.21-78,6-18.79,14.39-36.52,23.78-53.81,2.94-5.42,5.47-11,8.47-16.43,1.12-2,2.05-4.27,4.66-4.9,5.67-1.63,11.56-1.06,17.34-1.64,14-1.41,27.46-5,41.05-9.94-7.56-8.21-17-11.87-27.66-12.64a42.12,42.12,0,0,0-12.41.8c-1.92.44-3.9,1.07-5.87.1-1.65-2.76.62-3.84,2.23-5.2,7.87-3.2,15.95-2.94,24-.92,8.63,2.18,16.75,5.61,23.2,12,2.48,2.47,4.88,2.88,8,1.31,10.27-5.13,20.39-10.49,29.54-17.51a16.63,16.63,0,0,1,5.07-3.1c2.08-1.11,6.76-.17,3.77-5.21-.85-1.43,1.05-2.28,2.21-2.62,3.14-.89,5.48-2.87,7.71-5.08,17.48-15.13,32-32.86,46.16-51.69-7.84-2.67-14.53,1-21.46,1.73-5.49-1-2-3.12-.64-5,6.7-4.53,14.34-3.81,21.72-3.29,4.48.31,7.14-1.05,9.42-4.7,2.82-4.5,6.61-8.31,9.92-12.47a20.45,20.45,0,0,0,4-6.84,4.34,4.34,0,0,1,2.81-2.19,3.65,3.65,0,0,0,1.69-1c4.38-6.09,10.21-10.83,15.23-16.32,2.28-2.48,2.18-4.13-.94-5.48-1-1-2.81-2.07-1.92-3.54,1.1-1.81,2.89-.36,4.4,0,2.88.74,5.68,4.17,8.71.29,12.45-11.3,26.6-19.53,43.42-21.86,9.68-1.34,19.39-2.74,29.2-3.22,7.53-.37,14.44,1.65,21.4,4.12,20.62,7.32,41.93,11.78,63.54,14.93a11.24,11.24,0,0,0,8.42-2.32c3.81-2.71,6.76-6.45,10.73-8.94,14.55-9.13,30-10.37,45.91-4.44,4.83,1.81,8.48,1.22,12.53-1.52,5.11-3.45,9.65-7.69,15-10.82,3.91-2.31.86-4.36.08-6.53.67-2.36,2.67-2.14,4.47-2.31,4.2,1,7.59-.6,10.13-3.74,6.28-7.78,14.75-13.3,21.16-21,6.79-8.13,15.29-14.64,22.64-22.26,2.2-2.28,5-3.89,7.15-6.15a24.79,24.79,0,0,1,3.79-2.81c1-2.15,1.36-4.78,4.13-5.65,5.62-1.87,9.95-5.9,14.89-8.91,3.95-2.41,7.75-5.14,12.44-6.05,5.63,1,10.7,3.6,15.91,5.77,13.36,5.55,27.24,9.74,40.24,16.29,15.53,7.83,28.75,18.49,40.94,30.68s23.82,25.11,36.08,37.33A166.81,166.81,0,0,0,838,244.16c22.53,13.38,46.39,16.22,71.62,9,17.84-5.11,33.65-14.11,49-24.14,18.66-12.16,36.46-25.71,56.38-35.88,16.13-8.23,32.81-14.2,51.24-15.37,15.49-1,30.94-.36,46.4-.7,20.6-.46,40.89-2.82,60.1-10.73,33.49-13.79,58.62-36.58,74.8-69.28C1258.35,75.24,1262,52.23,1261,28.26c-.36-8.81-2-17.5-3.11-26.25a2.74,2.74,0,0,1,.61-1.43h34a8.1,8.1,0,0,1,.9,1.27c.76,4.07.84,8.23,1.72,12.31a66.9,66.9,0,0,0,66.12,53c32.27-.35,60.55-25.43,65-57.47C1426.63,6.59,1426.34,3.27,1428.43.58Z" class="cls-1"/><path d="M1252.52,605.15c6.55-13.4,12.78-27,21.35-39.27,10.57-15.08,22.67-28.69,38.23-39.32a155.19,155.19,0,0,1,49-22.6,173,173,0,0,1,53.7-5.64c8.57.52,17.08,1.91,25.62,2.91v54c-1.8,1.73-4.13,2-6.44,2.3-22.81,2.88-42.77,20.91-44.26,46.41-.23,4-.56,7.91.13,11.86a11.44,11.44,0,0,0,1.51,6.34c6,20.39,20.22,31.71,40.43,36.35,2.86.66,6.08-.56,8.63,1.67V959.91c-1.72.92-3.59.46-5.38.46q-67.76.06-135.49,0c-5-1.18-1.92-3.32-.38-4.8a224.8,224.8,0,0,0,17.56-18.31c16.12-19.4,29.67-40.32,37.69-64.46.71-1.87,1.8-3.58,2.31-5.54a200.09,200.09,0,0,0,8.66-34.23c.42-1.61.75-3.23,1-4.87.68-11.24,1.65-22.45,1.54-33.71,0-1.18-.06-2.35,0-3.53.29-11.85-1.6-23.49-3.52-35.12a20.94,20.94,0,0,1-.51-3.22,262.94,262.94,0,0,0-10.27-33.85,24.8,24.8,0,0,0-2-4.65,254.13,254.13,0,0,0-13.92-27.26c-.68-1.24-1.37-2.48-2.13-3.67a225.87,225.87,0,0,0-38.85-45.91c-7.34-6.58-15.42-12.07-23.09-18.15-5.67-4.48-12.46-7-18.38-11C1254.19,607.33,1252.24,607.28,1252.52,605.15Z" class="cls-2"/><path d="M1428.43.58c-.53,34.26-25.11,61.84-59.08,67.11-34.66,5.37-70-19.47-75.92-54.74a57.15,57.15,0,0,1-.91-11.37c6.57-1.09,13.19-.2,19.77-.49,3.73.92,3.15,4.28,3.66,6.85,3.6,18,14.23,29.93,31.44,35.44,24.71,7.91,51.11-7.92,56.64-33.26.69-3.19.25-6.71,2.41-9.54Z" class="cls-3"/><path d="M1406.44.58c-.17,33.09-33.56,55.59-64.13,42.57C1326.7,36.5,1316.94,24.26,1314.44,7c-.26-1.8-.63-3.58-1-5.37-.35-.23-.47-.46-.35-.68s.24-.33.36-.33Z" class="cls-4"/><path d="M1297.51,959.88l142.91,0c-.22.31.51,1-.5,1-1.33,0-2.66,0-4,0q-715.57,0-1431.17.09C1,961,.16,960.16.16,956.41Q.31,480.74.32,5.08c0-1.47-1.16-3.39.93-4.5a7.71,7.71,0,0,1,1,1.56c1.23,8,.49,16.09.46,24.13a36.54,36.54,0,0,1,0,4.68q.46,17.09,0,34.16a37.48,37.48,0,0,1,0,4.74q.46,17.09,0,34.19c0,1.27,0,2.53,0,3.8.3,11.68.32,23.37,0,35.06,0,1.26,0,2.51,0,3.77a97.84,97.84,0,0,1,0,11.36A36.23,36.23,0,0,1,3,164Q3,454.74,3,745.45c0,3.58.88,7.4-1.72,10.59,0,65.91.06,131.82-.15,197.73C1.11,959,2.73,960,7.6,960q269.67-.18,539.33-.1a7,7,0,0,1,5.07-1.68c21.55,0,43.1-.32,64.66.15,7.12-.29,14.24-.31,21.37,0,22.55-.5,45.11-.13,67.66-.2,8.29,0,16.59-.31,24.87.2,7.4-.27,14.8-.32,22.21,0,7.09-.31,14.18-.3,21.27,0a39.89,39.89,0,0,1,6-.24q110.07,0,220.14,0c3.5,0,7,.35,10.47.15,3.32-.31,6.66-.12,10-.12q133.41,0,266.8,0C1290.83,958.17,1294.47,957.39,1297.51,959.88Z" class="cls-5"/><path d="M1388.46,616.14c-1.74-12.19.22-23.92,6.36-34.43,8.58-14.69,21.7-23.28,38.73-25.54,2.3-.31,4.58-.65,6.87-1v17c-2.78,2.1-6.25,2.23-9.42,2.94-15.64,3.51-25.74,19.72-25.22,33.63a34.86,34.86,0,0,0,26.75,32.63c2.7.68,5.67.66,7.89,2.75v16c-20.57.41-35.18-9.71-46-26.26a28.93,28.93,0,0,1-4-11.68C1389.43,620.27,1389.2,618.13,1388.46,616.14Z" class="cls-6"/><path d="M1440.42,644.13c-16-1.4-28.09-8.71-33.93-24.08-7.32-19.26,4.06-40.68,22.78-45.84,3.64-1,7.21-2.57,11.15-2Z" class="cls-2"/><path d="M1258.53.58c0,.33,0,.65,0,1-1.36,1.53-3.22,1.6-5,1.71-2,.13-4,.08-6,.08q-268.38,0-536.77,0c-3.45,0-7,.58-10.32-1a1.3,1.3,0,0,1-.57-1.7Z" class="cls-7"/><path d="M159.16.58h6a10.66,10.66,0,0,0,2,1.07c12.84,11.47,27.66,13.94,44,9.74,6.09-1.57,10.95-5.32,15.84-9,.93-.83,2.26-1,3.19-1.79h6a1.25,1.25,0,0,1,.06,1.47C222.84,15.83,207,22.64,187.66,18.89c-11.49-2.21-21-8.07-28.66-16.83A1.32,1.32,0,0,1,159.16.58Z" class="cls-8"/><path d="M361.05.58h6a1.22,1.22,0,0,1,.06,1.47c-10.51,11.79-23.64,18.2-39.48,17.82-15-.37-27.48-6.79-37.61-17.82a1.23,1.23,0,0,1,.08-1.47h6c.94.83,2.27,1,3.19,1.84,14.47,14,42,14.37,56.21,1.85a19.44,19.44,0,0,1,3.6-2.63A9.84,9.84,0,0,0,361.05.58Z" class="cls-8"/><path d="M99.2.58h5a1.34,1.34,0,0,1,.17,1.48A49.73,49.73,0,0,1,28,2.07,1.42,1.42,0,0,1,28.24.58h5c.93.88,2.25.9,3.33,1.45,8.6,8,18.73,11.58,30.5,11.2C77.42,12.9,86.69,10.13,94.4,3a8,8,0,0,1,2-1.41C97.29,1,98.42,1.31,99.2.58Z" class="cls-9"/><path d="M493,.58h5a1.33,1.33,0,0,1,.15,1.48c-18.17,19.44-40.91,23.26-64,10.56A37.37,37.37,0,0,1,421.76,2.07,1.47,1.47,0,0,1,422,.58h5c.93.88,2.25.9,3.33,1.45,13.9,14.39,42.48,15.81,59.37.16C490.75,1.55,492,1.42,493,.58Z" class="cls-10"/><path d="M699.85.58c0,.33,0,.67,0,1,.72,1.21,1,2.37-.52,3.21a28.56,28.56,0,0,0-10.27-1.52q-69.65,0-139.3,0c-3.53,0-7,0-9.92,2.4-2.48-.17-1.84-2-1.84-3.49a5.29,5.29,0,0,1,.93-1.61Z" class="cls-11"/><path d="M429,2.55l-2-2h66l-2,2c-9.55,1.44-19.17.67-28.74.65C451.16,3.19,440.07,4,429,2.55Z" class="cls-12"/><path d="M99.2.58a2.1,2.1,0,0,1-1.94,1c-2.36,1.49-5,1.73-7.67,1.72-15.64,0-31.28,0-46.92,0-2.52,0-4.91-.75-7.4-.8a3.47,3.47,0,0,1-2-2Z" class="cls-12"/><path d="M166.13,1.58l-1-1h65c-.66.67-1.32,1.34-2,2a28.31,28.31,0,0,1-6.43.73q-23.72-.06-47.43,0C171.44,3.32,168.62,3.22,166.13,1.58Z" class="cls-13"/><path d="M298.06,2.59l-2-2h65l-1,1A12.16,12.16,0,0,1,353.4,3.3c-16.81,0-33.61,0-50.42,0A30.1,30.1,0,0,1,298.06,2.59Z" class="cls-13"/><path d="M104.18,1.57c0-.33,0-.66,0-1h55c0,.33,0,.66,0,1-1.83,1.92-4.25,1.73-6.55,1.74q-21,.09-41.92,0C108.42,3.29,106,3.48,104.18,1.57Z" class="cls-13"/><path d="M422,.58v1c-1.84,1.9-4.26,1.71-6.56,1.72q-21,.09-41.93,0c-2.29,0-4.72.18-6.53-1.76,0-.32,0-.64.05-1Z" class="cls-13"/><path d="M290.09.58c0,.32,0,.64.05,1-1.8,1.93-4.2,1.75-6.48,1.76q-20.57.11-41.13,0c-2.28,0-4.68.17-6.47-1.77,0-.32,0-.63.06-.95Z" class="cls-13"/><path d="M538.94.58l-.05,1c-1.57,1.52-3.57,1.66-5.57,1.68q-14.93.12-29.86,0c-2,0-4,0-5.52-1.71l0-1Z" class="cls-14"/><path d="M28.24.58c0,.33,0,.66,0,1a4.64,4.64,0,0,1-3.53,1.55q-9.91.46-19.82,0A5.35,5.35,0,0,1,1.32,1.6l-.07-1Z" class="cls-12"/><path d="M1313.49.58c0,.33,0,.67,0,1h-21c0-.33,0-.67,0-1Z" class="cls-15"/><path d="M699.69,4.49c.06-1,.12-1.94.17-2.91l558.69,0c2.8,8.22,3.36,16.88,3.8,25.37,1.19,23-1.77,45.25-11.52,66.53a143.15,143.15,0,0,1-47.43,57.81c-20.58,14.8-43.66,23-68.6,26-17.54,2.06-35.23,1.45-52.85,1.13-28.66-.5-54.68,7.67-78.6,23-18.29,11.73-36.28,23.91-54.61,35.57-17.27,11-36,18.8-56.41,21.2a83.4,83.4,0,0,1-40.1-5.49c-21.32-8.25-37.94-22.92-53.58-38.9-12-12.21-23.48-24.83-35.74-36.75-15.76-15.33-34.13-26.24-54.77-33.63C696,139,684,134.13,671.86,129.48a12.59,12.59,0,0,1-6.46-2c-8.16-5-16.67-9.49-23.09-16.86-1-1-2.23-1.77-3.27-2.73-4.19-5.35-7.84-11.09-12.16-16.35a17.24,17.24,0,0,1-3.72-9.12,3.76,3.76,0,0,1,.26-1.48c2.06-2.51,5.16-2.11,7.84-2.55a76.08,76.08,0,0,0,28.86-10.65C679.85,55.21,693,38,696.83,14.37,697.38,11,697.06,7.29,699.69,4.49Z" class="cls-6"/><path d="M1.27,756q0-297.57,0-595.13c0-1.17.05-2.33.07-3.49,2.46-1.75,4.91-.45,7.16.3C27.2,164,44.87,172.27,61,183.92c8.48,6.15,17,12.17,25.25,18.69,1,1,1.79,2.18,2.85,3.11,7.75,6.86,14.68,14.51,21.55,22.23.88,1.09,1.67,2.24,2.49,3.38,7.25,9.49,12.89,19.92,18.22,30.55,0,2.69,4.68,1.76,3.94,5a6.92,6.92,0,0,0-.2,5.75,114.75,114.75,0,0,1,5,28.11,47.8,47.8,0,0,0,.15,5.35A194.39,194.39,0,0,1,135,339.79c-.38,1.73-1.35,3.26-1.57,5-3.48,12.35-8.59,24-14.25,35.52a10.09,10.09,0,0,0-3,4,2,2,0,0,1,.22,1.89c-3.9,7.77-6.94,16-12.18,23.05-2.3.08-2.28,2.27-3,3.57-12.16,23-25,45.77-32.74,70.86-4.48,14.49-7.64,29.24-7.12,44.42.49,14.29,4.24,28,8.68,41.62,4,12.1,6,24.69,7.28,37.41a201.15,201.15,0,0,1,.83,30.64C76.82,665.52,69,691.05,53,714.12c-12.15,17.53-28.09,30.29-46.55,40.33C4.82,755.33,3.21,756.25,1.27,756Z" class="cls-2"/><path d="M1252.52,605.15a215.12,215.12,0,0,1,64.1,50.43c6.59,7.63,12.3,15.9,18.42,23.87a14.26,14.26,0,0,1,1.44,3.64c-4.81,8.45-12.71,13-21.34,16.29-17.89,6.75-34.23,3.3-48.17-9.43-18.16-16.59-42.06-19-62.18-4.78-4.45,3.15-7.83,7.52-12.75,10.3-16,9-31.86,9.61-48.06.9a43.45,43.45,0,0,1-8.31-6.33c-15.08-13.56-32.09-18.6-51.58-10.8a49.85,49.85,0,0,0-16.33,10.43c-17.39,17-44.24,17.1-62.58,1.1-7.57-6.6-15.59-11.85-25.43-14.12-2.64-.61-4.75-1.93-2.73-4.77,4.16-5.88,7.86-12.2,13.67-16.75,5.25-5.21,10.4-10.53,15.79-15.6,6.13-5.76,12.24-11.52,19.33-16.2,9-5.91,17.72-12,27.26-17.12,10-5.35,20.46-9.41,31-13.21,17.35-6.26,35.39-9.23,53.77-11,21.24-2,41.83.87,62.59,4.75,14.3,2.68,27.56,7.81,40.87,13.21A72.06,72.06,0,0,1,1252.52,605.15Z" class="cls-16"/><path d="M642.85,109.47a83.62,83.62,0,0,0,15.78,12.4c4.35,2.69,8.84,5,13.23,7.61a98.36,98.36,0,0,0-19.71,12.15c-2.14,1.68-4.74,2.22-7.28,2.89-7.52,3.89-15,7.76-21.3,13.65-18.51,17.22-45.16,17.62-63.81.57-13.53-12.36-28.86-16.54-46.55-12.7a39,39,0,0,0-17.5,9.19c-8.07,7.07-16.32,13.79-27.54,15.16-14.33,1.75-27.41-.54-38.6-10.62-6.8-6.13-14-11.93-23.36-13.84-17.51-3.56-33.08.07-46,12.89-15.57,15.49-40.74,14.29-53.92,6.86a67.1,67.1,0,0,1-12.21-9.46C276.4,140,247,140.91,229.25,158.45c-12.08,12-26.93,14.47-43,11.34-7.49-1.45-13.95-5.23-19.66-10.33-6.73-6-13.79-11.62-23-13.52-17.33-3.59-32.73.18-45.69,12.49C84.49,171.18,68.68,173.21,51.49,169c-5.6-1.38-10.32-4.69-14.58-8.43-9.54-8.39-19.56-15.6-33-15.8a3.59,3.59,0,0,1-2.6-1.33V107.61c1.62-1.77,3.62-1.14,5.6-1,11.6,1.13,20.45,7.64,28.78,14.92a46.18,46.18,0,0,0,61.05-.06c8.34-7.34,17.24-13.53,28.78-14.91s21.84.87,31.37,7.21a82.42,82.42,0,0,1,9,7.11c12.86,11.46,27.63,14.42,44.14,10.36a43.8,43.8,0,0,0,19.44-10.77c12.1-11.18,25.95-16.6,42.51-13.38a42.63,42.63,0,0,1,19.24,9c7.84,6.43,15.37,13.22,25.83,15.46,16.43,3.51,30.93.26,43.55-11.06,7.54-6.76,15.89-11.93,26.2-13.63,12.75-2.11,24.05,1,34.45,8.3,3.27,2.29,6.18,5,9.3,7.55a47,47,0,0,0,56.21,2c4.89-3.43,9-7.9,14-11.21,16.5-10.81,39-9.6,53.92,3.35,8.25,7.17,16.64,13.55,28,15.36,15.75,2.51,29.32-1.42,41-12.09a62.69,62.69,0,0,1,12.06-8.81C638,110.09,640.21,109,642.85,109.47Z" class="cls-17"/><path d="M1010.65,959.86H773.76c-2.59-4.17-1.66-8.83-1.18-13.13a135.48,135.48,0,0,1,34.22-77.09c1.1-1.24,2.21-2.53,4-2.7a137.87,137.87,0,0,1,28.42-20.73c15.52-8.32,32.2-13.1,49.41-16.16,16.87-3,34-3.2,51-3,3.17,2.86,2,7,3.15,10.49.28,1.53.66,3,1,4.56a291.9,291.9,0,0,0,8.68,30.86c.35.66.67,1.33,1,2A194,194,0,0,0,974,914.73c8,11.86,16.5,23.31,26.89,33.25,3,2.86,5.46,6.25,8.78,8.81A2.52,2.52,0,0,1,1010.65,959.86Z" class="cls-2"/><path d="M810.84,866.93c-9.94,11.36-18.65,23.52-25.2,37.2-5.48,11.44-8.22,23.64-10.83,35.91-1.4,6.55-.87,13.19-1,19.81l-20.91,0c-2.29-3-1.71-6.68-2.27-10-4.82-28.8-25.78-51-54.52-55.75-41.54-6.9-75.48,23.78-77.75,60.7-.11,1.81.09,3.71-1.54,5.06l-69.84.07A136.79,136.79,0,0,1,563.07,897c6.72-12.78,14.78-24.46,25-34.47A152.61,152.61,0,0,1,647,826.58a143.87,143.87,0,0,1,55.82-7.44c18.64,1.22,36.57,6,53.83,13.22,19,8,36,19.12,51.85,32A24.78,24.78,0,0,1,810.84,866.93Z" class="cls-17"/><path d="M86.21,203.55c-4.23-1.66-7.34-4.94-10.88-7.59-18.14-13.56-36.66-26.43-58.41-33.75-5.16-1.74-10.09-4.19-15.59-4.79l-.06-10.91c2.15-2,4.67-1.41,7.11-.92A51.59,51.59,0,0,1,34.19,159a46.48,46.48,0,0,0,64.13-.13c18.93-18,46.17-18.66,65.48-1,8.46,7.72,18,12.72,29.24,13.77,13.14,1.22,25.3-2.07,34.93-11.39,19.94-19.28,45.93-20.39,67-2.38,4.68,4,9.45,7.8,15.32,10.13,19.17,7.61,36.31,4.11,51.33-9.57,20-18.2,45.34-17.72,67.07,1.18,15.4,13.41,32.8,15.82,51.58,7.66,4.65-2,8.41-5.22,12.18-8.56,12.69-11.25,27.25-16.5,44.23-12.33,8.75,2.15,16.14,6.92,22.71,13C576.2,175,603.09,176,620.72,161.47c3.33-2.73,6.11-6.14,10-8.23,1.89-1,3.64-2.38,5.95-2.35.84.21,1.49.57,1.28,1.61-6,5.67-11.84,11.63-18.21,16.9-4,3.33-7.2,7.37-10.59,11.15-6.66,7.43-14.87,13.2-21.3,20.85-2.7,3.21-5.77,6.62-10.9,5-7.41-.59-12.85-4.84-18.1-9.57-20.93-18.87-46.72-18.66-67.36.6-17.52,16.35-46.08,16.2-63.48-.26-20.64-19.53-47.1-19-66.84-.32-17.23,16.31-44,17.35-62,2.23-6.76-5.68-13.48-11.39-22.19-14.06-17.82-5.45-33.58-.86-46.7,11.3-18.71,17.33-46.77,18.05-65.05.61-19.53-18.65-47.43-18.65-67,0a37.09,37.09,0,0,1-6.92,5.71C89.73,203.58,88.16,204.74,86.21,203.55Z" class="cls-17"/><path d="M110.21,228.5c-5.72-3.67-8.8-9.92-13.95-14.18-2.87-2.38-5.36-5.22-8-7.85,14.1-13.41,28.88-25.46,50.23-22.26a45.75,45.75,0,0,1,25.22,12.21c8.21,7.77,17.71,12.79,29.18,13.87,13.35,1.25,25.07-2.81,35-11.32,7.34-6.27,14.92-11.83,24.45-13.88,14.83-3.2,28.6-.61,40.21,9.44,9.52,8.24,19.48,15,32.5,16a44.17,44.17,0,0,0,20.5-3.12,52.87,52.87,0,0,0,17.1-11c15.7-15.45,42.11-16.81,59.54-3.22,6,4.69,11.53,9.94,18.67,13.19a45.87,45.87,0,0,0,50.27-7.85c11.34-10.42,24.07-15.61,39.46-14.52,5.47.39,10.37,2.35,15.19,4.6,9.89,4.62,16.93,13.23,26.09,18.91,1.19,1.6,4.63.74,4.51,3.17-.09,2.11-2.41,3.49-4.25,4.58-6.7,4-12.18,9.76-19.26,13.25a7.14,7.14,0,0,1-6.48.21C526.51,221,508,222.21,492,237.84c-5.11,5-10.67,6.21-18,5-17.39-2.84-34.39-7.15-51.4-11.53a85.66,85.66,0,0,1-11.21-4c-10.14-4.14-20.37-3.64-30.81-1.3-4.83,1.08-9.88.56-14.84,1.32-17,2.64-31.23,10.51-43.69,22-1.87,1.94-4.1,1.25-6.06.49-6.94-2.68-14-5.13-19.48-10.58-10.75-10.68-23.95-14.55-38.79-13.33-10.31.84-19.09,5.11-26.74,12.1-8.13,7.42-17.33,12.78-28.63,13.95a45,45,0,0,1-31.11-8c-3.58-2.45-6.74-5.43-10.09-8.16-13.14-10.67-28-12.09-43.8-8.13C115,228.27,112.79,230,110.21,228.5Z" class="cls-17"/><path d="M1077.12,345.31c-40-1.36-72.49-31.2-72.17-73.45.31-41.44,32.09-72.28,72.87-72,42.61.29,72.24,32.86,72.37,72.18C1150.34,313.66,1118.3,344.38,1077.12,345.31Z" class="cls-6"/><path d="M941.72,838c-1.6-3.51-.9-7.43-2-11-.53-4.41-1-8.84-1.63-13.23-.41-2.67-.72-5.25.63-7.74,4-5.5,9.85-8.37,16-10.54,17.84-6.34,33.8-2.49,47.76,9.9,6.86,6.09,14.39,10.62,23.38,12.73,16.29,3.82,30.25-1.09,42.6-11.47,5.66-4.75,11.4-9.17,18.48-11.56,18.09-6.11,33.69-1.35,47.54,10.94,9.55,8.47,20.55,13.55,33.45,13.49,12,0,22.38-4.63,31.21-12.59,9.72-8.76,20.51-14.59,34-14.37,13,.21,23.94,5.22,33.29,13.9,17.74,16.45,42.94,17.6,61.94,2.13,7.89-6.43,15.72-12.27,25.58-14.83,5.11-1.32,10.4-2.46,15.52.27.71,10.8-1.12,21.52-1,32.29a3.09,3.09,0,0,1-1,2.69c-1.31,1.28-3,1.38-4.65,1.41-12.31.22-22.9,5.28-31.41,13.48-18.61,17.91-45.68,17.22-64.35,1.27-4.78-4.08-9.45-8.26-15.5-10.74-18.6-7.63-35.35-4.09-50.21,8.52-10.43,8.85-21.68,15-35.6,14.37-10.88-.51-20.78-4.09-29-11.64-9.43-8.63-20.08-15-33.28-15.15-13.7-.12-25.26,5-35.59,14.3-11.67,10.54-25.64,15.19-41.57,11.29-8-2-15.19-5.12-21.39-11.05-10.2-9.77-22.48-15.31-37-14.62a43.23,43.23,0,0,0-19.82,6C946.14,837.6,944.32,839.58,941.72,838Z" class="cls-16"/><path d="M1354.46,718.07a131.13,131.13,0,0,1,8,22.67c.94,3.8,2,7.55,3,11.32a6.12,6.12,0,0,1-4.15,1.41c-11.57.77-21.33,5.29-30,13.08-9.77,8.76-21,14.86-34.76,13.79A48.88,48.88,0,0,1,1266,767c-14.86-14-32-16.65-50.87-10.24-5.45,1.85-9.82,5.48-14.09,9.26-7.58,6.72-16.07,11.72-26.26,13.51-12.14,2.14-23.1-.66-33.19-7.44a82.23,82.23,0,0,1-10.61-8.3c-15.12-14.24-44.93-13.77-61.3,2.07a50.45,50.45,0,0,1-29,14.32c-11,1.46-20.73-1.94-29.78-7.76a81,81,0,0,1-10.29-7.9c-14.08-12.6-37.37-14.75-53.54-5a18.7,18.7,0,0,1-2.16,1.26c-3.69,1.68-5.23.76-4.38-3.17,1.13-5.24,1.65-10.69,4.19-15.56q1-3.49,2-7a55.09,55.09,0,0,1,3.3-11.78,8.37,8.37,0,0,1,6.21-5.7c16.9-4.49,32.34-2.3,45.5,10,11.77,11,25.62,15.93,41.64,13.84,9.71-1.26,17.93-5.87,25-12.6a47.83,47.83,0,0,1,56.8-7.32c5.57,3.11,9.66,8.07,14.87,11.72a47.68,47.68,0,0,0,60.22-4.45c15.06-14.42,32.48-16.11,51.4-9.93,5.5,1.8,9.55,6,13.82,9.69a66,66,0,0,0,12.77,8.68c16.74,8.64,38.87,5,52.44-7.93,5.25-5,11-9.23,18-11.22C1350.6,717.57,1352.55,716.65,1354.46,718.07Z" class="cls-16"/><path d="M459,859.64c1-32.29,14.35-57.63,42.6-74.53,14-8.36,29.2-11.8,45.14-11.89,12.76-.06,25.41,2.57,36.18,9.53,17.25,11.13,23.53,28.5,10.15,46.29-14.35,19.07-29.25,37.72-44.21,56.31-6.66,8.26-13.41,16.65-21.3,23.65-9.73,8.62-21.28,11.92-35.75,6.3-22-8.52-29.93-26.66-32.77-48.2A58,58,0,0,1,459,859.64Z" class="cls-6"/><path d="M1338.48,686.1c.75.87,1.85,1.6,2.21,2.61,3.13,8.83,9.93,15.95,11.78,25.37-.68,2.24-2.7,2.85-4.53,3.53a55.57,55.57,0,0,0-18.71,12c-14.47,13.52-37,15.36-54.29,5.06-4.75-2.83-8.84-6.45-13-10-16.08-13.89-46-12.59-62.07,3.4-17.22,17.17-44.77,19-63.18,1.3a50.23,50.23,0,0,0-69.25-.6c-18.08,16.94-42.19,18-62.83.09-8.75-7.58-18.1-12.75-29.65-14-5.23-.56-10.24.85-15.38,1-1.8.05-3.89.82-5-1s0-3.59,1-5.09c1.87-2.67,2.27-6,4.16-8.66,2-2,2.62-4.69,4-7,.84-5.3,4.95-8.78,7.37-13.2,1.66-3,3.91-4.34,7.37-3.59,8.76,1.89,16.76,5.34,23.42,11.5,7.75,7.17,16.61,12.11,27.1,14,14.32,2.57,26.83-1.81,37.52-10.85,7.11-6,14.41-11.56,23.35-13.89,15.06-3.92,29.33-1.29,41.07,9.15a72.53,72.53,0,0,0,21.36,13.48c12.57,5,24.81,3.38,36.55-2.87a72.73,72.73,0,0,0,13.36-9.49c18.68-16.13,45-15.64,63.16,1.23a51.09,51.09,0,0,0,32.26,14c7.88.55,15.15-1.82,22-5.37,4.7-2.43,9.47-4.77,12.93-9.14C1333.88,687.38,1335.74,685.52,1338.48,686.1Z" class="cls-16"/><path d="M229.12,509.48c.82,36.33-30.32,67.88-67.67,67.69-38.18-.19-68-29.84-68.16-67.86-.2-37.65,29.95-68.12,68.32-68.15C199.81,441.14,230.57,473.81,229.12,509.48Z" class="cls-3"/><path d="M130.19,262.49c-4.91-9.1-9.15-18.59-15.73-26.72-1-1.21-2.29-2.47-2.23-4.31,1.25-2.28,3.56-2.94,5.78-3.55,15-4.09,29-2.1,41.62,7.46a94.42,94.42,0,0,1,8.18,6.57c15.63,14.92,45.73,13.63,60.74-1.13,9.12-9,20.11-14.48,33.41-14.9,15-.47,26.49,6.42,37,15.92a58.57,58.57,0,0,0,12.07,8.65L316,253c-7.07,7.59-14,15-20.82,22.36a59.67,59.67,0,0,1-7.72-4.52c-15.64-10-38.31-8.56-53.35,3.18-5.23,4.07-9.82,8.92-15.89,12-16.74,8.37-38.35,5.51-52.11-7.21-8.49-7.84-17.69-14-29.86-14.19A9.16,9.16,0,0,1,130.19,262.49Z" class="cls-17"/><path d="M139.15,301.46c-1.84-7.49-1.42-15.36-3.9-22.76-1-2.95-1.51-6.08-2.53-9-.88-2.54.06-3.37,2.41-3.41,2.23-1.95,4.74-1.15,7.11-.55,7.86,2,15.07,5.44,20.89,11.18,11.18,11,24.66,15.38,40.06,13.94A40.6,40.6,0,0,0,227.86,280a59.11,59.11,0,0,1,12.34-9.26c16-8.63,31.83-8.22,47.41,1.1,1.84,1.1,3.68,2.34,4.5,4.52.48,4.57-3.35,6.88-5.57,9.83-3.16,4.23-6.8,8.1-9.7,12.55-1.63,2.52-3.45,3.36-7,3-7.65-.82-15.57-1.5-22.78,2.59-6.63,4.09-13.18,8.24-19.06,13.47-17.39,15.49-44,15.75-61.28-.25a57.23,57.23,0,0,0-22.14-13.08C142.62,303.85,140.25,303.78,139.15,301.46Z" class="cls-17"/><path d="M134.23,340.27c-1.1-4.59,1.6-8.58,2-13,.73-7.34,1.93-14.63,2.93-21.95,1.86-1.63,3.78-.61,5.64,0,8.61,2.61,15.74,7.68,22.35,13.6,13.68,12.28,35.48,14.75,51.65,6a58,58,0,0,0,12.44-9c4.44-4.21,9.5-7.67,15.85-8.53,7.55-1.68,15-4.71,23.59-1.45-14.5,19.17-29.23,37.86-47.59,53.38-7.05,4.49-14.35,8.38-23,8.77-12.13.55-23.31-2.49-32.31-10.73s-18.54-14-30.56-15.64A4.05,4.05,0,0,1,134.23,340.27Z" class="cls-17"/><path d="M636.86,151.41c-5.14,2.72-9.45,6.46-14,10.08-14.9,11.87-31.56,15.4-49.91,8.09-6.17-2.46-11.19-6.2-16.09-10.55-19.81-17.58-44.48-17.08-63.4.67-18.45,17.32-47.27,18.13-65.87,1-10.68-9.86-23.05-15.71-38-14.15a44.07,44.07,0,0,0-26.52,12.53c-19.12,18.55-48.44,19.06-68.7.22s-46.74-16.7-65.89,2.58c-6,6-13.68,8.76-21.66,10.4-16.27,3.35-30.64-1.12-42.64-12.36-16.09-15.06-40.14-18.66-58.31-5-3.06,2.3-5.94,4.71-8.84,7.18-12,10.21-31.69,14.26-47.75,8.2-9.43-3.55-15.72-10.91-23.72-16.11-7.47-4.85-15.37-7.71-24.29-7.65,0-1,0-2.08,0-3.12,14.23-.9,25.3,5.82,35.18,15,10.6,9.78,22.95,12.19,36.88,10.7,11.59-1.23,19.76-8,27.87-15.16,16.45-14.44,43.73-13.33,58.47-2.09,6.17,4.71,11.47,10.49,18.72,13.92,15.79,7.46,37.29,4.28,49.58-8,16.23-16.21,39.14-18.4,57.46-9.27,5.69,2.84,10.64,7.36,15.5,11.61,10.24,8.94,22.21,10.17,35,9,11.94-1.09,19.95-8.84,28.72-15.69,16.72-13.06,34.85-13.25,53.3-4.19,4.67,2.3,8.78,6,12.65,9.59,15.56,14.48,42.61,14.61,58.36.25,7.39-6.74,15.13-12.79,25.5-14.73,17.65-3.3,32.83,1,45.94,13.21,18,16.7,44.85,16.32,62.62-.7,6.19-5.92,13.06-10.77,21.78-12.26-3.43.74-.45,4.76-3,5.93C639.84,149.1,638.6,151.54,636.86,151.41Z" class="cls-18"/><path d="M119.21,380.35c.42-6.94,4.77-12.43,7-18.74,2-5.78,4.59-11.36,6-17.35,1.38-2.34,3.54-2.1,5.74-1.73,9.57,1.57,18.18,5.11,25.35,11.86S178.58,366.11,188.4,368a43.89,43.89,0,0,0,18.33-.07,17,17,0,0,1,2.44-.49c1.47-.11,3.36-.54,3.88,1.23s-1.27,2.44-2.6,3.05a7.27,7.27,0,0,0-1.34.59,223.9,223.9,0,0,1-28.18,17.75c-3.07,1.64-6.31,2.95-9.38,4.57-2.09,1.1-3.45.22-4.8-1.22-9-9.61-20.69-13.5-33.32-14.91C128.67,378,123.9,379.31,119.21,380.35Z" class="cls-17"/><path d="M571.87,207.51a33.79,33.79,0,0,1-14.21-8.9c-18.57-18.53-47-16.8-64.94.3-18.56,17.73-45.83,17.76-65,.54-11.59-10.4-24.53-15.89-40-13.85a39.88,39.88,0,0,0-23.46,11.18c-9.6,9.65-21.27,15-34.62,15.4A44.3,44.3,0,0,1,298,200.83c-7.14-6.39-14.58-12.23-24.09-14.34-16.85-3.75-31.33,1-44,12.58-17.73,16.19-43.24,17.59-62.37,2.48-5.54-4.39-10.41-9.56-17.32-12.35-19.92-8-37-3.8-52,10.81-3,2.89-6.5,4.56-10,6.46a3.11,3.11,0,0,1-2-2.92c4.31-1.25,7.42-4.2,10.61-7.17,10.06-9.37,21.73-15.17,35.77-14.88,13.4.28,24.45,5.89,34.24,14.95a44.57,44.57,0,0,0,60.34.7c7.38-6.5,15.13-11.66,24.67-14.15,16.56-4.3,31,.1,43.37,11.18,10.37,9.29,21.91,14.95,36,14.18,10.56-.58,20.36-4.06,27.9-11.61C376.5,179.3,402.65,176,422.44,191c2.1,1.59,4.5,2.76,6.36,4.73,16.56,17.51,46,15.89,62.88-.17,17.08-16.28,39.73-19.2,59.83-6.09a50.41,50.41,0,0,1,9.39,7.35c4.42,4.69,10.35,7,16,9.61C575.21,206.66,573.27,205.79,571.87,207.51Z" class="cls-10"/><path d="M1369.46,794a44.8,44.8,0,0,0-34.32,10.56c-6.43,5.37-12.82,10.14-20.51,13.42-15.23,6.52-37.24,1.16-48.6-9.83-14.07-13.64-30.72-18-49.47-11.17-5.89,2.15-11.07,5.9-15.75,10.24-13.91,12.88-30.17,17.1-48.22,11.37a51.12,51.12,0,0,1-19.62-12c-10.69-10.17-23.92-14.59-38.49-12.31a43.77,43.77,0,0,0-24.21,12.63c-12.34,12.37-36.6,18.93-55.23,9-6.75-3.59-12-8.66-17.94-13.12A44.21,44.21,0,0,0,946.72,801c-2.63,1.73-5.34,3.35-8,5a6.83,6.83,0,0,0-1-4l.33-.72a43.7,43.7,0,0,1,27.31-11.81c16.51-1.21,30,4.31,42.15,15.41a43.39,43.39,0,0,0,59.44-1.67c19.33-18.93,51.35-18,68.33-1.18,12.81,12.66,27.83,16.19,45,11.76a35.24,35.24,0,0,0,17.06-9.94c17.73-18.91,50.41-19.2,68.36-2.58,6,5.56,12.49,11,21,13,16.49,3.72,31,.25,43.32-11.52,9.6-9.15,20.86-14.05,34.34-13.14,1.83.13,3.68,0,5.14,1.44Z" class="cls-19"/><path d="M944.71,742.06c-.73,6.21-3.7,12.05-3,19.13a45.08,45.08,0,0,1,20.52-8.48c14.84-2,28.23.62,39.74,11,10.07,9.07,21.36,16,35.64,15.27,11.88-.62,21.87-5.68,30.6-13.73,13.53-12.48,29.38-15.53,47.16-11.51,10.31,2.33,17.13,9.71,25,15.62,14.56,11,30.17,12.21,46.37,4.89a48.19,48.19,0,0,0,13.48-9.24c13.15-12.67,28.74-15.2,46.11-11.26,10.3,2.34,17.24,9.56,25.07,15.6,14.33,11,35,13.59,51.5,2,6.65-4.65,12-11,19.53-14.45a49.77,49.77,0,0,1,23.09-4.83c0,1,0,2,0,3-1.08,1.31-2.64,1.29-4.11,1.44-10.85,1.07-20,5.68-28,13-20.35,18.79-48.23,18.93-69.68.05-8-7.07-16.66-12-27.48-12.63-10.49-.63-20,1.54-28.58,8.08-7,5.34-13.1,11.89-21.67,15-19.24,6.9-36.69,3.91-52.25-9.38-6.75-5.76-13.5-11.16-22.65-12.93-15.67-3-29.44,1.1-40.47,11.91-18,17.63-49.32,18-66.56,2.24-6.36-5.81-13-11.34-21.79-13.65-12.15-3.2-23.38-1.31-34.09,4.84-1.85,1.06-3.38,2.82-5.81,2.46l-.66-.45a8.33,8.33,0,0,0,.29-1.36c-7.89-3-1.79-7.5-1.08-11.22A35.74,35.74,0,0,0,942,746.3C942,744.62,941.22,741.78,944.71,742.06Z" class="cls-19"/><path d="M959.71,701.09a32,32,0,0,1-4,10c-.56,1-1.38,2.13-.56,3.24s2.06.65,3.22.41c13.1-2.72,25.57-1.46,37.41,5.32,4,2.28,6.93,5.63,10.37,8.44,10.33,8.44,21.79,13,35.24,11.13,12.1-1.68,21.48-8.3,30.59-16.13,9.94-8.55,22-11.29,35.25-9.76,12.86,1.49,22.59,8,32.13,16.26,9.06,7.88,20.2,11.22,32.8,9.58a52,52,0,0,0,23.31-9.21c5-3.46,8.69-8.5,14.24-11.45,17.87-9.49,43.5-6.51,57.73,8.66,6,6.44,14.33,9.88,23.18,11.53,16.65,3.09,30.17-2.63,41.74-14.36,5.53-5.61,13.29-7.26,20.07-10.64,1.79.77,2.09,2.28,2,4-9.55,1.61-16.84,6.95-24,13.24a47.64,47.64,0,0,1-28.21,12c-17.61,1.52-30.67-6.72-42.64-17.76-6.32-5.83-14-7.25-21.87-8.33-7.1-1-14.18.13-21,2.33-6.22,2-10.87,6.32-15.5,10.51-13.23,12-28.69,15.78-45.74,12a45.54,45.54,0,0,1-23.48-13.3c-12.22-13.12-36.2-15.2-51.71-6.82-4.17,2.24-7.89,5.45-11.48,8.6-8.9,7.81-18.76,12.35-31,12.75-15,.49-26.92-5.31-37.61-15.08-12.14-11.09-26.26-13.27-42-9.63-5.39,1.24-7.5,4-8.69,8.65-.69,2.69-1.84,5.26-2.78,7.88-.05-1.32.34-2.9-.25-3.92-1.45-2.54-2.25-4.5,1.52-5.49a1.57,1.57,0,0,0,.9-1.11c.65-7.1,6.76-12.19,7.08-19.38C956.07,702.68,958.58,702.56,959.71,701.09Z" class="cls-19"/><path d="M1338.48,686.1c-7.3,6.14-14.32,12.59-23.62,15.89-15,5.33-28.87,3.36-42.19-5.09-8.21-5.2-14.58-12.86-24.3-16.14-17.73-6-33-2-46.69,9.79s-29.06,18-47.13,12.4c-8.2-2.53-16.41-6-22.21-12.73-9.41-11-33.62-16.41-48.39-8.5-6.38,3.42-11.52,8.06-17.19,12.24-13.71,10.11-28.89,14.31-45.91,8.32-9.71-3.42-16.81-10.42-24.86-16.21a45.12,45.12,0,0,0-19.55-7.83c-2.65-.41-3.82,1.37-5,3.32-2.52,4.21-5.16,8.36-7.75,12.53a41.3,41.3,0,0,1,.16-4.85c.27-1.89.48-3.21,2.84-4.68,3.65-2.27,6.58-6.32,8.68-10.22,1.3-2.43.3-5.89,4-7.45.85-.36.84-3.19-1.53-3.73-1.23-.28-2.46-.72-1.62-2.24.59-1.09,1.75-.71,2.58-.08,3.57,2.66,5.82.57,6.72-2.52s2.77-3.28,5.2-3.19q-6.16,8.4-12.33,16.8c-.8,1.09-2.78,2.63.24,3.08,12.66,1.91,21.51,10.22,31.21,17.5,16.85,12.67,40.6,11.3,56.3-3.19,19.39-17.9,44-21.5,66.2-3.77,7.86,6.27,15.42,12.36,25.52,14.64,12.67,2.87,23.94-.51,34.8-6.72,6.33-3.62,10.62-9.64,17.17-13.23,16.34-8.93,38-7.74,52.32,4.16,8.5,7.08,16.92,14,28.11,16,15.84,2.87,29.41-2.12,41.06-12.79,1.7-1.56,3.17-3.35,5.19-4.55A3.08,3.08,0,0,1,1338.48,686.1Z" class="cls-19"/><path d="M617.86,776.24c.06-11.84,9.6-21.57,21.18-21,12.53.64,21.16,10.62,20.9,21a21.38,21.38,0,0,1-21.65,21.2C626.7,797.32,617.8,788.08,617.86,776.24Z" class="cls-6"/><path d="M104.22,409.25c2.92-8.82,8-16.63,12-24.94,10.85-2.51,21.61-3.13,32.33.89,6.39,2.4,11.38,6.56,16.53,11.51C145.34,405.56,124.91,408,104.22,409.25Z" class="cls-17"/><path d="M67.05,793c1.13,4.81-.78,6.66-5.46,6-1.46-.21-3,.09-4.48-.06-3.15-.32-4.19,1.18-3.91,4.11a33.84,33.84,0,0,1,0,3.49c0,6.52,0,6.31-6.5,6.51-4.12.14-6-1.25-5.44-5.42.12-1-.12-2,0-3,.77-4.72-1.36-6.35-5.83-5.69-1,.14-2-.09-3,0-4.91.64-5.23-2.26-5.31-6.09-.08-4.12.89-6.06,5.53-5.94,8.48.22,8.83,0,8.46-8.29-.26-5.57,2.68-5.5,6.76-5.75,4.76-.3,5.87,1.75,5.29,5.82a2.09,2.09,0,0,0,0,.5c.08,8.71-1,8,7.63,7.72C65.54,786.85,68.55,787.52,67.05,793Z" class="cls-20"/><path d="M103.78,773.07c4.21-.84,5.93,1.33,5.37,5.87-.12,1,.11,2,0,3-.64,4.3,1.36,5.74,5.37,5.15a5,5,0,0,1,1.49,0c2,.36,4.94-1.18,5.84,1.32,1.05,2.91.67,6.24.08,9.35-.21,1.16-1.46,1.19-2.46,1.21a57,57,0,0,1-6,0c-3.19-.29-4.73.88-4.32,4.21a23.14,23.14,0,0,1,0,2.5c0,7.06-2.93,9.18-9.93,7.29-1.09-.29-1.85-.73-1.94-1.9-.07-.82-.06-1.66-.08-2.49-.22-9.22-.22-9.46-9.37-9.49-5,0-4.52-3.06-4.6-6.3s.1-5.76,4.61-5.8c9.14-.06,9.14-.27,9.36-9.5C97.29,773,97.29,773,103.78,773.07Z" class="cls-20"/><path d="M62.38,753.63c-6.46.16-9.08-3.5-7.05-9.73a2.18,2.18,0,0,1,2.08-1.76c.82,0,1.66,0,2.49-.07,9.13-.17,9.45-.18,9.24-9.56-.11-5.27,3-4.4,6.13-4.45s6.18-.65,6,4.52c-.23,9.29.08,9.57,9.31,9.37,4.57-.09,4.71,2.18,4.59,5.51s.61,7.1-4.76,6.53c-.33,0-.66,0-1,0-8.15.08-8.5.1-8.14,8.17.23,5.22-2.59,5-6.15,5-3.74.06-6.81-.08-5.92-5.12a9.38,9.38,0,0,0,0-1.5C69.26,753.46,69.26,753.46,62.38,753.63Z" class="cls-20"/><path d="M89,701c8.07.11,8.21,0,8.22-7.94,0-6.82,2.63-8.68,9.48-6.86a2.86,2.86,0,0,1,2.41,2.73c.06.66,0,1.33.06,2,.27,9,.28,9.48,9.17,9.4,6.51-.05,3.31,4.29,3.83,6.8.59,2.79.21,5.5-3.89,4.93a4.17,4.17,0,0,0-.5,0c-8.55.2-8.93.22-8.47,8.8.29,5.5-2.62,5.16-6.38,5.3-4.05.15-6-.56-5.83-5.33.35-8.48,0-8.49-9-8.77-1.79-.06-4.13.37-4.51-2-.46-2.89-1.19-6.12.47-8.72C85.1,699.67,87.43,701.56,89,701Z" class="cls-21"/><path d="M153.16,805.75c0-6.75,0-6.75-6.7-6.76-7.35,0-8.89-2.14-7.32-9.64.43-2,1.61-2.15,3.19-2.29,3.42-.29,7.67,1.5,10-1,2.19-2.25.74-6.37.72-9.64,0-4.6,3.26-3.3,5.62-3.34s5.6-1.1,5.54,3.44c0,3.26-1.47,7.32.77,9.62s6.33.73,9.59.84c2.47.08,3.8.79,3.59,3.45a17,17,0,0,0,0,3.49c.53,3.88-.94,5.21-5,5.12-9-.19-9.29,0-8.93,8.79.2,5-2.14,5.13-6,5.25-4.19.13-5.85-1.25-5.22-5.37A14.8,14.8,0,0,0,153.16,805.75Z" class="cls-3"/><path d="M142.67,754a6.38,6.38,0,0,1-2.42-.17c-3.49-1.12-4.08.8-4,3.57a31,31,0,0,0,0,4c.69,4.59-1.19,5.77-5.75,5.93-5.32.2-5.5-2.35-5.39-6.3.19-7,0-7-6.91-7-6.4,0-9.4-4.63-6.88-10.42.93-2.15,2.79-1.42,4.31-1.47,9.36-.27,9.67-.25,9.41-9.43-.14-5.06,2.68-4.54,6-4.67,3.56-.14,5.43.47,5.33,4.8-.21,9.25,0,9.55,7.55,9.17,4.89-.25,6.93.94,6.44,6.24C149.81,753.89,150.07,754,142.67,754Z" class="cls-3"/><path d="M311.06,250.48c-5-.69-8.65-3.85-12.4-6.91-6.13-5-11.81-10.68-19.6-13.34-16.59-5.66-31.72-3.19-45.21,8-7,5.85-13.84,11.87-23.1,14.06-17.69,4.19-33.46.92-46.93-11.75-12.11-11.38-26.34-15.56-42.64-12.07a83.68,83.68,0,0,0-9,3,3,3,0,0,1-2-3c13.33-5.13,26.72-5.95,40.31-.87,6.4,2.38,11.42,6.7,16.35,11.09,19.08,17,43.94,16.23,62.35-1.11s48.26-18.08,66.79-.75a58.11,58.11,0,0,0,18.78,11.87c2.35.91,4.75,1.44,7.26.59-1.21,2.59-3.19,2.31-5.33,1.44l-7.8-3.16C308.79,249.39,310.78,249.31,311.06,250.48Z" class="cls-9"/><path d="M292.11,276.36c-5.65-3.44-11-7.43-17.64-8.92-16.63-3.74-31.72-.18-43.52,11.95-12.3,12.66-36.12,16-51.34,10.05-8.73-3.44-14.72-9.94-21.93-15.07-6.78-4.82-14.17-7.81-22.55-8.1-1.48-1.48-5-.34-4.94-3.78,14.67,0,26.91,5.35,37.47,15.66,15.22,14.87,44,15,59.09.13,9.88-9.73,21.66-15.63,35.52-15.64,12.33,0,24,3.08,32.88,12.72C294.05,275.43,292.86,275.22,292.11,276.36Z" class="cls-8"/><path d="M490.5,244.18c13.88-17.29,38.2-21.35,53.92-12.16C537.76,239.31,510.62,245.51,490.5,244.18Z" class="cls-17"/><path d="M247.12,307.37a104.49,104.49,0,0,0-19.06,13.21c-13.1,11.09-33,14.49-49.08,7.26-6.93-3.12-12.7-7.69-18.4-12.52a44.57,44.57,0,0,0-21.39-10,3.15,3.15,0,0,1,0-3.9c12.5,2.83,22.11,10.28,32.12,18,13.29,10.21,28.75,11.43,44.66,4.66,8.2-3.49,13.47-10.7,21-15,3.28-1.87,6.12-4.67,10.21-4.81C248.61,305.33,242.11,306.38,247.12,307.37Z" class="cls-9"/><path d="M209.11,372.31c.85-1.37,3-1.48,3.29-3.82-4.66,0-8.93,1.94-13.55,2-13.06,0-24.47-4-33.95-12.91A50.94,50.94,0,0,0,137,343.7a7.53,7.53,0,0,0-4.79.56,5.59,5.59,0,0,1,2-4c12.81.19,23.6,5.48,32.42,14.24,13,12.9,35.88,16.06,51.45,6.9a39.09,39.09,0,0,1,5-2.11c-.94,2.1-3.33,2.55-4.75,4.14s-4,.4-5.42,2.48c4.2.67,3.51,2.39,1.07,4.56A6.5,6.5,0,0,1,209.11,372.31Z" class="cls-8"/><path d="M1408.34,250.08c-2.32-.51-3.73-2-3.68-4.17.06-2.39,1.54-4.27,4.09-4,2,.17,3.88,1.4,3.6,3.95A4.35,4.35,0,0,1,1408.34,250.08Z" class="cls-22"/><path d="M1412.5,185.33c-.59,2.68-2,4.24-4.47,4a3.9,3.9,0,0,1,.37-7.77C1411,181.49,1412,183.32,1412.5,185.33Z" class="cls-23"/><path d="M137.24,849c-2.28-.28-3.84-1.42-4-3.69a3.66,3.66,0,0,1,3.86-4.15,3.6,3.6,0,0,1,3.91,3.61C141.2,847.25,139.61,848.56,137.24,849Z" class="cls-24"/><path d="M1407,432.16c-2.25-.5-3.64-1.83-3.45-4.15a3.59,3.59,0,0,1,3.92-3.64,3.68,3.68,0,0,1,3.8,3.8C1411.44,431,1409.12,431.51,1407,432.16Z" class="cls-25"/><path d="M137.46,899.83c-2.12-.68-4.41-1.24-4.19-4.1a3.9,3.9,0,0,1,7.78.11C141.14,898.16,139.7,899.43,137.46,899.83Z" class="cls-26"/><path d="M1412.42,124.46c-.26,2.29-1.44,3.81-3.75,3.94s-4-1.25-4-3.5,1.08-4.38,3.88-4.28C1410.89,120.7,1412.09,122.22,1412.42,124.46Z" class="cls-27"/><path d="M1387.14,185.2a4.08,4.08,0,0,1-3.69,4c-2.39.29-3.72-1.33-3.86-3.52s.53-4,3.12-4.21S1386.45,183,1387.14,185.2Z" class="cls-28"/><path d="M201.84,895.72c-.31,2.4-1.69,3.8-3.85,4s-3.75-.86-3.9-3.39.91-3.93,3.22-4.12C199.77,892,201.21,893.51,201.84,895.72Z" class="cls-29"/><path d="M1411.31,367.82a4,4,0,0,1-4.09,3.49c-2.59.1-3.69-1.55-3.53-3.73.15-1.93.91-4.16,3.47-4S1410.9,365.37,1411.31,367.82Z" class="cls-30"/><path d="M380.3,850c-3.07.12-4-1.56-4.18-3.71-.23-2.64,1.73-3.4,3.8-3.59,2.25-.21,4,.83,4,3.29A3.76,3.76,0,0,1,380.3,850Z" class="cls-31"/><path d="M1387.13,124.6c-.58,2.23-1.53,4-4.27,3.89s-3.31-2-3.27-4.07c.05-2.23,1.35-3.86,3.71-3.69A4.08,4.08,0,0,1,1387.13,124.6Z" class="cls-32"/><path d="M259.74,850.08c-3.71-.19-5.09-1.58-5-3.85a3.71,3.71,0,0,1,4-3.63c2.13,0,4.1,1.08,3.9,3.54S261.19,850.19,259.74,850.08Z" class="cls-33"/><path d="M50,845.07c-.65,2-1.29,4-3.84,3.81s-4-1.76-3.75-4.26a3.66,3.66,0,0,1,4-3.52C48.88,841.16,49.47,843.14,50,845.07Z" class="cls-34"/><path d="M319,893.26c1.93.44,3.77,1.08,4,3.57a3.19,3.19,0,0,1-3.45,3.88c-2,0-4.22-.8-4.31-3.27C315.23,895.24,316.7,893.79,319,893.26Z" class="cls-35"/><path d="M141.05,870.33c-.31,2.3-1.31,3.73-3.85,3.68-2.29,0-3.93-.69-4-3.32-.06-2.13.77-3.54,3.08-3.7A4.13,4.13,0,0,1,141.05,870.33Z" class="cls-36"/><path d="M1411.35,307c-.8,2-1.89,4.09-4.36,3.88a3.74,3.74,0,0,1-3.34-4.22c.09-1.93,1.2-3.74,3.27-3.69A4.51,4.51,0,0,1,1411.35,307Z" class="cls-32"/><path d="M323,844.78c.1,3.82-1,5.15-3.42,5.22-2.69.07-4-1.62-4.15-3.89-.17-2.43,1.75-3.46,3.87-3.49S323,843.84,323,844.78Z" class="cls-37"/><path d="M1332,181.5c2.73-.09,3.86,1.67,4,3.7.22,2.29-1.46,3.78-3.61,4-2.36.24-3.7-1.4-3.81-3.64S1330,182,1332,181.5Z" class="cls-32"/><path d="M1361.44,246a3.57,3.57,0,0,1-3.6,3.94c-2.64.1-3.47-2-3.35-4.41.1-2,1.08-3.75,3.15-3.64C1359.91,242,1361.61,243.36,1361.44,246Z" class="cls-38"/><path d="M1412.36,275.56c.09,3.05-1.63,4.21-3.68,4.4-2.3.22-3.76-1.48-4-3.63-.25-2.37,1.38-3.68,3.62-3.83C1410.72,272.34,1411.78,274,1412.36,275.56Z" class="cls-39"/><path d="M50,895.88c-.47,1.77-.94,3.86-3.19,3.82s-4.4-1-4.4-3.74a3.65,3.65,0,0,1,3.71-3.89C48.64,891.88,49.34,893.85,50,895.88Z" class="cls-40"/><path d="M1412.38,215.89c-.48,2-1.7,3.53-4,3.42s-3.87-1.44-3.64-3.82c.21-2.15,1.66-3.85,4-3.64C1410.7,212,1412.45,213.18,1412.38,215.89Z" class="cls-30"/><path d="M380.17,875c-2.21.07-4.09-.45-4-3.12a3.88,3.88,0,0,1,7.74-.3C384.16,874.17,382.49,875,380.17,875Z" class="cls-41"/><path d="M1356.74,432c-2.34-.38-4-1.59-3.84-3.84.11-2,1.16-3.91,3.66-3.8a3.74,3.74,0,0,1,3.79,3.77C1360.54,430.7,1358.49,431.29,1356.74,432Z" class="cls-42"/><path d="M259.53,868c2,.15,3.22,1.88,3.13,4.22-.09,2.17-1.78,2.87-3.89,2.8-2.4-.07-3.72-1.07-3.68-3.57S256.46,867.91,259.53,868Z" class="cls-43"/><path d="M319,875c-2.49.06-3.8-1.39-3.65-3.64a3.5,3.5,0,0,1,4.13-3.31c2.15.19,3.75,1.23,3.6,3.79S321.23,875.1,319,875Z" class="cls-44"/><path d="M384,896.76a3.62,3.62,0,0,1-3.83,3.78c-2,.07-3.93-1-4-3.45s1.76-3.63,3.79-3.7A3.69,3.69,0,0,1,384,896.76Z" class="cls-45"/><path d="M1411.25,458.28c-.69,2.05-1.47,4.21-4.25,3.86a3.64,3.64,0,0,1-3.42-4.1c.16-2.43,1.87-3.41,4.14-3.07C1409.52,455.23,1411.39,455.72,1411.25,458.28Z" class="cls-46"/><path d="M76.69,892.06c2.12.49,3.58,1.73,3.44,4.05s-1.5,3.78-3.84,3.57c-2.15-.19-3.8-1.59-3.67-3.89S74.46,892.44,76.69,892.06Z" class="cls-47"/><path d="M1411.36,336.6c-.43,2.47-1.51,4.2-3.74,4.35s-3.7-1.51-3.93-3.64c-.25-2.35,1.32-3.68,3.54-3.85S1410.68,334.89,1411.36,336.6Z" class="cls-48"/><path d="M76.85,841.12c2.05.55,3.5,1.84,3.29,4.16a3.66,3.66,0,0,1-4,3.59c-2.47,0-3.47-1.72-3.3-4S74.44,841.35,76.85,841.12Z" class="cls-31"/><path d="M197.71,848.87c-2.09-.32-3.72-1.15-3.59-3.69.12-2.25,1.28-3.89,3.52-3.95s3.54,1.22,3.57,3.7S200,848.47,197.71,848.87Z" class="cls-49"/><path d="M167.47,848.9c-2.08-.6-3.91-1.42-3.66-4,.21-2.29,1.59-3.82,3.89-3.71a3.48,3.48,0,0,1,3.37,3.68C171.1,847.19,169.71,848.5,167.47,848.9Z" class="cls-50"/><path d="M1335.92,124.92c-.28,1.77-1,3.48-3.28,3.49-2.56,0-4-1.55-4-4.1,0-2.25,1.8-3.28,3.63-3.43C1334.71,120.67,1335.62,122.54,1335.92,124.92Z" class="cls-46"/><path d="M46,867c2.06,0,3.8,1.09,3.95,3.37S48.85,874,46.3,874s-3.81-1.3-3.86-3.54C42.41,868.54,43.44,867,46,867Z" class="cls-51"/><path d="M323.08,922.63c-.11,2.31-1.38,3.32-3.55,3.3s-4.09-1.11-4.18-3.37,1.64-3.61,3.93-3.51S323.15,920.07,323.08,922.63Z" class="cls-52"/><path d="M1381.56,363.4c2.5.43,3.74,1.78,3.88,4.07.12,2.08-.61,3.57-2.94,3.82-2.6.29-3.67-1.28-4-3.46C1378.24,365.47,1379.72,364.22,1381.56,363.4Z" class="cls-53"/><path d="M1360.34,367.58c-.31,2.18-1.53,3.58-3.86,3.67s-3.32-1.67-3.56-3.48a3.46,3.46,0,0,1,3.44-4.06C1358.68,363.57,1359.78,365.38,1360.34,367.58Z" class="cls-54"/><path d="M1334.49,367.27c0,2.64-1,4-3.24,4-2.61.1-3.56-1.59-3.67-3.76s1.23-4,3.51-4A3.53,3.53,0,0,1,1334.49,367.27Z" class="cls-54"/><path d="M1382,302.9c2.15.46,3.53,1.55,3.53,4s-1.36,3.85-3.52,3.86-3.51-1.46-3.52-3.86S1379.79,303.34,1382,302.9Z" class="cls-55"/><path d="M1331.11,302.92c2.32.53,3.51,1.82,3.39,4.25-.11,2.25-1.46,3.55-3.43,3.55-2.26,0-3.62-1.45-3.59-3.91S1328.93,303.27,1331.11,302.92Z" class="cls-56"/><path d="M1383.52,272.42a3.62,3.62,0,0,1,3.47,4,3.73,3.73,0,0,1-4,3.51c-2-.22-3.78-1.47-3.44-4A3.89,3.89,0,0,1,1383.52,272.42Z" class="cls-57"/><path d="M1361.45,124.63c-.38,2.21-1.56,3.69-3.86,3.78s-3.15-1.44-3.12-3.53c0-2.25,1.1-4,3.36-4.14S1361.21,122.41,1361.45,124.63Z" class="cls-23"/><path d="M141.12,921.12c-.41,2.28-1.65,3.58-3.65,3.68a3.63,3.63,0,0,1-4.18-3.81c-.08-2.32,1.5-3.07,3.59-3.07C139.22,917.92,140.39,919.31,141.12,921.12Z" class="cls-58"/><path d="M1331.94,249.87a3.81,3.81,0,0,1-3.22-4.29c.17-1.91,1.25-3.66,3.45-3.53a3.72,3.72,0,0,1,3.7,3.95C1335.81,248.21,1334.24,249.52,1331.94,249.87Z" class="cls-59"/><path d="M1387.17,215.44c-.56,1.95-1.21,3.91-3.73,3.89a3.69,3.69,0,0,1-3.88-3.68,3.12,3.12,0,0,1,3.23-3.6C1384.9,212,1386.44,213.3,1387.17,215.44Z" class="cls-60"/><path d="M197.93,867c2.41.12,3.74,1.54,3.55,3.81s-1.82,3.37-4.19,3.22-3.2-1.4-3.17-3.57C194.16,867.92,195.5,866.86,197.93,867Z" class="cls-61"/><path d="M80.23,921.85c-.12,2.18-1.93,2.93-4,3s-3.74-1.09-3.55-3.22A3.73,3.73,0,0,1,77,917.92C79.24,918.1,80.23,919.29,80.23,921.85Z" class="cls-62"/><path d="M232.08,871.94c-.27,2.79-2.12,3.11-4.26,3.08s-3.51-1.35-3.25-3.39,1.41-3.86,3.92-3.56A3.87,3.87,0,0,1,232.08,871.94Z" class="cls-63"/><path d="M106.68,841.09a4,4,0,0,1,3.51,4.12c.06,2-.63,3.68-3,3.66a3.68,3.68,0,0,1-3.93-3.62C103.09,842.93,104.51,841.65,106.68,841.09Z" class="cls-58"/><path d="M1361.45,185.54c-.31,2-1.36,3.68-3.38,3.67-2.57,0-3.62-2-3.6-4.39,0-2.17,1.11-3.52,3.37-3.27S1361.25,183.3,1361.45,185.54Z" class="cls-64"/><path d="M262.8,897.23c-.68,2.3-2.18,3.62-4.37,3.49s-3.66-1.46-3.33-4a3.28,3.28,0,0,1,3.74-3.14A4.09,4.09,0,0,1,262.8,897.23Z" class="cls-65"/><path d="M1381.67,432a3.44,3.44,0,0,1-3.12-3.65c0-2.09.75-3.94,3.35-4,2.15-.06,3.36.94,3.55,3.18C1385.67,430.19,1384.06,431.31,1381.67,432Z" class="cls-23"/><path d="M1383.11,242c2.26.48,3.81,1.83,3.73,4.06a3.7,3.7,0,0,1-3.92,3.76c-2.33-.1-3.44-2-3.25-4.23A3.62,3.62,0,0,1,1383.11,242Z" class="cls-66"/><path d="M106.65,874c-2.51,0-3.54-1.42-3.44-3.82s1.42-3.21,3.56-3.2c2.55,0,3.51,1.44,3.41,3.82S108.82,874,106.65,874Z" class="cls-51"/><path d="M384,922.43c-.73,2.36-2.13,3.53-4.44,3.51a3.09,3.09,0,0,1-3.3-3.54c.14-2.28,1.81-3.56,4.13-3.38C382.46,919.19,383.5,920.64,384,922.43Z" class="cls-51"/><path d="M259.46,925.94c-2.81,0-4.17-.82-4.36-3.1-.2-2.62,1.46-3.55,3.63-3.8a3.12,3.12,0,0,1,3.71,3.14C262.59,924.48,261.22,925.86,259.46,925.94Z" class="cls-67"/><path d="M1411.37,397.69c-.63,2.37-2,3.56-4.3,3.62a3.09,3.09,0,0,1-3.4-3.44c0-2.29,1.67-3.6,4-3.49C1409.77,394.47,1410.83,395.91,1411.37,397.69Z" class="cls-68"/><path d="M1331,424.29c2.74.19,3.5,1.65,3.44,3.75s-1,3.81-3.12,3.79-3.93-1.14-3.79-3.71A4,4,0,0,1,1331,424.29Z" class="cls-42"/><path d="M46.45,924.9c-2.13-.15-3.78-1.13-4-3.16-.22-2.36,1.47-3.52,3.69-3.8A3.1,3.1,0,0,1,50,921C50.21,923.39,48.53,924.45,46.45,924.9Z" class="cls-69"/><path d="M285.21,897.34c.4-2.11,1.48-3.93,3.69-3.94a4,4,0,0,1,3.9,3.75c.31,2.52-1.9,3.4-3.86,3.38A3.5,3.5,0,0,1,285.21,897.34Z" class="cls-70"/><path d="M167.55,892.08c2.22.47,3.55,1.77,3.5,4.09s-1.83,3.21-3.65,3.36c-2.09.16-3.24-1.13-3.3-3.4C164,893.63,165.34,892.55,167.55,892.08Z" class="cls-71"/><path d="M292.78,872c-.43,2.32-1.78,3.14-3.93,3.07-2.54-.1-3.73-1.57-3.49-3.83a3.48,3.48,0,0,1,3.84-3.16C291.72,868.13,292.33,870.09,292.78,872Z" class="cls-67"/><path d="M292.8,846.08c-.61,2-1.33,4-3.89,3.84a3.74,3.74,0,0,1-3.7-3.94c-.06-2.06,1.27-2.94,3.19-3A3.9,3.9,0,0,1,292.8,846.08Z" class="cls-72"/><path d="M350.18,850c-3,0-4.16-1.23-4.11-3.67.05-2.23,1.2-3.33,3.41-3.35s3.46.88,3.58,3.16S352.15,849.88,350.18,850Z" class="cls-73"/><path d="M80.21,870.61c-.06,2.57-1.55,3.48-3.91,3.37s-3.14-1.5-3.11-3.64S74.33,867,76.57,867C79,866.94,80.26,868.13,80.21,870.61Z" class="cls-74"/><path d="M1334.48,397.62c0,2.14-.81,3.53-3.13,3.67-2.61.15-3.59-1.5-3.77-3.68s1.25-3.29,3.42-3.3S1334.42,395.36,1334.48,397.62Z" class="cls-75"/><path d="M289,926c-2.13-.4-3.86-1.45-3.69-3.78a3.79,3.79,0,0,1,7.47.06C292.94,924.55,291.23,925.62,289,926Z" class="cls-26"/><path d="M1360.38,306.75c-.5,2.13-1.21,3.74-3.55,3.63s-4.06-1.06-3.91-3.44c.12-1.77,1.14-3.53,3.44-3.56S1359.79,304.92,1360.38,306.75Z" class="cls-68"/><path d="M1357.66,219.38c-2.35-.22-3-1.89-3.12-3.77-.11-2,1-3.75,3-3.73s3.89,1.16,3.79,3.65C1361.28,217.81,1359.83,219,1357.66,219.38Z" class="cls-32"/><path d="M1360.23,337c-.4,2.37-1.58,3.95-3.86,3.95s-3.13-1.7-3.26-3.65c-.17-2.5,1.59-3.59,3.69-3.75C1359.13,333.38,1359.48,335.54,1360.23,337Z" class="cls-30"/><path d="M1360.17,458.39c-.52,1.81-1.15,3.74-3.67,3.78-2.7,0-3.18-2.09-3.4-4.05a2.77,2.77,0,0,1,2.92-3.25C1358.1,454.86,1359.9,455.73,1360.17,458.39Z" class="cls-75"/><path d="M232.09,845.84c-.17,2.31-1.34,3.77-3.58,4.06a3.12,3.12,0,0,1-3.7-3.09c-.2-2.25,1-3.72,3.47-3.85C230.37,842.86,231.79,843.62,232.09,845.84Z" class="cls-76"/><path d="M1361.47,276c-.26,2.83-2,4-4,3.91s-3.11-1.82-2.92-3.85c.17-1.86.83-3.72,3.2-3.57S1361.06,274.28,1361.47,276Z" class="cls-27"/><path d="M1331.92,219.33c-1.86-.55-3.4-1.6-3.2-3.73s1.58-3.94,3.83-3.72a3.79,3.79,0,0,1,3.27,4.27C1335.68,218.26,1333.87,219,1331.92,219.33Z" class="cls-68"/><path d="M1385.44,397c0,2.61-.66,4-2.94,4.29-2.52.27-3.61-1.22-3.93-3.37s.73-3.44,3-3.59S1385.3,395.07,1385.44,397Z" class="cls-56"/><path d="M1408.63,158.48c-2.27-.16-3.94-1.3-3.94-3.57a3.38,3.38,0,0,1,3.59-3.36c2.3-.08,3.93,1.24,4,3.5C1412.25,157.08,1410.64,158.15,1408.63,158.48Z" class="cls-38"/><path d="M1383.66,151.43c1.64-.09,3.08,1.29,3.16,3.48a3.31,3.31,0,0,1-3.33,3.56c-2.52.22-3.77-1.2-3.82-3.43C1379.62,153.12,1380.55,151.53,1383.66,151.43Z" class="cls-27"/><path d="M106.76,924.83c-1.86-.38-3.51-1-3.56-3.3s1.17-3.62,3.6-3.62,3.77,1.46,3.73,3.65S108.66,924.43,106.76,924.83Z" class="cls-24"/><path d="M197.73,924.83c-1.9-.37-3.56-.94-3.6-3.31s1.17-3.61,3.62-3.62a3.37,3.37,0,0,1,3.73,3.19C201.73,923.62,199.74,924.33,197.73,924.83Z" class="cls-61"/><path d="M349.74,868c2.72.29,3.39,1.8,3.31,3.86-.08,2.3-1.44,3.17-3.58,3.15s-3.52-1.09-3.32-3.34A3.91,3.91,0,0,1,349.74,868Z" class="cls-77"/><path d="M171,870.81c-.55,2.15-1.61,3.39-3.89,3.17-2.67-.26-3.2-2-2.95-4.23s1.89-3,3.94-2.74C170.41,867.29,170.88,869,171,870.81Z" class="cls-78"/><path d="M228.62,893.48c1.89.45,3.49,1.28,3.41,3.56a3.44,3.44,0,0,1-3.33,3.65c-1.93.09-3.52-.84-3.62-3.19S226.43,894,228.62,893.48Z" class="cls-33"/><path d="M1335.4,277.41a3,3,0,0,1-3.12,2.53,3.69,3.69,0,0,1-3.57-4.05,3.21,3.21,0,0,1,3.62-3.27C1334.34,272.78,1335.7,274,1335.4,277.41Z" class="cls-30"/><path d="M353.09,897.35c.22,2-1.21,3.2-3.18,3.33-2.35.16-3.66-1.4-3.77-3.68a3.16,3.16,0,0,1,3.45-3.42C351.52,893.58,353,894.81,353.09,897.35Z" class="cls-37"/><path d="M1381.73,341a3.52,3.52,0,0,1-3.19-3.7,3.45,3.45,0,0,1,3.23-3.77c2.1-.15,3.35,1.39,3.61,3.39C1385.71,339.5,1383.82,340.36,1381.73,341Z" class="cls-79"/><path d="M1334.48,337.14c-.16,2-1,3.77-3.16,3.77a3.49,3.49,0,0,1-3.75-3.27c-.15-2.33,1.17-4,3.42-4.07C1333,333.49,1334.15,335.1,1334.48,337.14Z" class="cls-80"/><path d="M110.2,895.72c-.12,2-1,3.78-3.13,3.79-1.84,0-3.66-1-3.81-3.2s1.15-4,3.4-4.12C108.74,892.08,109.83,893.71,110.2,895.72Z" class="cls-41"/><path d="M1385.37,459a3.45,3.45,0,0,1-3.41,3.11c-2.27-.05-3.53-1.76-3.42-4,.09-1.76,1-3.29,3.06-3.08S1385.58,455.78,1385.37,459Z" class="cls-81"/><path d="M1358.74,158.46c-2.78.06-4.12-.82-4.25-3.06-.11-2,.42-3.7,2.75-3.84a3.46,3.46,0,0,1,4,3.37C1361.36,156.82,1360.36,158.38,1358.74,158.46Z" class="cls-82"/><path d="M1336,155c-.7,2.36-1.81,3.73-4,3.35-1.94-.33-3.49-1.56-3.23-3.64a3.5,3.5,0,0,1,4.21-3.17C1335.19,151.82,1335.6,153.63,1336,155Z" class="cls-83"/><path d="M228.4,919c1.95.29,3.48,1.4,3.51,3.47a3.12,3.12,0,0,1-3.38,3.48c-2.23,0-3.4-1.13-3.43-3.37S226,919.06,228.4,919Z" class="cls-51"/><path d="M1330.8,462.16c-2.09-.68-3.46-2-3.22-4.3a3.45,3.45,0,0,1,6.84.84A3.85,3.85,0,0,1,1330.8,462.16Z" class="cls-84"/><path d="M349.49,925.94c-2.11-.08-3.5-1-3.36-3.27a3.41,3.41,0,0,1,3.38-3.52c2.17,0,3.72,1.14,3.55,3.67C352.91,925.05,351.58,925.93,349.49,925.94Z" class="cls-85"/><path d="M1356.88,394.33c1.87.41,3.49,1.5,3.34,3.56-.16,2.23-1.8,3.51-4.13,3.33-2.07-.17-2.67-1.66-2.65-3.51C1353.46,395.51,1354.54,394.34,1356.88,394.33Z" class="cls-22"/><path d="M171.05,921.21c-.19,2-1.39,3.45-3.4,3.5s-3.52-.91-3.52-3.27c0-2.17,1-3.39,3.23-3.52S170.53,919.24,171.05,921.21Z" class="cls-51"/><path d="M937.71,783c0-4.94-.24-9.87.95-14.76.44-1.86,1.05-3.07,3.05-3.23h0c-1.15,6-.57,12.29-3.18,18Z" class="cls-19"/><path d="M937.71,802a38.16,38.16,0,0,1,0-19h0a23.35,23.35,0,0,1,0,19Z" class="cls-19"/><path d="M636.86,151.41c3.39-2.46,3.42-2.47,5-1-1.67,0-2.55,1.45-3.89,2.05Z" class="cls-86"/><path d="M1010.65,959.86c-5.71-5.86-11.55-11.59-17.09-17.61-10.26-11.17-18.71-23.64-26.71-36.53-5.7-9.18-9.36-19.16-13.94-28.78a5.94,5.94,0,0,1-.21-2c2.4-3.38,6.23-3.56,9.77-4.22,15.8-3,29.12,2.16,40.75,12.7,13.37,12.12,28.76,16,46.27,11.3,7.11-1.91,13.08-5.85,18.41-10.66,8.55-7.71,18.25-13,29.77-13.83,11.79-.89,22.79,1.8,32.23,9.42,4.92,4,9.56,8.22,15.18,11.32a46.78,46.78,0,0,0,55.33-7.74,46.48,46.48,0,0,1,64.51-.51c20.21,19.11,47.68,18.53,66.95.21a44,44,0,0,1,18-10.41c1.91-.57,3.87-1.25,5.64.41.08,4.68-2.35,8.76-4.3,12.53-5.37,10.39-10.1,21.09-17.06,30.75-6.46,9-12.82,17.93-20.18,26.14-4.72,5.27-9.33,10.71-15.11,14.94a3.18,3.18,0,0,0-1.3,2.55Z" class="cls-16"/><path d="M937.71,802V783c2.27-3.93.23-8.45,1.76-12.61a23.19,23.19,0,0,1,2.24-5.37c5.52-2.12,9.83-6.4,15.79-7.94,15.73-4.05,29.83-1.92,42.08,9.31,10.74,9.85,22.89,16.44,38,15.57a49.5,49.5,0,0,0,31.72-13.3c15.48-14.07,32.15-17.13,51.1-9.6,7.44,3,12.72,9.44,19,14.28,16.69,12.86,44.62,11.24,59.78-3.38,8.81-8.5,19-14.49,31.6-14.82,13.12-.34,24.41,4.15,34,13.5a48.8,48.8,0,0,0,56.27,8,53.42,53.42,0,0,0,11.67-8.41c9.18-8.74,19.93-13.49,32.74-13.22a132.58,132.58,0,0,1,4,36c-11.15-.73-21.84.42-31.46,6.94-5.34,3.62-9.81,8.24-14.91,12.15-12.11,9.28-39.39,9.64-51.18-2-4.64-4.58-10.28-8.29-15.86-11.77-11.8-7.37-24.85-6.6-37.65-3.93a35.15,35.15,0,0,0-18.22,10.72c-17,18.52-48.41,18.92-67-.83-7.39-7.85-17.34-10.73-28.31-11.52-12.92-.92-23.82,3-33.74,10.6-3.52,2.68-6.9,5.59-10.33,8.37-14.34,11.62-43.07,8.7-57.16-6-8.09-8.44-18.61-12.57-30.8-12.92-12.56-.36-23.6,2.52-33.25,10.6A5.55,5.55,0,0,1,937.71,802Z" class="cls-16"/><path d="M951.68,874a169.2,169.2,0,0,1-9-32c.62-2.12,2.36-3.11,4.08-4.17,17.29-10.59,41-8.12,55.36,6.16,17.88,17.7,48.26,18.87,67.7.3,17.43-16.65,43.27-17.34,61.82-1.95a94.93,94.93,0,0,0,13.21,9.77c17,9.75,40.58,6.9,55.84-7.76,17.6-16.92,46.2-17.29,64-.6,11.73,11,25.36,15.6,41.15,13.61,9.52-1.2,17.7-5.65,24.75-12.05a53.63,53.63,0,0,1,24.34-13.07c3.81-.86,7.86-1.77,11.54.77-1.22,9.46-2.46,18.9-6.52,27.7-1.07,2.32.08,5.43-2.48,7.27-.91,1.86-2.67,2.37-4.47,2.83-8.73,2.23-16,6.84-22.81,12.76-19.94,17.25-44,17.21-65-1.44-12.13-10.78-26.14-15-42-11.81a42.45,42.45,0,0,0-21.45,11.05,50.48,50.48,0,0,1-32.55,14.74c-12.47.81-23.72-3.57-32.84-12.05-10.39-9.66-22.15-15-36.46-14.68a43.77,43.77,0,0,0-29.38,12c-8.53,7.87-18.29,12.94-29.53,14.49-13.23,1.83-25-2.57-35-11.24-6.09-5.27-12.37-10-20-12.88-7.92-3-16-2.75-24.15-1.89A22.3,22.3,0,0,0,951.68,874Z" class="cls-16"/><path d="M1366.46,833c-14.44-1-25.7,5.29-36.23,14.5a45.56,45.56,0,0,1-27.88,11.62c-15.87,1-28.21-5.19-40-15.41-17.8-15.49-43.18-14.53-60.33,1.37-14.9,13.81-32.12,17.4-51.07,11.6-8.21-2.51-14.78-8.57-21.46-14.11-10.88-9-23.7-11.42-37.37-8.8-9,1.72-16.2,6.78-23,13-19.07,17.32-49,16.74-66.94-.93-11.29-11.12-24.81-14.32-39.65-12.56-7.14.85-13.88,4.3-19.83,8.72a6.8,6.8,0,0,1-1-4c2.67-.19,4.42-2.19,6.61-3.33,18.86-9.79,36.43-6.94,53,5.49,2.77,2.09,5.12,4.75,7.92,6.8,10.52,7.71,22.33,10.89,35.14,8.12,9.81-2.13,17.7-7.49,25.62-14.14,16.85-14.14,40.08-17.18,59.69-2.63,3.48,2.58,6.61,5.59,10.06,8.09,10.39,7.53,21.86,11.15,35,8.82,10.44-1.86,18.57-7.3,26.33-14.09,13-11.42,33.71-15.81,50.25-8.46a62.5,62.5,0,0,1,16.36,11.06c17.63,15.82,45.06,16.55,63.06-1.12,9.82-9.64,22.4-14.75,36.75-13.62C1367.35,830.39,1367.88,831.94,1366.46,833Z" class="cls-19"/><path d="M951.68,874c2-5.93,7.73-5.29,12-5.82,17.31-2.11,31.31,4.52,44.16,16.1,10.48,9.45,23.45,13,37.92,9.26,10.61-2.73,18.42-9.44,26.88-15.79,20.21-15.18,45.16-12.77,62.83,3.75,20,18.69,45.72,16.88,64-.14,15.53-14.48,39.31-17.57,56.89-7.39,5.74,3.32,10,8.12,15.32,11.71,8.14,5.46,16.93,9.22,26.83,9.23,10.83,0,21-3.42,28.75-10.71a65.74,65.74,0,0,1,30.2-16.2c.4,2.09-1.07,3.43-2,5-8.93,1-16.3,5-22.74,11.18-13.09,12.61-28.81,16.59-46.36,12.68-8.52-1.9-15.67-6.94-22.12-12.71-13.59-12.14-28.75-16-46.32-10-7.12,2.45-12.43,7-18.08,11.7-8,6.66-17.13,11.4-28.14,12.24-17.35,1.33-30.73-6.19-42.81-17.35-5.74-5.32-12.91-7.52-20.29-8.67-13.81-2.15-26.12,1.58-36.76,10.76a72.16,72.16,0,0,1-13.23,9.64c-12.88,6.83-26.11,7.38-39.8,2.6-9.18-3.21-15.55-10.38-23.23-15.71-8.41-5.85-17.5-8.78-27.94-7.69A59.67,59.67,0,0,0,952.7,875Z" class="cls-19"/><path d="M1388.46,616.14a9.17,9.17,0,0,1,1.93,6C1388.56,620.55,1388.33,618.4,1388.46,616.14Z" class="cls-87"/><path d="M624,82.53c1.66,6.14,6.08,10.56,9.64,15.52,2.2,3.07,4.2,6.27,6.29,9.41-10.53,6.31-18.92,15.78-30.11,21-16.48,7.73-32.06,5.06-46.57-5.39a85.36,85.36,0,0,1-6.94-5.7c-17.44-15.67-45.06-15.31-62.39.67-8.9,8.21-19.06,14.1-31.45,14.73-13.53.69-25.13-4.38-34.93-13.43-14.95-13.8-32-16.66-50.88-10.19-5.43,1.86-10,5.23-14.19,9.11-5.93,5.48-12.56,9.9-20.33,12.34-16.8,5.29-31.67,1-44.47-10.25-9.47-8.35-19.82-13.91-32.57-14.42-13.68-.55-25.35,4.17-35.37,13.45a49.43,49.43,0,0,1-25,12.69c-10.89,2-20.79-.54-30.19-5.76a54.36,54.36,0,0,1-11.53-8.73c-16.67-16.24-47.88-14.94-63.64,1.07-8.76,8.91-19.83,14.13-32.63,14.15a44.13,44.13,0,0,1-31-11.91c-9.09-8.5-19.29-14-31.77-15.14a4,4,0,0,1-2.61-1.34l0-34.89c1.79-1.69,4-1.6,6.14-1.23C15,69.66,22.2,72,28.4,77,34,81.42,39,86.69,45.66,89.63c16.27,7.14,32,6.62,47-3.5a136.85,136.85,0,0,0,11.32-9c15.39-13,44.89-12,58.95,2.49a56.48,56.48,0,0,0,11,8.57c15.59,9.62,39.65,8.2,54.44-5.38,3.93-3.6,7.94-7.15,12.66-9.69,15.26-8.23,39.71-6.78,52.35,5.91A50.11,50.11,0,0,0,308.74,90c20.11,8.73,38.08,4.65,53.94-9.76,14.5-13.16,30.91-14.92,48.83-9.14a31.36,31.36,0,0,1,10,5.59c2.47,2,5.08,3.8,7.39,5.95,17.14,16,46,16,64.39-1.85,13-12.61,28.69-15.26,45.84-10.87a40.69,40.69,0,0,1,16.95,9.22c4.74,4.2,9.52,8.46,15.4,11,16.58,7.11,32.42,5.56,47.39-4.6C620.46,84.36,621.79,82.71,624,82.53Z" class="cls-17"/><path d="M1.28,65.48V30.59c2.33-2.09,5-1.36,7.59-.82a53.11,53.11,0,0,1,25.71,13.6,46.4,46.4,0,0,0,63.79-.49c15.89-15.14,38.33-18.11,57.19-7.5a44.7,44.7,0,0,1,8.64,6.75,48.83,48.83,0,0,0,26.88,13.21c13.84,2.08,26-1.9,36.57-10.88,6.12-5.22,12.32-10.13,20.09-12.71,17.13-5.69,32.65-2.5,46.07,9.18,9.36,8.14,19.58,13.94,32,14.84a44.27,44.27,0,0,0,35.08-12.83,47.55,47.55,0,0,1,56.61-7.77c4.12,2.3,7.53,5.47,11.06,8.48,20,17,45.55,16.37,64.54-1.72,14.6-13.9,37-16.86,54.08-7.14,4.78,5.52,7.59,12.38,12.67,17.78,14.89,15.8,32.89,24.88,54.58,26.6,2.42.19,5.49-1.07,6.79,2.42-3.64,5.16-9.14,7.66-14.75,9.64-18.2,6.41-34,1.46-48.08-10.79-15.12-13.19-32-17.25-50.91-9.61a53.1,53.1,0,0,0-15.39,10c-12.28,10.92-26.53,15.84-42.92,11.8-8.17-2-15.25-6.29-21.63-11.94C412.25,67.18,395,63.1,375.67,71a36.76,36.76,0,0,0-13.24,8.73c-5.28,5.59-12,9.06-19,11.63-16.16,5.9-30.8,2-44.09-8.09-5.41-4.13-10.31-8.89-16.62-11.83-17.21-8-39.5-4.26-52.82,9.09-17.42,17.47-46.59,17.78-64.63.67-17.2-16.31-38.84-18.66-59.12-6.44A48.5,48.5,0,0,0,98,81.23c-17.53,16.66-45,17.13-62.67.7A55.62,55.62,0,0,0,5.85,67.23C4.21,67,2.51,66.82,1.28,65.48Z" class="cls-17"/><path d="M1.32,1.6l26.93,0C34.92,6.7,41,12.65,49.24,15.46,68.27,22,85.1,18.17,99.86,4.79a17.5,17.5,0,0,1,4.32-3.22h55c2.4.92,4.12,2.71,5.9,4.45,13,12.75,35.5,16.27,51.72,8.27,6-2.94,11.84-6,16.26-11.16a4.15,4.15,0,0,1,3-1.59h54.07c2.08.12,3.1,1.79,4.42,3C312.6,21.2,336.33,23.14,357.09,9.6c3.61-2.35,5.47-6.78,9.9-8.06l55,0c7.22,6.08,14.43,12.19,23.81,14.81,17.67,4.94,33.36,1.38,46.92-11.07a17.34,17.34,0,0,1,5.2-3.76l40.95,0L539,5.54a4.2,4.2,0,0,1,1.29,2.83,13.58,13.58,0,0,0,.79,5.32c.62,5.68,3.89,10.86,3.19,16.8-4.63,1.35-8.71-1.33-13.08-1.91-14.88-2-27.81,2.86-38,12.72C479,55,456.44,60.11,435.59,48.4c-4.27-2.4-7.41-6.15-11.19-9.15-19.52-15.53-45.28-14.51-63.2,2.67a46.67,46.67,0,0,1-61.64,2.84c-4.29-3.41-8.31-7.14-13.09-10-19.47-11.51-40.9-7.46-56.19,6.89-14.05,13.18-34.34,17.1-51.76,9.17-5.55-2.52-10.15-6-14.77-10-20.3-17.26-44.44-17.62-64.68.76C84,55.32,61.51,59.41,42.72,48.9a42.43,42.43,0,0,1-7.48-5.76c-8.08-7.21-17-12.85-28-14.3-2.14-.28-4.31-.65-5.94-2.3Z" class="cls-17"/><path d="M616.77,959.84c.22-27.29,12.59-47.77,36.38-60.28s48-10.89,70.31,4.37c19.4,13.28,28.55,32.6,29.39,56l-22,0a5.26,5.26,0,0,1-1.35-3.66c-1-20.25-17.85-36.82-36-41-15.71-3.62-33.89,3.86-43.42,15.57a47.1,47.1,0,0,0-10.64,24.9,6.72,6.72,0,0,1-1.44,4.17Z" class="cls-4"/><path d="M637.94,959.88c-.28-25.4,21.19-46.79,46.8-47,23.67-.17,47.67,21.93,46.09,47Z" class="cls-17"/><path d="M1.28,65.48A51.58,51.58,0,0,1,34.91,79.69C50,93.81,71.58,96.91,89.52,85.85c6.56-4,11.34-10.06,18.18-13.82,19.16-10.53,42.34-7.66,58,7.39,18,17.3,45,17.42,64-.57,17.78-16.86,44.58-18.56,64.08-2,10.84,9.21,22.14,16.32,37,15.67,11.1-.49,21.17-4.56,28.71-12.2,19.46-19.74,50.47-19.16,69.76-.12,14.23,14,36.62,16.16,53.9,5.73,7.41-4.48,12.75-11.51,20.86-15.18,13.1-5.93,26-7,39.47-1.56,7.25,2.93,12.79,8,18.82,12.69,16.28,12.75,36.08,15.26,54.9,2.11,1.22-.85,2.48-1.65,3.73-2.48,1-1.48,1.92-1.84,2.9,0l.18,1c-7.22,7.77-16.35,11.72-26.69,13-16.92,2-30.61-4.35-42.85-15.75-10.59-9.87-23.78-11.55-37.76-9.66C505.76,71.56,498,78.27,490.23,85c-17.4,15.19-46.31,14.43-63.7-2.44-9.84-9.54-21.52-14-35.29-13.13-10.17.61-19,4-26.58,10.88-6.66,6.1-13.82,11.6-22.82,13.72-14.68,3.46-28.49,2.14-41.16-7.21C293.67,81.68,288,74.63,279.1,72c-18.42-5.53-34.86-2.7-48.79,11-16.87,16.53-46.53,17-63.32,2.13-6.23-5.52-12.22-11.39-21-13.63C128.62,67,113.39,69.75,100.2,82c-13.36,12.44-29,16.32-46.58,12.3-8.41-1.93-15.47-6.72-21.74-12.63-8.59-8.09-18.66-12.5-30.62-12.16C1.27,68.19,1.27,66.84,1.28,65.48Z" class="cls-10"/><path d="M1.29,104.44c12.8.33,23.83,4.67,33.17,13.68C53,136,80.29,136,98.39,117.62c16.58-16.79,48.53-17.43,65.27-1.24,9.2,8.91,20,14.87,33.18,15,12.4.15,23.06-4.66,31.91-13.1,15.95-15.24,37.82-17.55,56.72-8.63,4.85,2.29,8.79,5.94,12.73,9.49,8.62,7.76,18.67,12.06,30.23,12.23,12.8.19,23.35-5.39,32.61-13.81,13.94-12.68,29.79-15.74,48-10.87,9.77,2.61,16.28,9.29,23.66,15,15.62,12.15,34.89,12.82,51.5,2.1,6.44-4.16,11.44-10,18.23-13.78,16.84-9.39,41.27-6.66,55.2,6.54,9.3,8.81,20,14.81,33.23,14.82,12.82,0,23.39-5.41,32.61-13.94a43.56,43.56,0,0,1,16.43-10l3,2c-7.58,3.21-14,8-20.14,13.48-17.68,15.83-47.34,15-63.4-.52-9.51-9.2-20.62-15-34.23-14.88-13,.11-23.61,5.75-32.86,14.47-10.74,10.14-23.64,13.18-38.07,12.11-13.95-1-23.59-9.6-33.74-17.7-15.4-12.28-39.14-11.66-53.91,1.14-8.32,7.21-16.73,14-28.14,15.91-16,2.63-30.26-.75-42.51-11.71-5-4.43-10.06-8.69-16.44-11-17.6-6.47-33.56-3.15-47.12,9.28-16.34,15-34.48,17.93-54.83,10.42-7.86-2.9-13.13-9.47-19.69-14.2-17.17-12.39-39.24-11.82-55,2.42-10.94,9.85-22.89,16.51-37.93,15.77-11.35-.56-21.66-3.72-30.33-11.92-9.18-8.68-19.79-15.11-33.17-14.89C1.31,106.55,1.3,105.5,1.29,104.44Z" class="cls-18"/><path d="M1.27,26.54A53.81,53.81,0,0,1,36.36,42.27c11.55,11.27,33.26,14.78,47.88,7.66,5.44-2.65,9.9-6.38,14.54-10.2,17.43-14.32,37.48-18,58.09-5.74a59.08,59.08,0,0,1,10.21,7.86,44.45,44.45,0,0,0,48.17,8.09c5.59-2.52,10.18-6.41,15-10.35,17-14,37-17.8,57.65-5.69,7.88,4.62,13.67,11.92,22.22,15.8,16,7.25,37.36,3.81,50-8.6,9.92-9.75,22-14.93,35.92-14.37,13.26.53,24.54,6.27,34.16,15.44,16.7,15.94,44.8,14.76,60.21-.39,9.72-9.56,21.52-14.89,35.22-15.09a41.6,41.6,0,0,1,18.35,3.86c2.91.52,3.21,2.6,3,5-6.91-2.87-13.86-5.33-21.58-5.07A48.41,48.41,0,0,0,493,43.92c-18.92,17.48-45.43,18.39-65,1.09-9.66-8.56-20.14-14.45-33.37-14.49-12.76,0-23.41,4.57-32.68,13.39-9.64,9.18-21.54,14-34.84,13.46-12.87-.49-24.12-5.73-33.43-14.72-16.06-15.5-42.62-16.34-59.52-1.69-9,7.81-18.37,14.36-30.83,15.9-15.36,1.89-28.45-2.78-39.19-13-19.08-18.18-46.95-17.1-65,.14-15.3,14.6-38,17.76-56.52,7-5.45-3.16-9.56-7.65-14.55-11.19C20,34.12,11.32,30.45,1.27,30.59Z" class="cls-88"/><path d="M166.13,1.58q28.17,0,56.34,0c1.91,0,4-.72,5.67,1A36.51,36.51,0,0,1,206,14c-14.39,2-27.84,0-38.74-10.83A10.44,10.44,0,0,1,166.13,1.58Z" class="cls-17"/><path d="M298.06,2.59c1.65-1.7,3.77-1,5.67-1q28.17-.07,56.33,0C353.87,9.26,345.38,13,336,14.27c-12.58,1.73-24.53-.55-34.94-8.4A23.71,23.71,0,0,1,298.06,2.59Z" class="cls-17"/><path d="M35.27,2.54c1.51-1.57,3.45-.93,5.2-.93q28.39-.06,56.79,0c-6.14,8.49-15.34,11.66-25,12.79C58.42,16,45.48,13.16,35.27,2.54Z" class="cls-89"/><path d="M429,2.55c1.15-1.35,2.73-1,4.17-1q26.79,0,53.59,0c1.44,0,3-.38,4.17,1C475.65,18.94,443.74,18.84,429,2.55Z" class="cls-17"/><path d="M546.91,35.55q-1.49-2.5-3-5c-1.37-5.65-3.61-11.1-4-17-1.16-1.51.22-3.5-1-5l0-3c1-2.89,2.64-4.08,6.09-4.07q74.31.24,148.63.06c2.64,0,4.93.07,6,3-1.55,23.82-11.73,43.4-30,58.5C657.43,73.15,642.81,78.53,627,80.48c-1.16.14-2.35,0-3.22,1a2.58,2.58,0,0,0-2.9,0c-4.62-2.38-9.7-.62-14.59-1.75-14-3.25-26.8-8.43-38.23-17.71A81.62,81.62,0,0,1,546.91,35.55Z" class="cls-2"/><path d="M1083.61,85.63c-8-.47-8-.47-8,7,0,6.65-3.34,8.87-10,6.9-2.34-.69-1.82-2.44-1.89-4-.41-9.67-.43-10.18-9.89-9.58-5.16.32-4.08-2.55-4.06-5.13,0-2.83-1.45-6.91,4.08-6.29.16,0,.33,0,.49,0,9.15-.17,9.46-.18,9.24-9.55-.12-5.27,3-4.41,6.12-4.45s6.72-.64,5.93,4.52a14.68,14.68,0,0,0,0,2c.08,8.43-.8,7.42,7.46,7.48,5.62,0,6.43,1.12,6.59,7.07C1089.77,87.25,1086.34,86.19,1083.61,85.63Z" class="cls-90"/><path d="M1033.59,80.55c.29,3.86-.71,6.07-5.92,5.2-6.86-1.15-8,.26-8,7.29,0,5.95-4.68,8.8-10.39,6.39a2.29,2.29,0,0,1-1.5-2.3c0-1.16,0-2.32,0-3.49,0-8.58-.52-9-9.13-7.54-2.72.47-5,.32-4.74-3,.22-3.07-2-7.46,3.34-8.5,3.35-.64,7.89,1.6,9.88-1.22,1.6-2.27.61-6.41.64-9.72,0-2,.7-3.15,2.88-3.1,2,.05,4,.05,6,0s3.2.67,3.08,2.86c0,.5,0,1,0,1.5.24,9.3.24,9.3,9.29,9.63C1033.31,74.69,1033.6,75,1033.59,80.55Z" class="cls-90"/><path d="M1040.52,141.5c-3.71.83-5.48-.87-4.87-5.09a5.57,5.57,0,0,0,0-1c-.11-9,1.13-7.75-8-8-2-.05-4.93,1.26-5.65-1.43a18.13,18.13,0,0,1,.06-8.35c.43-2,2.84-1.14,4.39-1.17,9.1-.19,9.25-.17,9.12-9.26,0-3.84.73-6,5.18-5.7,3.75.3,6.85.55,6.88,5.64.06,9.09.25,9.41,9.58,9.15,4.54-.12,4.31,2.59,4.24,5.23s.29,6-4.06,5.94c-.5,0-1,0-1.49,0-8.15.11-8.15.11-8.34,8.1C1047.46,141.15,1047,141.53,1040.52,141.5Z" class="cls-4"/><path d="M1027.6,29.54c8,0,8,0,8.05-7,0-6.45,4.41-9.35,10.37-6.89,2.17.89,1.5,2.72,1.55,4.26.28,9.17.25,9.36,9.36,9.51,4.48.07,4.54,2.75,4.69,5.92.15,3.34-.6,5.65-4.6,5.21-.17,0-.34,0-.5,0-8.69.2-9,.21-8.83,9,.1,5.63-3.35,4.87-6.88,5.06s-5.87-.64-5.17-4.87a12,12,0,0,0,0-2c-.09-7.86.92-7.27-7.22-7.16-4.11.06-7,.27-7-5.71C1021.41,28.64,1024.83,29.37,1027.6,29.54Z" class="cls-91"/><path d="M991.68,22.74c0,6.81,0,6.81,7.11,6.8,6.66,0,8.58,2.64,6.84,9.06-.64,2.38-2.37,1.91-3.94,2-9.67.44-9.87.43-9.92,9.9,0,3.94-1.91,4.42-4.94,4.11s-7.05,1.45-7.15-4.2c0-3.07,1.65-6.92-.46-9s-6-.79-9.14-.71c-4.24.1-4.39-2.42-4.34-5.52,0-3.35.61-5.67,4.92-5.68,9,0,9.42-.24,9-8.66-.3-5.42,2.49-5.26,6.33-5.36,4-.11,6.58.52,5.74,5.31A12,12,0,0,0,991.68,22.74Z" class="cls-4"/><path d="M1097.35,15.69c4.76-1.12,5.45,1.31,5.38,5.18-.15,8.6,0,8.82,8.68,8.58,4.2-.12,5.43,1.23,5.32,5.34-.09,3.87-.39,6.67-5.28,5.81a9.25,9.25,0,0,0-1.49,0c-7.28,0-7.28,0-7.29,7.44,0,3.42.91,6.79-4.91,6.77-5.22,0-6.92-1.61-6.17-6.52.2-1.3-.07-2.66.05-4,.24-2.81-1-4-3.77-3.73-1.49.12-3-.15-4.48,0-4.52.65-6-1-6-5.7s1.51-6,5.76-5.4c1.3.19,2.67-.11,4,.05,3.54.43,4.88-1.11,4.46-4.54-.14-1.15.09-2.33,0-3.48C1091.11,17.06,1092.2,14.21,1097.35,15.69Z" class="cls-4"/><path d="M207.19,509.29c1.35,25.36-21.53,46.42-46,46.13-25.51-.3-46.66-20.85-46.11-46.74.56-26.34,19.54-45.71,46.47-45.93C186.53,462.56,208.09,482.55,207.19,509.29Z" class="cls-4"/><path d="M539,8.57c1.59,1.42.79,3.31,1,5C538.33,12.15,539.15,10.26,539,8.57Z" class="cls-14"/></g></g></svg>