<svg xmlns="http://www.w3.org/2000/svg" width="4002.667" height="2666.667" preserveAspectRatio="xMidYMid meet" version="1.0" viewBox="0 0 3002 2000"><g fill="#000" stroke="none"><path d="M29955 13727 c-28 -29 -80 -77 -114 -107 -35 -30 -80 -71 -101 -90 -20 -19 -76 -71 -124 -115 -49 -44 -103 -93 -121 -110 -18 -16 -70 -64 -115 -105 -46 -41 -102 -93 -125 -115 -23 -22 -57 -53 -76 -69 -19 -15 -83 -74 -144 -131 -60 -56 -141 -130 -180 -165 -38 -35 -111 -102 -161 -149 -49 -47 -110 -103 -135 -123 -24 -20 -66 -57 -92 -82 -27 -25 -53 -46 -58 -46 -5 0 -9 -5 -9 -11 0 -6 -14 -22 -32 -37 -18 -15 -60 -52 -93 -83 -33 -31 -73 -68 -90 -82 -16 -13 -61 -54 -100 -91 -38 -36 -73 -66 -77 -66 -5 0 -8 -7 -8 -15 0 -8 -5 -15 -11 -15 -6 0 -43 -30 -81 -67 -39 -38 -76 -73 -83 -80 -16 -15 -114 -47 -260 -85 -22 -6 -51 -14 -65 -18 -14 -4 -54 -16 -90 -25 -36 -9 -76 -21 -90 -26 -14 -5 -74 -22 -135 -38 -60 -17 -141 -39 -180 -50 -38 -11 -112 -32 -164 -46 -52 -14 -102 -30 -112 -35 -10 -6 -29 -10 -43 -10 -15 0 -34 -4 -44 -10 -17 -9 -131 -44 -263 -80 -37 -10 -96 -30 -131 -44 -36 -14 -70 -26 -76 -26 -7 0 -12 -4 -12 -10 0 -5 -7 -10 -15 -10 -20 0 -244 -118 -350 -184 -28 -17 -58 -35 -67 -41 -77 -46 -316 -206 -363 -243 -5 -4 -25 -19 -44 -32 -36 -26 -65 -48 -85 -65 -28 -24 -55 -33 -92 -30 -81 5 -400 36 -429 40 -16 3 -106 12 -200 20 -93 8 -240 22 -325 30 -85 8 -227 22 -315 30 -88 8 -200 19 -250 25 -49 5 -148 15 -220 21 -174 14 -193 19 -540 139 -126 44 -294 100 -360 120 -33 10 -442 147 -910 303 -659 220 -877 288 -970 306 -66 12 -149 28 -185 36 -36 8 -128 26 -205 40 -77 14 -169 31 -205 39 -36 8 -103 21 -150 30 -84 15 -323 61 -450 86 -36 7 -85 16 -110 20 -25 5 -79 15 -120 24 -41 9 -100 21 -130 26 -56 10 -182 58 -188 72 -2 5 -11 8 -20 8 -8 0 -35 9 -59 20 -94 44 -132 61 -235 104 -59 25 -155 68 -213 96 -59 27 -111 50 -115 50 -4 0 -39 15 -76 34 -68 34 -185 88 -234 108 -14 6 -36 16 -50 24 -14 7 -49 22 -78 33 -28 11 -84 36 -124 54 -40 19 -89 40 -108 47 -19 6 -53 20 -75 30 -22 10 -56 23 -75 30 -19 7 -44 16 -55 20 -11 5 -63 25 -115 45 -52 21 -108 43 -125 51 -39 17 -114 44 -142 51 -13 3 -23 9 -23 13 0 4 -10 10 -22 13 -13 3 -48 15 -78 27 -30 12 -91 35 -135 52 -44 16 -93 35 -110 42 -16 7 -50 21 -75 31 -25 9 -60 23 -78 31 -18 8 -39 14 -47 14 -8 0 -15 5 -15 10 0 6 -5 10 -12 10 -6 0 -48 14 -92 32 -277 108 -227 96 -476 108 -447 20 -638 30 -780 40 -80 5 -237 14 -350 20 -173 8 -209 7 -234 -5 -16 -8 -35 -15 -43 -15 -7 0 -13 -4 -13 -10 0 -5 -8 -10 -18 -10 -10 0 -22 -4 -27 -8 -13 -11 -168 -72 -183 -72 -7 0 -12 -4 -12 -10 0 -5 -6 -10 -14 -10 -8 0 -40 -13 -71 -30 -31 -16 -62 -30 -68 -30 -5 0 -39 -13 -74 -30 -34 -16 -70 -30 -78 -30 -8 0 -15 -4 -15 -9 0 -5 -10 -11 -22 -14 -23 -5 -165 -62 -243 -97 -112 -50 -187 -80 -200 -80 -8 0 -15 -4 -15 -10 0 -5 -5 -10 -10 -10 -10 0 -87 -32 -122 -51 -10 -5 -25 -9 -33 -9 -9 0 -26 -7 -39 -15 -26 -17 -125 -45 -159 -45 -13 0 -27 -4 -32 -9 -6 -5 -28 -11 -50 -14 -22 -2 -110 -19 -195 -37 -85 -18 -175 -36 -200 -40 -25 -5 -76 -16 -115 -25 -38 -9 -101 -22 -140 -30 -130 -25 -509 -104 -580 -120 -38 -9 -92 -21 -120 -25 -27 -5 -138 -28 -245 -50 -107 -23 -215 -46 -240 -50 -25 -5 -65 -14 -90 -19 -25 -6 -60 -14 -77 -17 -18 -4 -33 -10 -33 -13 0 -4 -21 -13 -46 -20 -43 -13 -108 -40 -146 -61 -10 -6 -25 -10 -33 -10 -8 0 -15 -4 -15 -10 0 -5 -6 -10 -14 -10 -12 0 -81 -25 -151 -55 -16 -8 -68 -29 -115 -48 -47 -19 -98 -40 -115 -47 -16 -7 -39 -16 -50 -21 -11 -4 -54 -22 -95 -38 -41 -17 -80 -31 -87 -31 -7 0 -13 -4 -13 -10 0 -5 -7 -10 -15 -10 -8 0 -23 -4 -33 -9 -9 -5 -44 -19 -77 -32 -33 -12 -64 -26 -70 -31 -5 -4 -15 -8 -23 -8 -8 0 -30 -7 -50 -16 -21 -9 -46 -20 -57 -24 -32 -14 -106 -46 -159 -69 -27 -11 -52 -21 -57 -21 -4 0 -40 -15 -81 -34 -40 -18 -84 -37 -98 -41 -14 -4 -45 -16 -70 -27 -78 -35 -103 -45 -171 -71 -63 -24 -68 -25 -125 -12 -32 8 -113 26 -179 41 -191 43 -677 163 -710 176 -16 6 -48 19 -70 29 -88 38 -351 129 -530 184 -66 20 -131 41 -145 46 -39 14 -295 79 -374 95 -289 59 -588 91 -732 80 -110 -9 -382 -84 -506 -140 -18 -8 -82 -36 -143 -62 -60 -27 -196 -92 -302 -146 -157 -80 -200 -98 -236 -98 -39 0 -96 7 -302 40 -33 5 -150 23 -260 39 -110 17 -240 37 -290 45 -141 23 -470 73 -695 106 -113 16 -241 37 -285 45 -44 8 -100 17 -125 20 -24 3 -301 1 -615 -6 -601 -13 -953 -5 -1135 26 -47 7 -116 19 -155 25 -38 7 -78 16 -87 21 -10 5 -28 9 -40 9 -13 0 -99 16 -193 36 -93 20 -188 39 -210 43 -59 12 -274 59 -395 87 -154 36 -147 36 -154 18 -3 -9 -6 -884 -6 -1946 l1 -1929 27 1 c15 1 36 1 47 0 l20 -1 -20 -9 c-13 -6 -15 -9 -5 -9 13 -1 13 -2 0 -11 -11 -7 -18 -5 -26 5 -7 9 -18 13 -29 9 -13 -5 -14 -9 -3 -15 10 -7 9 -9 -4 -9 -17 0 -18 -206 -18 -4175 l0 -4175 14995 0 14995 0 0 6890 c0 3790 -3 6890 -7 6889 -5 0 -31 -24 -58 -52z m-28100 -5267 c3 -5 1 -10 -4 -10 -6 0 -11 5 -11 10 0 6 2 10 4 10 3 0 8 -4 11 -10z m-1321 -72 c-3 -4 4 -11 13 -17 26 -15 10 -13 -43 5 -26 9 -60 13 -76 10 -15 -3 -28 -1 -28 4 0 6 28 9 69 8 38 -2 67 -6 65 -10z m1151 2 c-3 -5 -14 -10 -23 -9 -14 0 -13 2 3 9 27 11 27 11 20 0z m-1365 -15 c0 -11 -11 -15 -40 -15 -22 0 -40 4 -40 9 0 6 -19 12 -42 14 -24 2 -6 4 40 5 67 2 82 -1 82 -13z m190 -21 c0 -2 -24 -3 -52 -3 -48 2 -49 2 -18 8 33 6 70 3 70 -5z m1035 -4 c-3 -5 -10 -10 -16 -10 -5 0 -9 5 -9 10 0 6 7 10 16 10 8 0 12 -4 9 -10z m9055 -27 c0 -2 -8 -15 -17 -27 -17 -22 -19 -22 -43 -7 -14 8 -27 19 -30 23 -3 4 -30 9 -60 11 -30 2 -9 4 48 4 56 0 102 -2 102 -4z m-9936 -24 c40 -31 24 -35 -21 -5 -21 15 -31 26 -22 26 9 0 28 -10 43 -21z m56 -41 c0 -18 -2 -20 -9 -8 -6 8 -7 18 -5 22 9 14 14 9 14 -14z m637 16 c-3 -3 -12 -4 -19 -1 -8 3 -5 6 6 6 11 1 17 -2 13 -5z m-60 -30 c-3 -4 -23 -10 -44 -14 -21 -5 -49 -11 -63 -15 l-25 -6 25 12 c14 6 41 15 60 19 48 10 54 11 47 4z m-533 -19 c-4 -8 -10 -12 -15 -9 -14 8 -10 24 6 24 9 0 12 -6 9 -15z m32 -53 c-4 -3 -14 2 -23 11 -16 16 -16 17 0 17 9 0 18 6 18 13 1 6 4 1 6 -11 3 -13 2 -26 -1 -30z m45 -26 c-9 -11 -9 -16 -1 -21 7 -4 18 2 26 14 11 16 25 21 52 19 l37 -1 -37 -4 c-26 -3 -38 -9 -38 -20 0 -16 12 -16 90 2 14 3 18 2 10 -1 -8 -4 -17 -10 -20 -14 -9 -13 -80 -22 -80 -10 0 5 -5 10 -11 10 -6 0 -8 -9 -4 -20 4 -11 2 -20 -4 -20 -6 0 -11 4 -11 9 0 5 -13 23 -29 40 l-29 31 30 0 c25 0 28 -2 19 -14z m10529 -186 c12 -8 12 -10 -5 -10 -11 0 -27 5 -35 10 -12 8 -12 10 5 10 11 0 27 -5 35 -10z m80 -30 c8 -5 11 -10 5 -10 -5 0 -17 5 -25 10 -8 5 -10 10 -5 10 6 0 17 -5 25 -10z m177 -56 c18 -7 54 -16 80 -20 26 -3 59 -12 73 -20 14 -7 38 -15 54 -19 22 -5 26 -9 17 -18 -16 -16 -14 -25 7 -30 15 -4 15 -5 0 -6 -9 0 -20 4 -23 9 -3 6 -16 11 -28 11 -17 1 -15 3 8 9 l30 7 -40 8 c-27 5 -40 4 -43 -4 -2 -6 -9 -11 -15 -11 -8 0 -7 4 1 12 24 24 13 38 -31 38 -23 0 -67 9 -97 20 -30 11 -65 20 -77 20 -13 0 -23 5 -23 10 0 13 59 4 107 -16z m80 -60 c-3 -3 -12 -4 -19 -1 -8 3 -5 6 6 6 11 1 17 -2 13 -5z m240 -36 c27 -7 50 -15 53 -19 3 -3 39 -14 80 -24 41 -10 86 -23 100 -30 14 -7 51 -19 83 -26 32 -7 61 -17 64 -22 4 -6 -5 -7 -23 -3 -16 4 -56 13 -89 21 -33 8 -100 26 -150 41 -49 14 -107 29 -129 31 -27 4 -34 8 -25 14 11 7 11 9 -3 9 -9 0 -20 5 -23 10 -8 13 5 13 62 -2z m9730 -1864 c-3 -3 -12 -4 -19 -1 -8 3 -5 6 6 6 11 1 17 -2 13 -5z m490 -80 c-3 -3 -12 -4 -19 -1 -8 3 -5 6 6 6 11 1 17 -2 13 -5z m266 -11 c-7 -2 -19 -2 -25 0 -7 3 -2 5 12 5 14 0 19 -2 13 -5z m707 3 c0 -3 -4 -8 -10 -11 -5 -3 -10 -1 -10 4 0 6 5 11 10 11 6 0 10 -2 10 -4z m-823 -12 c-3 -3 -12 -4 -19 -1 -8 3 -5 6 6 6 11 1 17 -2 13 -5z m80 -10 c-3 -3 -12 -4 -19 -1 -8 3 -5 6 6 6 11 1 17 -2 13 -5z m240 -20 c-3 -3 -12 -4 -19 -1 -8 3 -5 6 6 6 11 1 17 -2 13 -5z m270 0 c-3 -3 -12 -4 -19 -1 -8 3 -5 6 6 6 11 1 17 -2 13 -5z" transform="translate(0.000000,2000.000000) scale(0.100000,-0.100000)"/></g></svg>