<svg xmlns="http://www.w3.org/2000/svg" viewBox="0 0 1441 950"><defs><style>.cls-1{fill:#f2fefd;}.cls-2{fill:#fefefe;}.cls-3{fill:#92bbb5;}.cls-4{fill:#ee7f62;}.cls-5{fill:#feb17d;}.cls-6{fill:#91a4e6;}.cls-7{fill:#321833;}.cls-8{fill:#376f8f;}.cls-9{fill:#ec9b6d;}.cls-10{fill:#feb17e;}.cls-11{fill:#bc7e58;}.cls-12{fill:#ee8062;}.cls-13{fill:#5b305d;}.cls-14{fill:#341933;}.cls-15{fill:#341a34;}.cls-16{fill:#60345e;}.cls-17{fill:#5e335e;}.cls-18{fill:#7c5281;}.cls-19{fill:#7c4c79;}.cls-20{fill:#412941;}.cls-21{fill:#4b364d;}.cls-22{fill:#645366;}.cls-23{fill:#948d99;}.cls-24{fill:#73b2cd;}.cls-25{fill:#daeae7;}.cls-26{fill:#764678;}.cls-27{fill:#030202;}.cls-28{fill:#d9e9e7;}.cls-29{fill:#bc7f58;}.cls-30{fill:#ef9e70;}.cls-31{fill:#080436;}.cls-32{fill:#351a33;}.cls-33{fill:#815178;}.cls-34{fill:#a17794;}.cls-35{fill:#915574;}.cls-36{fill:#ec895f;}.cls-37{fill:#613264;}.cls-38{fill:#b3a7c1;}.cls-39{fill:#b5a7bf;}.cls-40{fill:#a0a5d5;}.cls-41{fill:#735f72;}.cls-42{fill:#ec8161;}.cls-43{fill:#a1748b;}.cls-44{fill:#81527c;}.cls-45{fill:#9c6477;}.cls-46{fill:#9a6881;}.cls-47{fill:#4a89ac;}.cls-48{fill:#847b89;}.cls-49{fill:#6c5e6f;}.cls-50{fill:#fdb17d;}.cls-51{fill:#ec9b6c;}.cls-52{fill:#ec8162;}.cls-53{fill:#794876;}.cls-54{fill:#a5829e;}.cls-55{fill:#794872;}.cls-56{fill:#efa677;}.cls-57{fill:#f6ab79;}.cls-58{fill:#9b667c;}.cls-59{fill:#9a8e9a;}.cls-60{fill:#8a7c8a;}.cls-61{fill:#b5acb5;}.cls-62{fill:#b7aeb6;}.cls-63{fill:#aea4ae;}.cls-64{fill:#fefdfd;}.cls-65{fill:#170f39;}.cls-66{fill:#19103a;}.cls-67{fill:#281a3d;}.cls-68{fill:#1e133b;}.cls-69{fill:#0f0937;}.cls-70{fill:#1f143b;}.cls-71{fill:#180f3a;}.cls-72{fill:#150d38;}.cls-73{fill:#784875;}.cls-74{fill:#fdfdfc;}.cls-75{fill:#784b7b;}.cls-76{fill:#a1809c;}.cls-77{fill:#613263;}.cls-78{fill:#d0aaa5;}.cls-79{fill:#c7a9ad;}.cls-80{fill:#b2bfeb;}.cls-81{fill:#e2edec;}.cls-82{fill:#f3a58f;}.cls-83{fill:#f4bc9b;}.cls-84{fill:#020303;}.cls-85{fill:#aad0da;}.cls-86{fill:#764677;}.cls-87{fill:#995f3a;}.cls-88{fill:#4c89aa;}.cls-89{fill:#9b613b;}.cls-90{fill:#371b33;}.cls-91{fill:#9c623c;}.cls-92{fill:#7a4d44;}.cls-93{fill:#96614c;}.cls-94{fill:#ec8b60;}.cls-95{fill:#ed8b60;}.cls-96{fill:#3b1e36;}.cls-97{fill:#9a6657;}.cls-98{fill:#eb875d;}.cls-99{fill:#3e2035;}.cls-100{fill:#eb885e;}.cls-101{fill:#724748;}.cls-102{fill:#d4926d;}.cls-103{fill:#d1a58a;}.cls-104{fill:#98a3db;}.cls-105{fill:#ea865d;}.cls-106{fill:#ea865c;}.cls-107{fill:#929cd3;}.cls-108{fill:#97a1d6;}.cls-109{fill:#41233b;}.cls-110{fill:#cf9f94;}.cls-111{fill:#c99f9b;}.cls-112{fill:#aca1c0;}.cls-113{fill:#f7b688;}.cls-114{fill:#bed1d0;}.cls-115{fill:#f3b286;}.cls-116{fill:#c5dad8;}.cls-117{fill:#e8643f;}.cls-118{fill:#7e4d77;}.cls-119{fill:#fcf6f3;}.cls-120{fill:#88587d;}.cls-121{fill:#996378;}.cls-122{fill:#a37991;}.cls-123{fill:#f8d7c8;}.cls-124{fill:#fec8a2;}.cls-125{fill:#f0b898;}.cls-126{fill:#3e223d;}.cls-127{fill:#351a34;}.cls-128{fill:#f3eff1;}.cls-129{fill:#b0bdea;}.cls-130{fill:#595372;}.cls-131{fill:#695f75;}.cls-132{fill:#5e5774;}.cls-133{fill:#160f3a;}.cls-134{fill:#705c6d;}.cls-135{fill:#5d5674;}.cls-136{fill:#1f163e;}.cls-137{fill:#575272;}.cls-138{fill:#5c5572;}</style></defs><g id="Layer_2" data-name="Layer 2"><g id="Layer_1-2" data-name="Layer 1"><path class="cls-1" d="M.12,948.75Q.12,476.78,0,4.8C0,.64,1,0,4.92,0q717.48.17,1435,.1c.92,1.73.47,3.6.47,5.4q0,468.74,0,937.46c0,6.26,0,6.27-6,6.27H1311.87c-.77-.07-1.39-.62-1-1.25,2.8-5.21.66-10.45.08-15.63-1.49-13.53-4.3-26.91-4.5-40.58,1.26-20.59,1.35-41.23,2.15-61.84,1.59-41.29.71-82.57.64-123.85,0-25.76-1.36-51.53-2.57-77.29-1.25-26.43-3.8-52.75-5.41-79.15-1.41-23.13-5.61-45.9-9.65-68.7-3.08-17.46-6.43-34.83-13.94-50.9-6.16-13.17-10.52-27.47-21.18-38.19a86.27,86.27,0,0,0-29.4-19.31A346.81,346.81,0,0,0,1188.18,360c-1.62-1.51-1.53-3.61-1.86-5.54-1.92-11.2-4.63-22.11-10.58-32a42.07,42.07,0,0,0-6.85-9.15,25.9,25.9,0,0,1-6.27-8.9c-.38-2,.81-3.38,1.79-4.86,9-6,13.66-15.18,18.42-24.33.83-1.6,1.28-3.49,3.27-4.19,6.08-1,12.29,0,18.36-1.61a75.42,75.42,0,0,0,11.69-4.33c1.35-.61,2.92-1.29,2.93-3.06s-1.67-2.27-3-3c-1.64-.89-4.79-.76-4.28-3.28.59-2.92,3.78-2.13,6-2.12a40,40,0,0,0,21.5-5.47c1.42-.85,3.17-1.67,3-3.61s-2-2.58-3.46-3.21c-6.83-2.84-14.06-4.06-21.32-5.12-2.71-.4-5.56-.52-7.85-2.59,2-2.52,4.47-1.82,6.7-2.06,7.42-.79,15-.75,21.75-4.76a20.37,20.37,0,0,0,3.73-2.49c3.31-3.1,2.83-6.07-1.48-7.44-5.9-1.87-12.08-2.36-18.24-2.53-6-.17-12,.07-18-.12-1.56-.05-3.88.22-4-1.91-.1-1.55,2-2,3.39-2.45,8.56-2.72,17.39-4.73,24.87-10.1,2.24-1.61,6-2.79,5.16-6-1-3.85-5-2.53-7.78-2.36-9.17.6-18.07,2.84-26.86,5.47-2.07.62-4.11,1.41-6.34,1.15-1-.12-2.09-.26-2.5-1.32s.5-1.92,1.27-2.44c4.11-2.85,7.67-6.46,11.91-9.07,5.08-3.15,8.68-7.72,12.7-11.91,1.77-1.85,3.23-4.15,1.81-6.75s-4.25-2.32-6.72-2c-7.51,1-13.46,5.59-19.91,9-3.68,1.93-7.4,3.81-11,6-1,.59-2.28,1.21-3.22.2-1.17-1.25-.16-2.48.64-3.54a18.62,18.62,0,0,1,3.35-3,21.66,21.66,0,0,0,6.3-8.27c1.12-2.58,2.7-5.39.22-7.91s-6-2-8.85-.56a59.5,59.5,0,0,0-12.83,8.6c-5.31,4.6-9.6,10.13-14.27,15.33-1.93,2.14-4.08,6.29-6.79,4.56s.77-5,1.94-7.22c3.38-6.53,7-12.9,6.89-20.59-.08-5.61-1.64-7.19-7.25-6.7a17.31,17.31,0,0,0-13.62,8.15,115.58,115.58,0,0,0-9.73,18.53,18.6,18.6,0,0,1-1.49,3.16c-.54.81-1.1,1.83-2.26,1.55-.87-.21-1.1-1.17-1.33-2-.31-1.13-.36-2.31-.64-3.44-.41-1.64-.86-3.4-2.74-3.86-2.06-.49-3.47.85-4.63,2.33a26.56,26.56,0,0,0-3.63,7.09,105.79,105.79,0,0,0-5.84,25.24,81.2,81.2,0,0,1-1.34,8.38,5.46,5.46,0,0,1-2,3.32c-5.77,3.72-8,9.91-11,15.55-1.46,2.26-3.81,3.58-5.73,5.35-3.27,3-5.52,6.47-6.13,10.91-1.33,3-.88,6.75-4.07,8.86-9.36-1.83-14.42-8.39-17.55-16.63-2.25-5.92-3-12.27-3.71-18.56a4.87,4.87,0,0,1,2.69-4.44c6.73-3.2,10.41-9.42,14.92-14.82.95-1.14,1.72-2.42,3.17-3,12.73-3.27,22.17-10.93,29-21.93,2.11-3.39,4.7-6.45,6.61-10,4.68-10.77,7.65-21.55,2.94-33.29-3.38-8.43-9.64-14.09-17.13-18a80,80,0,0,0-31.49-8.85c-7.75-.59-14.46-4.74-20.48-9.65a28,28,0,0,0-16.55-6.11c-5.43-.34-9.2,2-12.18,6.26-4.45,6.4-5.89,6.83-13.3,3.89-4.3-1.7-8.48-2.87-13-.66-8.32,4.09-10,13.81-3.87,22.71,3.33,4.79,6.64,9.61,12.25,12.12a4.23,4.23,0,0,1,2.56,2.89c0,5.32-1,10.6-.59,15.93-.21,8.28-2.58,16.33-2.11,24.74.76,13.47,4.94,25.36,14.77,34.81,4.24,4.08,9.86,6.05,15.33,8,2.45.89,4.73,1.73,4.91,4.83a38.63,38.63,0,0,1,.06,4.93c-.15,7.46-1.11,14.46-7.4,19.82a19.25,19.25,0,0,1-9.83,4.26c-19,.9-37.44,5.62-55.89,9.94a97.65,97.65,0,0,0-12.76,4.31c-18.48,7.1-36.61,14.9-53,26.31-4.35,3-8.92,5.69-13.09,9-3.91,3.12-7.31,6.28-7,11.78-2.5,3.45-6.65,4.25-10,6.31-14.89,9.07-31.06,15.33-47.5,20.69-11.68,3.81-24,5.48-36.21,7.08-16.77,2.2-33.12,0-49.44-3.91a77.3,77.3,0,0,1-25.05-10.8c-1.55-2.11.13-3.27,1.32-4.65q16.29-18.9,31.34-38.81c10.12-13.4,20.1-26.94,29.29-41s18.34-27.7,26.74-42.07c5.45-9.32,10.92-18.65,16.53-27.9,5.86-9.66,11.32-19.56,16.58-29.57,4.64-8.83,9.3-17.69,14.3-26.28,5.31-9.11,9.36-18.75,14-28.15,5.07-10.3,9.3-21,14.87-31.06,2-3.55,2.71-7.5,4.46-11.11s.71-6.9-2.19-8.07-6.31.37-7.53,4c-2.32,6.84-6.08,13-9.22,19.38-1.15,2.35-2,6.37-5.69,4.69-3.47-1.57-1.62-5.07-.55-7.52a157,157,0,0,1,7.91-16.11,38.68,38.68,0,0,0,4.58-11c.7-3.2.16-6.23-3.41-7.31-3.33-1-5.34,1-6.53,3.93C843.3,50,838.07,58.16,834.64,67.2c-.86,2.27-2.44,4.41-5.27,3.27s-2.32-3.9-1.25-6c4.77-9.34,8.31-19.25,13.46-28.41a22.3,22.3,0,0,0,2.24-5c.81-3,.63-5.78-2.74-7.06-3.14-1.19-5.52,0-7,3-3.74,7.24-7.73,14.37-10.79,22-1.81,4.49-4.09,8.75-6.33,13-1.07,2-2.64,3.82-5.14,2.66s-1.95-3.68-1-5.64c2.2-4.66,3.82-9.59,6.63-14a27.07,27.07,0,0,0,4.39-11.07c.36-2.8,0-5.53-3.31-6.4-3.08-.83-4.87.8-6.31,3.51-5.69,10.74-10.69,21.8-15.7,32.86a92.55,92.55,0,0,1-5.3,9.61c-.67,1.1-1.26,2.68-2.83,2.44s-1.72-1.86-2.25-3c-.27-.61-.44-1.26-.68-1.88-2.14-5.4-5.6-7.27-10.43-5.64-5.29,1.78-7,5.07-5.57,10.9,2.46,10,5,20,7.8,30,1.27,4.56.52,8.2-2.18,12.14-8.92,13-15.93,27.26-24.84,40.31-9.37,13.73-18.22,27.81-27.78,41.43q-12.61,18-25.68,35.57c-5.54,7.47-11.66,14.53-17.34,21.88-8.44,10.94-17.9,21-26.65,31.63-1.89,2.31-3.72,4.71-6.48,6.12-5.88-1.39-9.62,3.57-14.58,4.95-1.7.48-3.14,1.9-5.12,1.39-1.71-.58-2.51-2.07-3.48-3.42-4.21-5.87-9.21-7.63-16.05-5-11,4.14-21.89,8.38-32.5,13.37-4.6,2.16-6.14,5.2-5.56,10.49.23,2.15.69,4.3-.73,6.25-3,2.13-6.53,2.12-9.88,2.9-6.38,1.07-10.69-1.61-13.63-7.2-1.6-3.05-3.25-6.07-4.72-9.19a5.69,5.69,0,0,1-.53-3.78c3.93-5.21,10.1-7.44,15.15-11.14,17.18-12.57,34.27-25.23,51-38.42,19.47-15.35,38.26-31.46,57-47.64,11.45-9.88,21.94-20.84,34.09-30,4.23-3.17,8.78-5.84,12.86-9.37,9.26-8,15.15-18.36,21.92-28.23,6.21-9.06,11.2-18.93,18.23-27.43a11.07,11.07,0,0,0,2.67-4.75c.51-2.56.5-5.09-2.1-6.62s-5.15-.85-7.16,1.39a87.65,87.65,0,0,0-11.11,16,32.8,32.8,0,0,1-3.79,5.86c-1.55,1.71-3.39,3-5.63,1.32s-1.36-3.8-.08-5.34c4.81-5.8,7.58-12.9,12.19-18.82,1.94-2.5,4-5,5.14-8s1.76-6.4-1.67-8.45-5.68.21-7.91,2.84c-6.07,7.18-10,15.75-15.47,23.28-1.56,2.14-3,5.92-6.34,4.13-3.9-2.09-1.18-5.49.3-7.74,6-9.19,11.92-18.43,17.94-27.62.45-.69,1.07-1.28,1.51-2,1.78-2.82,2.26-5.67-.56-8.06-2.34-2-6.35-1.48-8.5,1.29a105.3,105.3,0,0,0-9.29,13.6c-3.85,7-9.37,12.93-13,20.11-1.24,2.47-3.51,3.11-5.91,1.59-2.87-1.82-1-3.76.19-5.48,4.74-7,8.84-14.5,13.71-21.47,2.47-3.55,2.19-7.22-.29-9-2.79-1.95-6.5-1-9,2.59q-10.92,15.81-21,32.18a84.64,84.64,0,0,1-5.26,7.9c-1,1.3-2.2,2.88-4,2.39-1.57-.42-1.82-2.23-2.21-3.67-.27-1-.29-2-.48-3-.93-4.89-2.82-6.29-8-6s-8,2.4-8.12,6.91a84.46,84.46,0,0,0,1.41,15.38c.72,4.55-.2,7.81-3.88,10.94-18.09,15.44-36.2,30.85-54.9,45.54-10.2,8-20.52,15.86-30.79,23.78-1,.81-2.07,1.74-3.58,1.25-3.18-5-4.17-10.75-6.19-16.14-3.42-9.09-9.35-16-17.23-21.41-8.4-5.78-17.91-6.49-27.36-4.75-15.18,2.8-29.44,8.23-41.75,18-7.51,5.93-12.75,12.75-9.87,23.11.74,2.65-.73,4.24-2.71,5.86C438,222.42,433.28,237.26,437.82,251A57.11,57.11,0,0,0,447,268.09c1.41,1.81,3.26,3.38,3.77,5.8a3.5,3.5,0,0,1-2.1,3.58c-5.51,2.89-11.08,5.67-16.51,8.71a3.67,3.67,0,0,1-3.76,0c-3.66-5.65-8.62-4.58-14.1-3.23-33.78,8.36-68.13,13.43-102.68,17.32a13.06,13.06,0,0,1-2.5,0c-6.64-2.29-10.52-7.94-10.48-15.14,0-2.51.69-4.92.94-7.39a35.41,35.41,0,0,1,1.8-12.38c1.74-2.12,4.2-1.61,6.47-1.7,15.59-.66,27.09-7.91,34.6-21.52,4.45-8.06,7.95-16.45,8.37-25.83a7.86,7.86,0,0,1,1.25-3.75,52.78,52.78,0,0,0,11.22-29.43c1.4-18.41-5.95-32.89-24.67-40.11A85.12,85.12,0,0,0,293,138.4c-7.94,1.37-14.73,4.29-16.81,13.27-.73,3.13-3.65,3.48-6.26,4.12-9.81,2.43-17.72,7.47-22.58,16.61-7.17,13.5-7.16,27.21-.08,40.56a40.36,40.36,0,0,0,21.52,19.19,6.17,6.17,0,0,1,2.58,3,54.51,54.51,0,0,0,12.09,18.17,5.15,5.15,0,0,1,1.42,2.61,5.52,5.52,0,0,1,0,2.29c-2.45,7.08-6.44,13.5-8.94,20.56-.5,1.4-1.32,2.75-3.2,2.66-2.81-1.57-3.2-4.55-4-7.19a79.09,79.09,0,0,1-3.14-23.67c.12-6.91-4.53-12.77-11.06-15-3.72-1.27-6.56-.38-8.51,3a67,67,0,0,0-4.71,8.8c-4.85,12.39-14.28,18.36-27.26,19a68.17,68.17,0,0,1-15.94-.68c-2.78-.53-5.63-.17-8.47,0-9.61.55-15.85,4.33-18.61,14.57-3.81,14.14-12.59,17.14-25.87,16.47q-17.49-.87-35-.09c-8.92.39-17.31,3.59-25,7.95a35.05,35.05,0,0,0-12.44,12.74c-8.1,13.84-13.36,28.84-10.67,45.28,2.6,15.84,11.36,28,24.66,36.62a107.33,107.33,0,0,0,51,17.34c4.15.33,8.26,1,12.39,1.53,7.41,1.39,7.94,2.17,7.07,9.5-2.27,19.17-3.9,38.38-4.6,57.69-.79,22.11-2.46,44.23-1.69,66.33.9,25.43.83,50.88,2.56,76.29,1.22,17.92,2.17,35.86,3.47,53.76,1.58,3.43,5.24,4.19,7.95,6.17,1.27,1.44,1.09,3.08.62,4.72-4.75,16.33-7.4,33.14-11.29,49.68-5.45,23.16-10.43,46.44-15.66,69.66-6.69,29.72-13.18,59.5-20.14,89.17-3,12.8-5.15,25.8-8.48,38.53-.65,2.52-.34,4.47,2.11,6,1.11.69,4,1.61.95,3.67q-53.73,0-107.45,0C3.72,949.21,1.85,949.67.12,948.75Z"/><path class="cls-2" d="M.12,948.75l114.3-.16c1.93-1.73,4.33-1.51,6.63-1.51,48.5,0,97-.1,145.51,0a38.46,38.46,0,0,0,4.92.15c8-.43,16-.17,24-.18q52.43-.06,104.85,0a50,50,0,0,1,6.48.18c6.49-.22,13-.24,19.46,0,10.48-.42,21-.16,31.46-.17q47.46-.06,94.92,0a39.94,39.94,0,0,1,6,.18,90.6,90.6,0,0,1,9.75,0c19.78-.42,39.56-.17,59.33-.16,23.1,0,46.2-.26,69.3.15a83,83,0,0,1,8.49-.18h172.9a58.61,58.61,0,0,1,6.49.18c23.38-.3,46.76-.25,70.14,0,4.66-.17,9.32-.15,14-.15q165.87,0,331.75,0c3.4,0,7-.91,10.08,1.63,41,0,82-.09,122.94.17,5.28,0,6.24-1.6,6.23-6.48q-.17-409.44-.1-818.89V.1c.31.22,1-.5,1,.5,0,1.33,0,2.67,0,4q0,470.22.12,940.45c0,4.16-1,4.8-4.92,4.8q-715.72-.17-1431.46-.17C3.15,949.68,1.23,950.84.12,948.75Z"/><path class="cls-3" d="M1188.05,358.94a217.63,217.63,0,0,1,29.17,8.15c13.27,4.61,26,10.36,36.43,19.82,6.5,5.87,12.28,12.53,15.43,21.08,3.72,10.13,9.67,19.23,13.32,29.48,4.93,13.86,7.89,28.07,10.52,42.46,3.37,18.45,6.78,36.9,8.74,55.54,1.35,12.88,2,25.84,2.94,38.76,2.06,28.83,3.94,57.68,5,86.56,2,52.92,1.51,105.88,1,158.82-.19,20.94-1.2,41.88-1.92,62.82-.1,3.13-.62,6.25-1,9.38-2.09-3-4.76-1.94-7.65-1.44-22.45,3.92-45,7.2-67.64,10s-45.06,3.48-67.67,4.21c-16,.51-31.93,1-47.89.73-42.26-.7-84.45-2.62-126.1-10.74-9.63-1.87-19.55-2-29.05-4.65a43.84,43.84,0,0,0-11.8-1.81c-3.75-.18-5.29-1.81-5.08-5.67,1.33-23.73,1.63-47.51,2.66-71.24,1.06-24.22,2.18-48.46,3.51-72.67.88-16.09,1.53-32.2,2.4-48.29.82-15.26,1.34-30.55,3-45.75a25,25,0,0,1,.85-8.08,100.59,100.59,0,0,1,1.78-19.82c3.65-3.45,8.47-2.7,12.71-2.86,17.76-.65,34.81-4.35,51.83-9.4,13.48-4,26.34-9.35,39-15.06a197.42,197.42,0,0,0,31.08-17.9,286,286,0,0,0,32.31-25.74,189.71,189.71,0,0,0,16.35-17.43c1.27-1.52,2.17-3.39,4.26-4,5.06,0,9.57,2.59,14.57,3,3.66.31,7.31.69,10.94.1,5.14-.83,7.33-4.24,6.3-9.36s-3.92-9.53-7.46-13.33c-10.72-11.51-23.11-20.86-36.54-29.06-12.13-7.41-25.07-12.93-38.1-18.4-9-3.78-18.4-4.27-27.92-3.71-5.26.31-7.36,3.82-6.12,9.07,1,4.45,3.7,8.14,5.38,12.28-.8,4.85-3.92,8.55-7.24,11.53-6.27,5.64-12.2,11.61-18.89,16.87a174.21,174.21,0,0,1-67.27,33.16c-2.05.5-4.22,1.45-5.91-.84a241.2,241.2,0,0,1,3.27-24.24c4.69-17.64,8.33-35.57,14.77-52.72,4.85-12.9,10.18-25.57,17.19-37.47a190.22,190.22,0,0,1,21.08-27.66c7-7.57,15.19-13.36,23.44-19.28,5.63-4,12.43-5.63,18.16-9.38,13.46-7.19,28.36-8.71,43.09-10.88a4.75,4.75,0,0,1,3.34.67c1.48,1.68.31,3.06-.52,4.48-5.92,10.12-2,17.46,9.9,18.51,10.52.92,20.49-1.15,30.26-5.05,7.36-2.94,14.16-6.55,19.89-12.09a13.09,13.09,0,0,1,6-3.51C1181.76,356.53,1185.08,356.89,1188.05,358.94Z"/><path class="cls-4" d="M407,948.7l-136-.11c-1.57-2.25-.45-4.55,0-6.74,3.42-15.75,7.33-31.4,10.84-47.12,5.72-25.64,12.59-51,17.85-76.76,3.42-16.77,9.28-32.6,19.76-46.45,7.9-10.45,17.54-19,28.09-26.65.65-.47,1.52-.68,2.07-1.93-11.27,8.32-21.67,16.86-29.89,27.95-9.28,12.52-16.11,26.19-19,41.36C296.54,833.67,290,854.5,286,875.93c-2.65,14.05-7.21,27.68-10,41.72-1.7,8.64-3.61,17.23-5.91,25.72-.52,1.91-.77,4-2.67,5.18-12.63.07-25.25.19-37.87.18q-57.57,0-115.14-.14c-7.11-4.74-6.76-4.67-4.89-13.67,5.31-25.69,11.71-51.13,16.76-76.88,3.16-16.13,7.86-31.95,11-48.07,2.81-14.19,7.2-28,9.69-42.23,4-23.08,11.18-45.46,15-68.57.61-3.7,3.12-7,2.37-10.95.49-3.37,3-5,5.62-6.58,9-5.47,19.13-7.91,29.27-9.58,30.2-5,60.12-11.55,90.63-14.87,20.34-2.22,40.56-5.66,60.95-7.44,25.85-2.25,51.76-4.41,77.64-.19,3.39.56,7,.59,9.8,3.2,1.15,6.83-.48,13.6-1,20.33-.63,8.61-.95,17.27-1.39,25.87-1,19.62-3.4,39.09-5.39,58.59-2.56,25-5.44,49.91-8,74.88-2.7,26.13-7.23,52.06-9.54,78.24-.92,10.45-2.43,20.81-3.39,31.24C409.37,944.43,409.07,946.9,407,948.7Z"/><path class="cls-3" d="M309.2,299.11c20.47-1.64,40.62-5.62,60.92-8.54,17.06-2.45,33.76-6.56,50.46-10.63,5.75-1.4,6.4,3.23,8.63,6.17,2.94,1.77,3.22,4.92,3.76,7.78a115.36,115.36,0,0,1,1.35,29.22,174.09,174.09,0,0,1-9.85,46c-1.85,8.55-7,15.5-11.23,22.9-.38.89-.84,1.74-1.17,2.66-.64,3.75.63,7.26,1.31,10.85,1.08,5.57,2.87,10.95,4.18,16.45q10.88,45.63,18.49,91.93c.46,2.79.81,5.61-.21,8.37-1.8,2.53-4.44,2-6.83,1.58-18.83-3.21-36.56-9.78-53.78-17.85a202.53,202.53,0,0,1-31.15-17.73,235.46,235.46,0,0,1-36.45-31.63A173,173,0,0,1,287,429.86c-5.49-8.83-11.39-17.6-14.57-27.71a77.66,77.66,0,0,0-3.53-8.8c-.82-1.79-1.77-3.62-1-5.72a41.09,41.09,0,0,1,3.15-3.18c3.78-4,3-7.05-2.29-8.8-7-2.29-14.27-1.85-21.29-1.09-18.89,2.05-37.32,6.32-54.9,13.82a68.75,68.75,0,0,0-12.56,7.1c-2.36,1.66-5,3.4-4.43,6.63s3.9,3.08,6.38,3.78c.79.23,1.64.28,2.43.55a3.8,3.8,0,0,1,2,2.69c2.44,8,5.85,15.59,8.52,23.45,4.58,13.48,11.32,25.84,18.34,38.08,8.62,15,19.07,28.78,30.42,41.86a262.17,262.17,0,0,0,34.87,32.74,239.85,239.85,0,0,0,26.33,18c27.23,16.31,56.76,26.66,87.71,33.32a306.76,306.76,0,0,0,48.95,6c1.81.1,3.71,0,5.09,1.54,1.82,3.34,1.77,7,2.09,10.68.88,9.33,2.88,18.6,1.66,28.05-1.3,1.13-2.81.85-4.28.56-32.91-6.53-66.25-5.29-99.47-4.82-26.5.38-52.55,5.19-78.58,10-15.77,2.91-31.07,7.24-46.45,11.53a448.08,448.08,0,0,0-65.57,23.72c-2-4.16-1.14-8.74-1.63-13.08-1.23-10.88-1.74-21.85-2.22-32.79-1-23.91-1.63-47.84-2.48-71.75-.88-24.64.1-49.21.75-73.78.58-22.37,1.83-44.81,5.6-66.93,1.21-7.11-4.2-4.89-7.05-6.43,6.17-1.21,6.75-6,7.58-11.05,1-6.27,1.21-12.59,1.85-18.87,1.81-17.73,7.78-34.2,16.1-49.6,9.35-17.29,23.39-30.49,42-37.36,11.15-4.12,22.92-7.17,35.19-4.86,3.39,2.93,6.28,6.38,9.75,9.27a64.71,64.71,0,0,0,32.26,14.66,21,21,0,0,0,14-2.63c6.35-3.7,7.53-9.66,3.44-15.74C310.43,301.68,308.78,300.94,309.2,299.11Z"/><path class="cls-4" d="M1066,366c-9.5,5-19.13,9.8-27.58,16.63a116.4,116.4,0,0,0-21.68,22.27c-3.86,5.35-8,10.56-11.77,16-4.29,4.09-9.58,6.57-15,8.69s-10.52,4.08-15.81,6.06c-21.27,8-43.43,12.13-65.89,14.78a221.36,221.36,0,0,1-30.77,2c-2.3,0-4.68.29-6.74-1.18A5.05,5.05,0,0,1,870,447c2-12.19,3.7-24.45,6.7-36.46a198.52,198.52,0,0,1,7.72-36c1-3.31.2-6-1.5-8.91-7.09-12.26-13-25.05-15.81-39.05a9.27,9.27,0,0,1,.74-6.76c-1.77-4.06,0-6.75,3.13-9.35,11.5-9.6,24.23-17.24,37.35-24.38a209.2,209.2,0,0,1,41.82-17.28c19.42-5.6,39.19-10.49,59.66-10.93,1.42-.32,3.14-1,4.06.46.75,1.21-.5,2.47-1.14,3.59-.74,1.3-1.6,2.54-2.22,3.9-2.3,5-.91,8.68,4.07,11,6.9,3.23,14.24,3.45,21.52,2.48,10.26-1.37,20.34-3.61,29-10,1.43-1.06,3-2.16,5-1.46,1.91,3.49,1.21,7.63,2.81,11.19a25.77,25.77,0,0,0,1.73,4.73c.94,5.17,4.65,8,8.84,10.47,2,1.43,4.57,1.17,6.64,2.36a69.2,69.2,0,0,1,5.79,8.11c5.13,8.66,12.94,13.56,22.26,16.54,2.32.74,5,.94,6.54,3.27.87,2.14.67,4.38.66,6.61-.21,3.33,1,6.89-1.53,9.86-.15,0-.44.12-.46.08-5.21-9.55-14.81-7.46-23.08-8.41-3.32-.39-6.91.71-10.25,1.75a13.66,13.66,0,0,0-9,7.89c-2.25,5.17-4.92,10.15-7.56,15.13A23.54,23.54,0,0,1,1066,366Z"/><path class="cls-5" d="M646,294.68c9.34-9.63,17.86-20,26.42-30.29,4.8-5.74,9.56-11.82,14.15-17.84,6.24-8.17,12.6-16.32,18.66-24.63,5-6.94,10-14,15-20.94,6.18-8.66,11.84-17.64,17.87-26.39,5.83-8.45,11.29-17.15,16.74-25.86,6.67-10.66,13.07-21.48,19.77-32.12,1.69-2.68,2.63-5,1.7-8.29-3-10.88-5.69-21.86-8.37-32.83-1.56-6.42.69-9.81,7.39-11.62,5.55-1.5,9.48.77,11.39,6.62.51,1.58.91,3.19,1.51,5.27a83.22,83.22,0,0,0,10.3-19.28c3.57-9.74,9.51-18.24,13.18-27.85,1.1-2.9,3.83-3,6.32-2.84A4.77,4.77,0,0,1,823,29.91c1.22,6.28-2.13,11.2-4.71,16.38-2.22,4.46-4.45,8.92-6.58,13.42-.62,1.31-1.45,3,.32,4,2.11,1.17,2.93-.61,3.67-2.14q8.42-17.25,16.82-34.5c2.33-4.76,5.23-6.08,9.53-4.42,4.7,1.81,3.89,5.43,3.13,9.18-.35,1.75-1.54,2.92-2.24,4.4-4.57,9.59-9.22,19.14-13.67,28.79-.62,1.34-2.64,3.36.16,4.63s3.7-1,4.23-2.88c2.77-9.84,9.41-17.89,12.54-27.59,1.15-3.57,4.52-4.65,8.26-3.46,4.11,1.3,4.41,4.81,4,8.09-.47,3.61-2.17,7-3.86,10.23-3.42,6.62-7.36,13-9.69,20.16-.51,1.59-1.6,3.38.52,4.32,2.49,1.11,2.55-1.56,3.13-2.79,3.42-7.19,7.74-13.93,10.23-21.6a6.94,6.94,0,0,1,9.61-4.44c3.65,1.85,4.43,5.91,2.39,10.32-8.47,18.36-16.55,36.9-25.34,55.11-5.69,11.79-12.35,23.11-18.6,34.63-5.28,9.75-10.48,19.54-15.93,29.2Q803.14,192.61,795,206c-5.51,9-11.46,17.84-16.91,26.92-6.41,10.67-13.48,20.88-20.5,31.13-10.95,16-22.29,31.72-34.48,46.8-7.57,9.36-15.24,18.63-22.86,27.93a26.09,26.09,0,0,1-12.38,13.49c-2.37-.71-2.51-3-3.11-4.76-4.16-12.6-12.07-22.81-20.41-32.82a133.06,133.06,0,0,0-15.75-15.92C647.32,297.73,646,296.56,646,294.68Z"/><path class="cls-6" d="M411.09,393.82c.34-.65.67-1.31,1-2,2.86-4.18,6.84-7.19,10.84-10.14A300.74,300.74,0,0,1,457.32,360a353.86,353.86,0,0,1,45.8-20.37,6.68,6.68,0,0,1,4.39-.27c10.72,5.41,22,8.66,34.09,8.24a37.3,37.3,0,0,0,8.87-1.33c6.38-1.78,8.57-5.24,7.85-11.89-.34-3.07-1.83-6.12-.39-9.27l10-2.32c2.17,1.3,2.1,3.56,2.47,5.66.89,5,1.45,10.2,3.72,14.85,1.91,3.9,4.1,4.25,7,1.59,1-2.84.34-5.77.54-8.64.14-1.9-.26-3.94,1.53-5.35,2.74-.15,3,2.25,3.81,3.9a40.87,40.87,0,0,0,5.11,8.53c.94,1.1,1.91,2.65,3.65,1.95,1.36-.55,1.54-2.11,1.68-3.42.51-4.81.13-9.63.26-14.45a14.75,14.75,0,0,1,.22-2.48c.28-1,.67-2,1.89-2.19,2.26.74,2.56,2.87,3.3,4.68,1.75,4.3,3.13,8.78,5.5,12.8,1.19,2,2.72,4.31,5.39,3.58,2.29-.63,1.79-3.3,2.14-5.17.56-3-.61-5.93-.44-8.93.11-1.81-.13-3.67.78-5.37a1.5,1.5,0,0,1,1.27-.67c.16.05.38.06.45.16,2.81,4.39,5.66,8.74,10,11.85.3,13.82,1.45,27.59,1.5,41.4.05,12.28-1.33,24.62,1.27,36.82a4.32,4.32,0,0,1-.47,2.91c-5.66,3.19-11.84,1.46-17.8,1.87-3.34-3.07-.46-6.16,0-9.25.94-2.07-.52-3-1.9-4-10.34-7.3-22.18-10.24-34.49-11.78a3.19,3.19,0,0,0-3.86,2.36c-6.9,15.44-12.62,31.36-19.07,47-4.49,10.87-8.78,21.85-13.11,32.8-1.61,4.06-1.49,8.46-2.3,12.68-2.14,4.75-7.15,6.29-10.73,9.44-4.13,3.62-8.17,7.32-12,11.26-12.27,8.13-24.93,15.34-40,16.88-1.32.13-2.65.21-4,.25-10.81.41-14.69-5-14.11-15.68a58.66,58.66,0,0,1,3.4-16.06c3.49-10.06,7.86-19.77,12-29.55.89-2.11,1.75-4.36,4-5.59,4.51-.56,8.69,1.65,13.26,1.32,7.84-.55,10.22-3.82,7.38-11a46.57,46.57,0,0,0-10.64-15.54c-10.93-10.93-23-20.56-36.7-27.92-9.83-5.26-19.42-10.83-31-11.57C416.27,394.48,413.48,395.55,411.09,393.82Z"/><path class="cls-7" d="M962,888.52c26.78,4.2,53.5,8.78,80.46,11.75,11.11,1.22,22.25,1.66,33.39,2.2a1211,1211,0,0,0,128.38-1c24.75-1.43,49.3-5.13,73.78-9.22,8.84-1.48,17.83-2,26.52-4.53,4.08-1.16,1.6,3.16,3.25,4.07.84,15.9,3.65,31.56,5.67,47.32.43,3.38,2.62,7.6-2.63,9.58l-353.24,0c-.83,0-1.66-.13-2.48-.2-1.07-1.85-.79-3.89-.69-5.84.89-16.55,2.08-33.07,4-49.53C958.64,891.1,958.28,888.12,962,888.52Z"/><path class="cls-8" d="M252,297.94c-14.44-.26-28.56,1.63-41.43,8.41a82.43,82.43,0,0,0-29.82,26.21c-10.88,15.67-16.46,33.21-20.34,51.4-1.93,9-1.29,18.47-3.13,27.63-1.42,7-1.11,7.08-8.27,7.45-19.22-.47-37.8-4.59-54.74-13.37C68,392.05,52.78,366.83,63.2,335.57c2-6.12,4-12.48,7.45-17.86a45.52,45.52,0,0,1,25.8-19.79c12.73-3.89,25.65-3.23,38.62-2.87,4.16.11,8.31.63,12.46.61,13.12,0,20.21-5,23.32-18.55,1.91-8.32,6.88-11.06,14.14-12.14a63.59,63.59,0,0,1,15.9-.35,118.73,118.73,0,0,0,13.47.46,27.63,27.63,0,0,0,25.71-18.53,50.31,50.31,0,0,1,3-5.75c4.84-9.25,13.46-9.72,20-1.36a19.11,19.11,0,0,1,4.1,13.4,57.68,57.68,0,0,0,6,28.44c.81,1.1.39,2.2,0,3.29-2.23,6-13,13.82-19.33,14.08A2.37,2.37,0,0,1,252,297.94Z"/><path class="cls-9" d="M555.1,207.85c13.17-11.12,27.23-21.11,40.69-31.88,16.31-13,32-26.79,48.2-40,2.84-2.3,3.25-4.61,2.83-7.76-.69-5.27-1.43-10.55-1.75-15.85-.37-6.24,2.38-9,8.9-9.47,6.81-.51,9.39,1.48,10.06,7.87a16.39,16.39,0,0,0,1.39,6.08c3.84-2.78,5.6-7,8-10.65,7.33-11,14.46-22.24,21.75-33.32a7.53,7.53,0,0,1,10.49-2.21c2.58,1.83,3.56,7.24,1.32,10-6,7.36-9.83,16.18-15.68,23.64-.58.74-1.8,1.6-.5,2.38,1.12.66,2.57,2,4,.4a16.14,16.14,0,0,0,2.08-2.8c6.24-11,13.65-21.17,20.51-31.74,2.73-4.21,8.07-5.22,11.69-2.45,2.72,2.09,2.43,7.12-.15,10.83-6.44,9.26-12.69,18.64-19,28a23.64,23.64,0,0,0-1.73,3.58c-.53,1.2-1.33,2.46.27,3.5s2.52-.14,3.25-1.22c2.7-4,5.65-7.88,7.87-12.13,3.12-6,7.6-10.9,11.33-16.4,1.51-2.23,3.88-2.51,6.26-1.8s4.53,2.06,4.88,5a11.13,11.13,0,0,1-2,8c-5.52,8.06-10.91,16.21-16.27,24.37-.91,1.38-2.91,3-.58,4.66,2.54,1.8,3.57-.63,4.57-2.22,4.45-7,8.38-14.34,13.78-20.73,3.1-3.67,6.37-4.56,9.82-2.12,3.73,2.63,3.91,6.63,1.63,9.69-6.67,9-12,18.75-18.41,27.88-4.26,6.09-8.08,12.49-12.35,18.58-5.27,7.53-12,13.53-19.57,18.77a168,168,0,0,0-19.64,16c-11.67,11-23.95,21.43-36.14,31.9C635.61,234,624.21,243.59,612.63,253c-10.3,8.35-20.66,16.71-31.41,24.41-13.58,9.72-26.71,20.15-41.19,28.6-4.23-2-3.88-6.42-5.41-9.85,1-3.18,4.08-3.79,6.48-4.95,7-3.42,10.56-9.87,14.8-15.81,2.2-3.08-2.76-3.35-1.78-5.71,2.45-1.63,5.64-.52,8.06-2.23,2-.86,4.05-1.64,5.17-3.74a9.67,9.67,0,0,0,1.8-4.17,5.11,5.11,0,0,1,1.89-2.89c8.68,1.13,11.22,5.86,7.17,13.35-3.53,6.52-8,10-16.76,13.06,8.33-2.62,13.55-6.74,17-13.45,3.34-6.41,1.93-10.11-4.87-12.77-.91-.36-2-.49-2.43-1.55-1.34-4.74.13-9.66-1-14.4-2.36-8.9-6-17.15-12.72-23.68a11.19,11.19,0,0,1-3.32-6.5A3,3,0,0,1,555.1,207.85Z"/><path class="cls-9" d="M687.93,352.06l12.28-13.26c12,7.18,25.25,10.76,38.89,13.21,18.49,3.34,36.69,1.41,54.94-2.17,22.58-4.43,43.4-13.18,63.36-24.36,3.46-1.94,7.28-3.23,10.47-5.69.24,10.35,4,19.68,8.22,28.92,3,6.63,5.42,13.56,10.19,19.27,1,1.13.66,2.45.29,3.8-3.5,12.57-6.94,25.15-8.52,38.15-3.33,3.64-7.72,5.73-12,7.93-21.14,10.9-43.86,15.85-67.42,17.57-3.45.25-6.86,1.43-10.38.61-4.35-2.09-8-5.27-11.7-8.25-7.29-5.87-14.93-10.41-24.77-9.53a6.44,6.44,0,0,1-4.75-1c-.18-.31-.32-.83-.16-.89,6.15-2.41,3.46-6.66,2.13-10.51-1.72-5-2.24-10.41-5.35-14.9a11.35,11.35,0,0,0-5.91-.4c-13.91,2.35-27.8,4.75-41,9.94-3.18,1.25-6.24,3.23-9.94,2.64-3.8-5.69-6.17-11.2-2.63-18.35,4.26-8.61,5.75-17.94,3.18-27.55C686.88,355.51,686.44,353.63,687.93,352.06Z"/><path class="cls-7" d="M1098.09,216c1.09-11.77,2.69-23.44,6.92-34.58.24-.62.5-1.23.79-1.83,1.92-4,3.39-9.6,8.78-8.78,5.71.86,3.64,6.87,4.65,11.5,1.67-3.69,3.36-6.79,4.49-10.09,2-5.76,5.93-10.32,8.74-15.56a12.28,12.28,0,0,1,5.87-5.29c4.78-2.06,10.31-4.27,14.75-.86,4,3,1.8,8.33,1.18,12.66-1.18,8.17-6.68,14.45-10.1,22,2.64.16,3.21-2,4.26-3.2,8.34-10,16.76-19.78,28.44-26.13A13.46,13.46,0,0,1,1185,154a5.9,5.9,0,0,1,5.15,7.89c-1.93,5.38-4.53,10.3-9.7,13.42a7.73,7.73,0,0,0-3.62,4.82c7.86-4.43,15.28-8.67,22.75-12.81a31.46,31.46,0,0,1,13.16-4.29c2.53-.17,5.13-.13,6.59,2.48s.6,5.38-1.1,7.45c-3,3.7-6,7.83-9.87,10.41-6.19,4.1-11.33,9.61-18.36,13.15,3.38,1.47,6-.18,8.71-.9,10.11-2.71,20.17-5.7,30.79-5.62,2.53,0,5.32-.05,6.16,3,.79,2.86-1.2,4.68-3.38,6.06-6.87,4.37-13.83,8.52-22,10.22A32.56,32.56,0,0,0,1201,213c5.16,0,10.32,0,15.49,0a95.58,95.58,0,0,1,23.79,2.35c2.31.58,5.25.9,5.73,4s-1.57,5.21-4,6.87c-7,4.74-14.93,6.26-23.19,6.53a35.85,35.85,0,0,0-8.51.79c6.47,1.14,12.94,2.23,19.39,3.45a41.2,41.2,0,0,1,12.19,4.25c3.87,2.12,4,4,.46,6.63a38.21,38.21,0,0,1-20.42,7.17,46.19,46.19,0,0,0-9.43,1.19c1.59.56,3.18,1.1,4.76,1.68,1.89.71,4.15,1.47,4.18,3.74s-1.9,3.61-4,4.63A59.33,59.33,0,0,1,1186,272a2.9,2.9,0,0,1-.66-2.78c2-15.84-4.79-27.92-16.22-38.06-12.71-11.28-28.64-13.28-44.48-15.74a56.84,56.84,0,0,0-22.76,1C1100.6,216.73,1099.23,217.09,1098.09,216Z"/><path class="cls-7" d="M555.1,207.85c.06,1.06.12,2.13.17,3.19.35,4.21-2.56,2.61-4.27,2.11-4.45-1.31-8.44-1-11.9,2.34a7.16,7.16,0,0,1-2.88,2.23c-2.33.44-4.27-.67-6-1.88-5.25-3.71-11.14-6.26-16.92-9.78,1.86,3.74,5.44,5.19,7.84,7.82,1.86,2,4.66,3.81,4,7-.75,3.44-4.19,3.23-6.84,3.9a22.06,22.06,0,0,1-5.35,1c-3.49-.53-5.94-3.53-9.5-3.89-5.64-1.33-11.11-.21-16.56,1.19-4.89-.58-6.06-6.15-10.4-7.87,3.26,3.63,7.68,6.23,7.66,11.72-.13,2-1.32,3.59-2.3,5.25-.37.61-.78,1.19-1.18,1.79-4.09,5.18-1.54,10.26.26,15.36.63,3.15-1,4.51-3.85,5.17-3.75.89-7.4,1.75-7.72,6.88s2.13,8.38,6.55,9.89c6.6,2.26,9.46,7.79,12.71,13.12-2.07,3.47-5,4.17-10.23,2.49a3,3,0,0,1-1.08-1.54,6.81,6.81,0,0,1-.25-2.05,3.6,3.6,0,0,1-2.11,3.14c-9.54-1.27-18.51-3.69-24.58-12-8.94-10.57-16.22-21.81-15.42-36.54.62-11.24,6.34-19.58,14.52-26.61,1.19-1,2.66-1.18,1.73-3.63-3.39-8.85.12-16.25,6.67-21.83,15.43-13.15,33.44-20.3,53.77-21.91,16-1.27,32.63,12.42,37.61,26.64C551.26,196.26,553.48,202,555.1,207.85Z"/><path class="cls-8" d="M268.86,233c-9.56-1.83-15.59-8.54-20.68-15.91-11.26-16.31-10-38.46,3.39-53a29.87,29.87,0,0,1,19.63-9.85c2.07-.16,3.25-.49,3.77-2.86,1.54-7.13,5.87-11.75,13.15-13.28,21.79-4.57,42.73-2.76,61.7,9.64,11.47,7.5,15.34,19.43,14.93,32.46-.39,12.08-3.34,23.63-11.94,32.93-3.78-.22-5.4-3.27-6.78-5.92-4.43-8.5-11.49-11.47-20.72-12.05-9.51-.58-18.46-4-27-8.33-6-3.07-15.91,1.27-17.78,7.94a37.75,37.75,0,0,1-1.21,4.82c-1,2.26-2.47,3.52-5.07,2.84-3.75-1-7.88-2.3-10.11,2.2a11.46,11.46,0,0,0,1.69,13.09C270,222.38,269.45,227.59,268.86,233Z"/><path class="cls-7" d="M994.06,141c-9.77-4.52-15.8-12.18-18.52-22.45-1.34-5-.17-9.87,3.68-13.25,4.58-4,10-5.71,16.13-3a45.72,45.72,0,0,0,6.51,2.39,4.75,4.75,0,0,0,5.92-2.43c2.36-4.3,4.81-8.57,10.32-9.19a28.21,28.21,0,0,1,21.08,5.73c7.47,5.78,15.3,10.22,25.13,10.51,10.15.31,19.72,3.84,28.23,8.79,16.52,9.61,24.17,25.47,16.71,44.74-1.06,2.73-.9,5.93-3.12,8.23-1.63,1-3.25.49-4.77-.17-12.79-5.51-26.26-6.68-40-6.43a89.1,89.1,0,0,1-9-.28,10.11,10.11,0,0,1-7-5.19A17.89,17.89,0,0,0,1031.4,150c-4.77-.59-9.51-1.66-14.34-1.47a39.8,39.8,0,0,1-16.08-2.81C998.42,144.51,995.44,144,994.06,141Z"/><path class="cls-10" d="M1001.18,144.26c7.76,3.62,16.18,2.7,24.34,3.46,9.22.85,17.73,2.65,22.17,12.15.79,1.7,2.52,2.56,4.26,3.22,4.39,1.13,8.53,2.7,11.69,6.17,1.76,1.94,3.9,2.07,6.39,1.52,5.11-1.13,9.89.83,11.56,4.45,1.76,3.83.54,8.46-3.5,11.91a8.66,8.66,0,0,0-2.92,6.05c-.47,3.85-1.54,7.51-5.19,9.72-2.31,2.78-4.92,5.37-6.85,8.4a25,25,0,0,1-10.19,9.19c-1.55.76-2.87,1.68-3.21,3.52a5.45,5.45,0,0,1-1.89,1.33,46.3,46.3,0,0,1-21.59,4.24c-.1-1.8-1.1-2.4-2.83-2.77a36.08,36.08,0,0,1-6.52-2.36c-18.29-7.91-24.46-23.35-26.08-41.72-.75-8.4,1.7-16.45,2.25-24.69C994.56,152.74,995.47,147.09,1001.18,144.26Z"/><path class="cls-10" d="M268.86,233c-.28-1.3-.64-2.58-.81-3.89-.54-4.23-.53-8.2-4.11-11.89-3.22-3.31-3.11-8.63-1.26-13.23,1.49-3.72,6.69-5.4,11.18-3,3.45,1.82,4.37.21,4.51-2.41.42-7.62,5-10.84,11.5-13.85,3.79-1.76,5.23-1.2,8.47.52,9.11,4.82,18.83,8.25,29.32,8.89,7.84.47,14.48,3,18.35,10.59,1.64,3.21,3.54,6.42,6.8,8.42a69.51,69.51,0,0,1-9.35,30.08c-8.5,14.53-20.89,22.14-37.91,21.76-1.16,0-2.32,0-3.48.06-7.28-.24-13.3-3-17.72-8.89C277.16,249.77,272.76,241.55,268.86,233Z"/><path class="cls-9" d="M450.36,274.37c7.14,6.14,15.52,9.58,24.64,11.43,2,1.87,1.2,4.35,1.42,6.58.68,6.76,2.94,12.63,9.35,15.94,5.22,2.69,9.6.84,12.31-4.38,1.82-3.52.79-7.59,2.71-11,5.48.09,10.42,2.17,15.37,4.21a12.09,12.09,0,0,0,.21,4.9,140.85,140.85,0,0,0,1,14.37,9.51,9.51,0,0,1-1.12,6.25c-5.74,4.82-12.32,8.46-18.73,12.18-14.21,8.26-28.63,16.25-43.47,23.3-8.67,4.11-17.44,8.15-26.34,11.83-1.53.64-3.09,1.38-4.73.26,2.17-9.83,6-19.23,7.49-29.24,2.76-18.39,4.71-36.74-1.32-54.92C436.07,281.86,444,279.53,450.36,274.37Z"/><path class="cls-11" d="M1124,324c-16.42-2.54-27.23-12.23-34.19-26.82,2.8-2.81,6.86-3.75,9.55-6.87a31.94,31.94,0,0,0,7.24-14.41c1-4.54,2-5.16,6.91-4.43,1.54,1.09,1.77,2.76,1.76,4.41a38.36,38.36,0,0,0,3.87,17.68,4.91,4.91,0,0,1,.43,3.83c-1.6,2.49-4,1.76-6.26,1.5-3.42-.41-6.77-1.33-10.31-1.57,2.77,10.32,12.4,13.7,20.71,7.49a10.32,10.32,0,0,1,2.07-1.37,4.88,4.88,0,0,1,2.43-.08c12.26,2.36,20.56-2.11,25.8-13.9,2.87-5.52,3.37-11.78,5.49-17.53,3.61-2.27,6.61-1,9.27,1.71s4,6,2.25,9.89c-1,2.29-2.31,4.55-4.45,5.84-3.19,1.92-4.08,4.05-1.77,7.19a4.71,4.71,0,0,1,.67,3.33l-2.49,4c-.62,4.73-4.26,7.24-7.5,9.95-5.8,4.87-5.86,4.81-3.47,12,.64,1.89,1.63,3.74,1.83,5.68,1.2,11.51,9.86,16.57,18.45,21.78,2,1.22,5,1.36,5.52,4.41a78,78,0,0,1-41.13,20.71c-7.18,1.27-14.58,1.69-21.61-1.39-7.94-3.48-9.86-11.55-4.34-18.29.94-1.15,2.16-2.12,2.34-3.74a3.94,3.94,0,0,1,1.56-2.92,36.13,36.13,0,0,0,8.41-11.07c1.7-3.22.42-6.71.88-10.05,2.24-2,5.21-2,7.86-2.85a41.05,41.05,0,0,0,11.63-6.14C1137.18,323.58,1131,327.18,1124,324Z"/><path class="cls-7" d="M156.06,683.8c0-1.47,1.1-1.87,2.18-2.35,6.52-2.89,12.83-6.41,19.58-8.6,15.44-5,30.65-10.67,46.28-15.24a555,555,0,0,1,101.62-19.29c26.64-2.62,53.5-1.9,80.28-1a247,247,0,0,1,39.58,4.48c1.46.28,2.88.78,4.32,1.18,1.62,3.61-1.6,4.8-3.36,6.72-2.84,1.44-5.25,4-8.89,3.4-19.24-5.13-38.89-4.73-58.5-3.84-22.43,1-44.75,3.4-67,6.51-30.92,4.33-61.94,7.82-92.55,14.3-13.13,2.77-26.54,4.14-39.34,8.55-6.05,2.08-11.67,4.59-15.89,9.58A15.53,15.53,0,0,1,156.06,683.8Z"/><path class="cls-6" d="M1165.51,299.9c-1-1.54-2-3-2.93-4.63-1.43-2.56-2.79-4.61,1.9-5.91,4.12-1.14,7.15-7.72,6-11-1.73-4.81-5.2-7.15-10.43-6.47-1.24-.87-1.37-2.22-1.43-3.54a26.11,26.11,0,0,0-1.25-6.82c-5-15.56-9.39-18.75-24.26-16.7a6.63,6.63,0,0,1-2.35,0c-8.84-2.87-17.73-5.32-27.15-3-3.38-.19-4.85-3.24-7.29-4.84-3.17-3.07-7.59-1.08-11.11-2.76,2.16-7.59,7-13.31,12.9-18.22,20.59-5.93,40.49-1.58,59.36,6.06,17,6.86,27.13,20.57,29.92,39.18.58,3.84-.83,7.19-1.39,10.76-4.35,7.17-7.08,15.28-12.86,21.65A41.14,41.14,0,0,1,1165.51,299.9Z"/><path class="cls-10" d="M598.94,325.06c0,5.78.15,11.56-.11,17.33-.09,2-.21,4.68-2.67,5.42s-3.81-1.65-5-3.26a55.87,55.87,0,0,1-7.17-13.5c-1.57-1.57-1.44-3.57-1.43-5.54-.2-1.18-1.53-2.14-1.21-2.71-.36.89,1.53,2.2,1.2,3.85,0,6.46.24,12.9-.33,19.34-2.34,3.67-5.54,3.66-8.34-.32-3.45-4.93-3.47-11-4.78-16.57-.48-2.09-.77-4.23-1.16-6.35-3-11.25,2.32-17.34,12.59-20.59,3.27-1,6.35-2.54,9.69-3.54,4.77-1.43,9.2-4,13.95-5.82,10.71-4.09,15.48-2.86,21.46,7a7.46,7.46,0,0,0,1.38,1.37c2.81,2,2.58,5.15,3.09,8,.77,4.38.51,8.81.35,13.22.1,2.29-1,4.4-1,6.68-.35,1.94-.53,4-2.78,4.84-2.34,1.88-3.68.18-4.67-1.55-1.54-2.69-2.8-5.54-4.17-8.33-.71-1.44-1.53-2.85-1.3-4.56-.13-.95-1.08-1.62-.9-2.88-.24,1.22.53,1.89.83,2.72-.3,1.64.88,3.07.67,4.7-.59,5.75,1.2,11.47.11,17.24-.33,1.76,0,3.84-2.17,4.55-2.38.77-4.17-.6-5.69-2.18-3.31-3.44-4.35-8.07-6.17-12.28-1.18-2.72-2.17-5.52-3.24-8.28a5.35,5.35,0,0,1-1.41-4.39,6.5,6.5,0,0,0,.22,2.64C599.11,322.55,598,323.85,598.94,325.06Z"/><path class="cls-6" d="M629.08,323.11c-.21-7.35.19-14.77-2.1-21.92,4.47-2.67,9.77-3.82,13.78-7.36,2.13-1.88,3.56.19,5.25.85,18.17,16.06,34.2,33.68,41.92,57.38,1.75,8.82,3.28,17.65.14,26.51a13.52,13.52,0,0,1-.93,2.82c-4.49,7.07-4,14.1,0,21.14-.9,3.25-4,3.56-6.43,4.7-.87.42-1.35.56-.67,1.49,3.55,8.24,6.55,16.67,9.35,25.16.63,1.91,2.19,4-.15,5.86-9.89,2.11-20,1.62-30,3.06-1.9.27-3.7-.14-4-2.6.16-2.23,1.84-2.94,3.6-3.52s3.48-1,5.17-1.66c4.84-1.83,5-2.79,1.42-6.68-.89-1-2-1.8-1.63-3.37a8.1,8.1,0,0,1,2.64-3c6.44-4.89,8.82-11.51,8.11-19.33-2.36-26-5.25-52-9-77.83a8,8,0,0,0-.23-1c-1.27-2.3-3.59-2.25-5.68-2.32-8.15-.27-16.29-.34-24.31,1.62C633.27,323.68,631.14,324.58,629.08,323.11Z"/><path class="cls-10" d="M1047.85,224.05l1.88,0c.74,3.88,1.64,7.74,2.18,11.65,1.56,11.32,7.82,18.94,18.08,23.54,1.84,3,2.19,5.91-.34,8.72-13,9.84-27.81,13.37-43.84,13.13-4.82-.07-9.13-1.78-13.36-3.53-4.44-1.84-5.91-7.55-3.57-11.85,1.34-2.44,2.89-4.76,4.47-7.33l-3.52-.5c12.27-2.9,16-9.89,16.2-22.63a2.23,2.23,0,0,1,1.54-1.16C1035.52,233.12,1041.82,228.86,1047.85,224.05Z"/><path class="cls-10" d="M252,297.94c9.71-2.17,17.54-6.73,21.13-16.66,3.82-7.72,6.64-15.92,11-23.4a1.24,1.24,0,0,1,1.56.85c1.45,8.45,8,12.91,13.85,18a8.78,8.78,0,0,1,1.32,1.47c-.46,5-2.09,10,1.05,14.79,1.83,2.79,3.75,5.39,7.27,6.16,4.68,3.05,6.6,7.7,5.58,12.83-1.15,5.72-5.77,8.58-11.24,10-9.77,2.5-18.65-.75-27.37-4.48s-16-9.67-22.6-16.49A4.44,4.44,0,0,1,252,297.94Z"/><path class="cls-10" d="M515,322.8c1.67-2.61,1.41-5.62.79-8.25-1.09-4.65-.67-9.25-.68-13.88,1.6-.74,2.92.06,4.12.89,5.54,3.84,11.52,6.27,18.37,6.16a5.73,5.73,0,0,1,3.19,1.2c1.74,3.19,3.66,6.29,5.2,9.58,2.41,5.17,6.29,7.37,11.91,6.57.42,2.1.94,4.19,1.25,6.31,1.78,12.28-.88,16.09-13.42,17.28-13.85,1.31-27.08-1.15-39-8.76-.08-2,1.53-2.73,2.85-3.62C514.42,333,516.38,328.57,515,322.8Z"/><path class="cls-12" d="M1177.85,357.7a99.66,99.66,0,0,1-19.4-12.65,13.33,13.33,0,0,1-4.11-7.1c-1.42-5.43-3.19-10.77-5-16.08-.91-2.65-1-4.4,1.86-6.16,4.79-3,8.54-7.2,11.83-11.79,14.86,15.38,23.63,33.52,25,55Z"/><path class="cls-13" d="M1070,202.91c1.9-4.17,4.68-8,4.11-13-.27-2.33,1.74-3,3.29-3.85,4.16-2.29,4.81-6.25,3.28-9.83s-5.37-6-9.4-4.35c-4.41,1.76-6.78.2-9.78-2.75-2.62-2.57-6.32-4.05-9.54-6,13.34-.08,26.75-.77,39.77,3,4.89,1.4,9.62,3.37,14.42,5.08-7.83,12.45-15.67,24.89-30.44,30.41C1073.83,202.26,1072.05,203.17,1070,202.91Z"/><path class="cls-14" d="M540.82,308.92c-9.93,1.5-17.88-3.15-25.68-8.25.09-1-1.6-2.59.87-2.9a57,57,0,0,1,19-1.85c2.57,2.91,2.48,7.13,5,10.07C540.29,307,540.55,307.94,540.82,308.92Z"/><path class="cls-15" d="M300.88,278.16c-8.52-4.33-14.94-10.39-16.73-20.28.07-.59.13-1.17.2-1.76A56.45,56.45,0,0,0,302.07,265Q301.47,271.58,300.88,278.16Z"/><path class="cls-16" d="M1047.85,224.05c-5.29,7.61-13,10.51-21.82,11.17.07-1.87.15-3.75.22-5.63.65-1,1.33-1.78,2.76-1.62C1035.7,228.69,1041.76,226.27,1047.85,224.05Z"/><path class="cls-17" d="M1001.18,144.26c-3.79,4-5.45,9.16-8.11,13.79a62.62,62.62,0,0,1,1-17Z"/><path class="cls-18" d="M1085.19,234.18c4.17-.79,8.31-1.43,11.84,1.87a3.86,3.86,0,0,1-2.74,1.23c-4.11-.08-8.19-.06-11.35,3.23-3.94,2.66-6,6.82-8.32,10.71-.92.15-1.22-.48-1.48-1.17C1074,242.37,1079.82,238.44,1085.19,234.18Z"/><path class="cls-19" d="M1073.14,250.05l.92,1.2c2,2.92,0,5.77-.11,8.66-.75,2.06-.55,4.21-.6,6.33-.26,3.88.91,7.66.77,11.53-.34,1.08-.53,2.31-2.11,2.19-1.9-3.79-2-7.94-2.36-12,.11-2.91.22-5.81.34-8.72Z"/><path class="cls-20" d="M446.21,209.7c-6.53.78-11.64,3.59-14.83,9.39-.44.8-1.2,1.33-2,.85s-.5-1.52,0-2.14C433,212.8,437.08,207.1,446.21,209.7Z"/><path class="cls-21" d="M444.12,202a13.3,13.3,0,0,1-1.67-6.65c.05-.94.25-2.25,1.43-2.32,1.5-.09,1.12,1.23,1.15,2.16.05,1.49.14,3,.21,4.47C445.37,200.68,446.11,202,444.12,202Z"/><path class="cls-22" d="M444.12,202c1-.5.86-1.51,1.12-2.34l2.19,6.77C444.57,204.87,444.65,203.25,444.12,202Z"/><path class="cls-23" d="M1003.77,101.06c-.22.76-.82.86-1.48.83s-1.25-.66-.93-1.23c.2-.38,1.09-.5,1.67-.52A.68.68,0,0,1,1003.77,101.06Z"/><path class="cls-24" d="M558.81,948.59l-99.28.15c-11.14,0-22.29,0-33.43,0-1.88-2-1.17-4.37-.78-6.64,2.37-13.75,5.87-27.29,7.68-41.16,2.7-20.61,8.27-40.72,11-61.33,2.13-16,5.87-31.69,8.81-47.54,3.46-18.62,5.92-37.42,10-55.93.64-2.9.65-6,2.18-8.65,2.4-2,5.42-2.45,8.25-3.39,21.33-7.08,43.15-12.54,65-17.77C576.37,697.15,615,689.73,654,685.61c23.17-2.44,46.43-3.46,69.56.81,3.41.63,7,.88,9.81,3.28,1.4,2.28,1.06,4.79.92,7.28-1.49,27.59-6.12,54.8-9.75,82.14-5.32,40.06-12.18,79.86-18.07,119.82-2.19,14.8-5.74,29.38-7.53,44.25-.24,2-.48,4-2.09,5.47l-128.77,0c-1.69-1.7-1.78-3.89-1.54-6,.94-8.15,1-16.39,2.43-24.49.49-2.29,1.5-4.48,1.47-6.9.1,1.14-.48,2.18-.49,3.3-2.49,10.57-7.21,20.46-9.5,31.09A4.17,4.17,0,0,1,558.81,948.59Z"/><path class="cls-25" d="M696.88,948.66c1.15-14.93,4.67-29.48,7-44.21,3.08-19,5.69-38,9.07-57,5.17-28.91,8.08-58.13,12.7-87.12,3.08-19.31,6.12-38.7,6.42-58.36.06-4,.65-7.94,1-11.9.31-2.4,2.47-3,4.11-3.93,4.08-2.3,6-5.58,5.28-10.26-2.08-18.34-4.68-36.61-8-54.74-3-16-4.17-32.29-7-48.32-.37-2.11-1-4.25-.1-6.39,2.07-2,3.41,0,4.47,1.16,5.63,6.27,12.86,9.38,20.59,12.45,26.7,10.59,54.37,17.48,82.37,23.32,5.2,1.09,10.3,2.64,15.44,4,1.78.47,3.57.91,4.49,2.78.74,6.53-1.17,12.83-1.71,19.25-.2,2.47-.54,4.94-.56,7.43-.08,4.92,3.9,6.54,7.18,8.65,2,1.32,4.7,1.87,5.57,4.61,2.48,7.94,1.64,16.23,2,24.3.73,16,2.16,31.85,2.51,47.82.45,20.63,2.72,41.14,5.38,61.61s4.67,41,5.66,61.59c1,20.92,1.92,41.85,3.56,62.74.94,11.92,1.13,23.91,2,35.84A5.87,5.87,0,0,1,885,948.7Z"/><path class="cls-26" d="M885,948.7c-1.34-22.07-3-44.13-3.95-66.22-1.75-39.2-4.21-78.32-9.87-117.19-1.88-12.84-2.3-25.83-3-38.78q-2.07-38.85-4.13-77.71c1.55-1.78,3.73-2,5.86-2.35a439.61,439.61,0,0,1,46-4.37c9.77-.33,19.53-1,29.31-.76,4.27.08,8.65,0,12.5,2.42-.75,13.26-1.26,26.54-2.35,39.78-.59,7.12-.7,14.26-1.18,21.39-1.22,17.91-1.52,35.87-2.42,53.8-1.25,24.74-2.43,49.47-3.19,74.24-.51,16.92-.39,33.91-2.41,50.77-.25,2.13.2,2.81,2.67,2.7a29.75,29.75,0,0,1,13.09,2.1c-4,3-2.38,7.58-2.76,11.27-1.54,15.09-2.3,30.26-3.39,45.4a22.12,22.12,0,0,1-.75,3.35Z"/><path class="cls-25" d="M465.14,728.07c-.13,9.34-3.09,18.21-4.54,27.33-4.16,26.2-9.85,52.13-14.21,78.27-3.31,19.81-7.85,39.37-10.72,59.21-2.56,17.75-6.39,35.22-9.54,52.84a17.53,17.53,0,0,0,0,3H407c2-15.3,3.69-30.64,5.13-46,1.55-16.51,3.8-33,6.21-49.39,2.52-17.26,3.83-34.63,5.68-52,2.48-23.26,5.28-46.5,7.76-69.77,1.6-15,2.63-30.11,3.26-45.22.46-11.1.89-22.21,2.62-33.22l8.35-4.54c3.28.69,3.22,3.44,3.47,5.86,2.25,21.19,5.18,42.28,8.53,63.31C457.37,723.27,462.08,725.1,465.14,728.07Z"/><path class="cls-27" d="M267.43,948.55c6.31-23.75,11.51-47.78,17-71.72s11.53-47.74,16.83-71.72c2.49-11.24,7.91-21.59,14.67-31.33,4.87-7,10.68-13.09,16.39-19.2,4.67-5,10.87-8.6,16.57-12.57,1.23-.86,3.28-2.22,4.92.36-4.09,3.3-8.49,6.28-12.74,9.28-14.11,10-24.13,23.43-31.28,38.55-6.5,13.75-9.64,28.91-12.34,44-2.66,14.89-7.7,29.23-10.57,44.06-4.56,23.62-11.73,46.64-15.89,70.35Z"/><path class="cls-28" d="M558.81,948.59c1.43-12.16,7.05-23.07,10.31-34.68,2.52.22,1.1,1.78,1,2.9q-1,15.93-2,31.88Z"/><path class="cls-29" d="M854,609.88c-12.38-3.82-25.26-5.62-37.74-9-21.29-5.73-42.73-10.81-63.34-19.12-9.74-3.93-18.29-8.28-24.82-16.4-4.46-3-5.49-8.28-8.37-12.33-.9-2.14-1.4-4.41-2.16-6.6-4.26-12.09-4.26-12.13-17.39-13a80.33,80.33,0,0,1-10.38-1.12,15.89,15.89,0,0,1-4.29-1.24c-3-1.53-6.43-3.06-6-7,.35-3.71,4-4,6.83-4.74,7.07-1.92,14.16-.48,21.24.07,1.39,0,2.8,0,4.83.11-2-.21-3.36-.1-4.72-.14a62.56,62.56,0,0,1-25.81-6.49c-2.32-1.19-5.36-2.29-4.93-5.51.48-3.62,3.85-4.41,6.81-4.65a100.54,100.54,0,0,1,21.31.32c2.23,1,4.68.93,6.38,1.37a7.35,7.35,0,0,1-1.89-.36,14,14,0,0,0-2-.24,93.19,93.19,0,0,1-16.14-4.77c-4.5-1.71-8.27-4.26-9-9.6a5.69,5.69,0,0,1,4.52-4.23c6.87-1.31,13.71-1.54,19.17,1-3.84-1.54-9.15-2.81-13.81-5.61-2.66-1.59-6.4-2.65-5.86-6.56.51-3.69,4.19-4.39,7.19-5.28a55.38,55.38,0,0,1,31.53-.3c2.32.78,4.71,1.34,7,2.13,3.8,3.71,8.84,5.69,12.89,9.07.2,1-1.22,1.57.3,3.1,3.88,3.9,8.06,7.72,10.35,12.95a25.36,25.36,0,0,0,3.55,6.21c2,4.43,5.29,6.88,10.06,8,5.18,1.2,9.76,4.12,14.73,6a440.9,440.9,0,0,0,78.1,21.33,380.12,380.12,0,0,0,44.63,4.76c12.49.62,24.92-.61,37.28-2.31a172.48,172.48,0,0,0,19.63-3.64,11.36,11.36,0,0,1,5.43-.34c10.59-1.42,20.49-4.95,30.32-9.09a189.32,189.32,0,0,0,35.47-19.86c9-6.38,17.17-14,25.07-21.73,2.89-2.84,4.81-6.67,7.18-10,3.09-7,9.44-7.71,15.62-7.05,13.67,1.47,25.9,6.93,37.17,14.76,6,4.17,11.81,8.53,17.44,13.2,6.1,5.05,10.08,11.48,13.39,18.36,2.5,5.21,1.32,7.55-3.86,10.52-4.45,6.63-10.62,11.76-15.68,17.87a72.12,72.12,0,0,1-12.1,10.94c-6.28,4.8-11.5,11-18.76,14.51-2.49,1.18-4.18,3.23-6.37,4.73-17.87,12.27-37.31,21.59-57.6,28.81-14.17,5-28.69,9.59-43.62,11.84C982,615.16,971,615.22,960.1,616c-2,2.2-4.61,2.43-7.32,2.49a550.36,550.36,0,0,1-65.33-2.54c-9.1-.9-18.27-.9-27.2-3.23C858,612.09,855.66,611.73,854,609.88Z"/><path class="cls-5" d="M745.07,480c-4.94-2-9.9-4-13-8.79,2.77-4.18,7.74-2.46,11.41-4.25,1.61,0,3.15-.59,4.38-.58a39.23,39.23,0,0,0-8,1.5c-4.35.45-8.72,1.34-13-.4-3.31-3.29-2.63-7.16-1.6-11.08,4-3.79,9.23-3,14-4a21.27,21.27,0,0,1-11.41-.57c-4-1.13-4.38-4.31-4.34-7.72.15-1.69-1.72-2.32-2-3.78,0-2.23,1.81-2.63,3.38-3,3.7-.92,7.4-2,10.21-1.91a43.43,43.43,0,0,1-15.05-2.7c-2.67-1.07-4.67-2.78-2.78-6.13,3.81-6.75,22.07-12.81,29.55-9.79a19.85,19.85,0,0,0,3,.11c11.26-1.27,20.3,3.14,28.36,10.58,3,2.79,6.56,5,9.86,7.46,9.24,10.69,22.42,9.5,34.53,11.2a346.3,346.3,0,0,0,42.71,3.27c2,0,4,0,5.64,1.47,26.18.36,51.81-3.36,77.36-9,14.9-3.27,28.61-9.49,42.87-14.31,4.81-1.62,8.77-5.38,13.82-6.77-1,5.45-5.33,9.11-7.36,14-6.72,16.25-13.8,32.35-17.63,49.65-2,8.89-4.66,17.62-7,26.42-1.56,2-3.85,2.48-6.15,2.93a361.33,361.33,0,0,1-60.85,6.76c-14.12.31-28.21,1.23-42.34.75-20.94.14-41.75-1.66-62.55-4.14-14.6-1.73-25.28-9.17-34.18-20.11-1.51-2.1-2.3-4.62-3.82-6.72a54.55,54.55,0,0,1-3.16-4.95c-2-3.8-4.94-5.45-9.26-4.63C748.74,481.18,746.73,481.61,745.07,480Z"/><path class="cls-7" d="M1147,524.83c4.62-6.05,4.17-8.57,0-15.26-8.14-13.18-20.89-20.85-33.16-29.23-5.72-3.9-12.12-6.2-18.52-8.27-9.61-3.12-19.6-5.9-28.13,3a30.19,30.19,0,0,1-6.4-12.8c-1.53-6,1.2-9.71,7.24-10.3,14.23-1.4,27.21,2.73,40.06,8.33a204.53,204.53,0,0,1,30.8,16.08c13.86,9.11,27.46,18.86,37.34,32.67a5.87,5.87,0,0,1,.81,1.26c1.71,4.53,5.27,8.81,2.21,14.06s-8.4,4.63-13.34,4.57C1159.33,528.83,1153.13,526.84,1147,524.83Z"/><path class="cls-12" d="M863,519.91c18.08.59,36.15-.4,54.17-1.22a305.21,305.21,0,0,0,55.81-7.76c-1.3,8.27-1.67,16.69-3.79,24.84-8.56,3.88-17.9,4.54-27,5.89a170.8,170.8,0,0,1-29.7,2c-15.52-.43-31.09-1.11-46.36-4.54a44.71,44.71,0,0,0-5.45-.55C859.77,532.17,859.53,525.81,863,519.91Z"/><path class="cls-4" d="M854,609.88c18.57,4.57,37.67,4.22,56.52,6.14,14.76,1.51,29.5.42,44.24.78a30.27,30.27,0,0,0,5.36-.83q-.81,10.44-1.61,20.87c-2.61,2.11-5.65,1.68-8.63,1.43a250.86,250.86,0,0,0-42.9,0,72,72,0,0,1-7.49.2q-20.49-.3-40.94,1c-2.63.16-5.38.3-7.68-1.5C851.16,628.53,853,619.25,854,609.88Z"/><path class="cls-5" d="M1123.08,341c-.11,7-5.95,9.83-10,14-16.17,1.7-32.19,4-47.12,11,6.2-8.06,10.74-17,14.64-26.37,1.28-3.06,4-4.65,6.64-5.68,11.37-4.38,22.71-3,33.89,1C1124.35,336.08,1122.35,339,1123.08,341Z"/><path class="cls-7" d="M850.85,638c29.73-.87,59.46-2.13,89.21-1.83,6.15.06,12.29.45,18.43.69-.24,2.3-.47,4.6-.71,6.9-31.44-2.22-62.61.57-93.68,5.06-4.2-.83-7.6-3.18-10.82-5.82C851.75,641.73,850.13,640.38,850.85,638Z"/><path class="cls-10" d="M515,507.93c6.09-7.93,14.57-13.12,22.17-19.32a9.5,9.5,0,0,1,5.36-2c12-1.79,23.83-1.47,35.45,2.32a13.08,13.08,0,0,1,7.46,5.51,4.35,4.35,0,0,1,.21,3.3c-6.38,6.28-14.36,8.56-23,9.2-1.6-.14-3.12.59-4.67.5.05,0,0,0,0,0,.33,0,.66,0,1,0,6.12-1,12.26-.93,18.39-.89a16.27,16.27,0,0,1,8.19,1.88c3.8,2.09,4.42,5.45,1.42,8.62a21.53,21.53,0,0,1-11.17,6.29A126.31,126.31,0,0,1,560.3,526a78.87,78.87,0,0,1,23.9.61,23.94,23.94,0,0,1,6.65,2.08c3.53,1.88,3.79,4.47.73,7a19.65,19.65,0,0,1-6.61,3.46A80.32,80.32,0,0,1,564.05,543c5.64-.64,11.35.14,17,1.28,3.09.62,6.16,1.55,8.3,4.2,1.38,5.32-2.43,6.88-6.15,8.51-8,2.09-16.18,1.14-24.29,1.33-7,.16-7.53.91-10.06,7.14-5.27,13-11.93,25.21-23.28,34.14a28.84,28.84,0,0,1-8.78,4.61A39.81,39.81,0,0,1,505,605.52q-25.66,0-51.32,0c-2.63,0-5.37.33-7.6-1.63-24.36-.28-48.06-4.37-71.67-10.46a281.37,281.37,0,0,1-49.82-18.17,243.3,243.3,0,0,1-29.35-16.68A272.72,272.72,0,0,1,250,521.35c-9-9.12-16.68-19.3-24.48-29.43a214.56,214.56,0,0,1-18.63-29.24,268.29,268.29,0,0,1-22.34-55.63c-4.15-4.37-3.47-9.93,2-13.16,8-4.78,16.31-9.17,25.44-11.2,15.71-3.48,31.5-7,47.8-4.09,6.81,1.21,9.21,3.84,8.46,9.6a171.62,171.62,0,0,0,18.61,39.44c8.93,13.65,19,26.53,31.29,37.73,7.12,6.51,14.43,12.71,22.09,18.43a206.37,206.37,0,0,0,28.24,17.52c16.91,8.79,34.68,15.05,53,19.82,4.46,1.16,9.15,1.41,13.74,2.07a7.38,7.38,0,0,1,4.88-.3c17.78,3.21,35.7,2.94,53.65,2.55,5.1-.11,9.15-1.67,11.58-6.28S511.72,511.6,515,507.93Z"/><path class="cls-6" d="M582.89,555.86c3.08-1.4,6.45-2.59,5.6-7.09,1.66-6.22,6-10.9,9.57-15.95,5.91-8.44,11.1-17.3,16.34-26.13,4-6.71,7.39-9,15.23-7.88,3.78.53,7.58.86,11.35,1.46,5.72.91,11.47,1.92,17.31.74a4.25,4.25,0,0,1,4.18,1c2.72,8.26,2.41,17.09,4.82,25.44,2.26,7.82,3.48,15.92,6.65,23.52,1.65,4,4.14,5.54,8.38,5.54,12.33,0,24.65.19,36.61-3.58a3.07,3.07,0,0,1,2,.12l7.19,12.38c1.14,8.49,2.18,17,3.45,25.49,3.73,25,7.59,49.93,11.31,74.91.56,3.74.64,7.55.95,11.33-15.46-7.27-32.28-6.07-48.5-6.4-17.21-.35-34.53,1.35-51.8,2.23-30.56,1.56-60.33,8.29-90.43,12.75-12.18,1.8-23.85,6.22-35.89,8.77-14.95,3.18-28.83,9.22-43,14.59-4.54,1.73-8.4,4.71-12.33,7.53-1.45,1-2.69,2.58-4.78,2.31-2.62-10-3.55-20.2-4.95-30.35-1.66-12-2.82-24-4.22-36a5.58,5.58,0,0,0-1.9-3.94c1.83-1.5,3.58-3,3.89-5.58-1.11-9.4-1-18.9-2.76-28.23,2-1.7,4.36-1.41,6.65-1.37a262.18,262.18,0,0,0,30.83-1.1c6.64-.68,13-2.72,19.22-5a129.26,129.26,0,0,1,14.27-4.15c17.42-8.87,34.58-18.17,49.23-31.38a93.6,93.6,0,0,0,10.08-11A19.38,19.38,0,0,1,582.89,555.86Z"/><path class="cls-30" d="M515,507.93c-4,5.62-7.92,11.33-12.1,16.82-1.47,1.92-4.2,2-6.4,2.06-20.21.15-40.47,1-60.47-3.09a2.91,2.91,0,0,1-.83-.51c-.77-19.67-6.36-38.51-9.84-57.72-3.55-19.57-7.8-39-13.21-58.12a10.72,10.72,0,0,1-.13-2.48c1.76-3.12,4.9-3.11,7.85-3.26,13.14-.65,24.65,4.13,35.62,10.77a88.6,88.6,0,0,1,20.17,16.78c7.86,8.76,8.35,22,1.06,30.52-6.78,13.9-13.31,27.91-17.05,43-1.1,4.44-1.94,9-.9,13.79,1.25,5.72,3.4,8.29,9.24,8.34,12,.11,23.46-2.72,33.64-9.19C506.05,512.85,510.94,511.09,515,507.93Z"/><path class="cls-31" d="M476.76,459.7c.56-4.64,3.58-8.52,3.82-13.34.32-6.6-2.08-11.87-6.33-16.72a80.27,80.27,0,0,0-28.59-21c-10.58-4.61-21.72-8.82-33.6-3.72-.5-3.67-2.69-7.2-1-11.07,12.15-1.83,22.86,2.37,33.31,7.84a187.06,187.06,0,0,1,26,16.38c9.69,7.31,18.6,15.47,25.16,25.83a37.48,37.48,0,0,1,3.6,7.63c1.95,5.49-.56,9.57-6.28,10.5S482,461.38,476.76,459.7Z"/><path class="cls-25" d="M515,322.8c3.06,3.11,1.41,10.52-3.08,13.56-1.74,1.18-3.88,1.77-5.22,3.54-4,.6-7.41,2.8-11.16,4.09a230.92,230.92,0,0,0-37,16.71c-16.29,9-32.17,19-46.47,31.16,3.49-7.29,8.84-13.63,10.94-21.6,5.51-1.41,10.3-4.49,15.48-6.64,20.37-8.47,39.49-19.39,58.76-30C503.33,330.31,508.84,326,515,322.8Z"/><path class="cls-31" d="M268.25,388.2c-.68-6.19-4.83-7.91-10.31-8.38a124,124,0,0,0-60.62,9.88,90.11,90.11,0,0,0-10.47,5.62c-5,3-4.19,7.3-2.26,11.73-3,1-6-.13-8.48-1.29-3.56-1.64-3.2-4.72-1.15-7.51,2.93-4,7.5-5.86,11.54-8.32,11.52-7,24.68-9.45,37.45-12.82a122.19,122.19,0,0,1,35.48-4.26,40.55,40.55,0,0,1,10.3,1.55c6.36,1.89,7.42,6.51,2.6,11.08C271.15,386.61,270,387.87,268.25,388.2Z"/><path class="cls-30" d="M519.13,602.91c-6.93,2.64-13.79,5.48-20.81,7.87-12.74,4.35-26.05,4-39.26,4.26-4,.07-7.95-.17-11.92-.27-.37-3.63-.73-7.26-1.1-10.89h52.74c6.44,0,12.91.34,19.28-1A.63.63,0,0,1,519.13,602.91Z"/><path class="cls-25" d="M870.91,450.91c-23.76.14-47.27-2.68-70.71-6.18-5.86-.87-9.58-4.67-12.17-9.76a250.36,250.36,0,0,0,46.31-6.46c13.75-3.11,26.58-9.19,38.8-16.34,1.56-.91,2.93-2.25,4.91-2.24Z"/><path class="cls-32" d="M1124,324a45.51,45.51,0,0,0,22.23-4.61c-5.36,7.82-13.34,10.61-22.31,11.55Z"/><path class="cls-33" d="M1112.91,271.9c-3.11-.2-4.61.71-5.08,4.34-1.21,9.27-9.5,20.19-18,20.95-2.48-.19-5.08,0-7-2.16a3.76,3.76,0,0,1,2.76-1.3c7.84.46,12.42-4.14,16.09-10.27,2.32-3.86,3.25-8.24,4.89-12.36C1108.94,269.63,1111.22,268.48,1112.91,271.9Z"/><path class="cls-34" d="M1086,295l-3.08,0c-4.54-2.32-8.75-4.92-9-10.82a2.42,2.42,0,0,1-.26-2.09c.64-.44,1.42-.41,1.69.24,2.14,5.17,6.66,8.05,10.78,11.33A1.18,1.18,0,0,1,1086,295Z"/><path class="cls-35" d="M1074.09,281.81c-.07.8-.14,1.6-.2,2.4A6.33,6.33,0,0,1,1072,280a2.18,2.18,0,0,0,1-2C1075.48,278.66,1075,280.19,1074.09,281.81Z"/><path class="cls-36" d="M793.68,89.5a21.36,21.36,0,0,1,4.41,6.93,30.84,30.84,0,0,0,7.27,11.67c3.8,3.8,3.56,10.45.13,15.35a5,5,0,0,1-.76-.49c2.77-6.81.33-12.14-4-17.63-3.53-4.51-5.76-10-8.56-15.13Z"/><path class="cls-30" d="M661.83,501.71c-10.31,2.93-20.37-.37-30.52-1.28a32.28,32.28,0,0,0-8.39,0c-3.21.54-4.84,2.21-6.47,5.19-5.23,9.55-10.59,19.09-17.21,27.79-3.8,5-6.08,11-10.74,15.39-6.56-4.38-14.2-4-21.54-4.83-2.39-.28-4.88.12-7.14-1.84a91.69,91.69,0,0,0,25.09-4.4c3.1-1,7.94-2.15,7.51-5.84-.39-3.23-5.34-3.17-8.44-3.85-9.16-2-18.52-.79-28.89-1.23,7-2.67,13.27-3.56,19.45-4.65,4.36-.77,7.77-2.86,11-5.39,3.88-3,3.29-5.87-1.33-7.61a14.31,14.31,0,0,0-6.3-1.27,1.42,1.42,0,0,1-.08-1.34c2.81-2.5,5-5.55,7.48-8.36a115.58,115.58,0,0,0,6.87-20.25c2.52-10.88,6.29-21.33,9.59-32,2.42-7.77,3.79-15.83,6.67-23.47.68-1.81.78-4,3.19-4.64,6.2-1.24,12.49-.87,18.75-1.19,1.65-1.35,3.63-1,5.53-1.08,7.64.82,15.14,2.2,22.09,5.71,2.28,1.07,4.91,1.69,5.9,4.46,2,2.21,6.54,2.61,6.05,6.43-.52,4.12-5,3.57-7.84,4.83a52.65,52.65,0,0,1-6.1,1.91,6.32,6.32,0,0,1-2.11,1.34c-3.22,1.54-6.61.52-9.93.67-4.05-.29-8.06.45-11.64.49,1.7.36,3.8-.31,5.92-.46,5.25.11,10.56-.55,15.63,1.47a3.89,3.89,0,0,1,1.3,2.26c.3,3.92,1,7.79,1.38,11.7.18,1.76.62,3.6-.78,5.14-3.6,2.34-7.68,2.61-11.79,2.73-.9-.3-1.88-.17-2.71-.51a20.31,20.31,0,0,0,5.65.85c3.67.68,7.51.77,10.57,3.35,1.36,4.93,3.11,9.81,1.83,15.06a42.63,42.63,0,0,1-20.05,1.37c-2.75-.42-5.48,0-7-.72-1.85.17-1.08,1-1.3.37-.09-.29,0-.45.26-.42,8.22.92,16.47,1.61,24.4,4.19a10.44,10.44,0,0,1,4.79,2.58C662.37,494,663.85,497.63,661.83,501.71Z"/><path class="cls-7" d="M611.64,417.85a201.14,201.14,0,0,0-6.08,19.41c-1.78,7.24-4.06,14.38-6.51,21.43-3.88,11.14-5.7,22.87-10,33.88-1,2.46-1.38,5.19-3.91,6.72a.77.77,0,0,1-.11-1.31,4,4,0,0,0-.32-3.09c-.84-1.82-.28-3.52.28-5.29,2.33-7.42,3.48-15.13,5.53-22.62a5.11,5.11,0,0,0,0-3.86,79.24,79.24,0,0,0-25.79-9.72c-3.27-.57-6.38-3.23-10-1.19-2.07,1.62-2.89,4-3.68,6.32-1.1,3.29-2.09,6.66-3.91,9.6-3.73,6.05-5,12.73-5.5,19.64-1.45.49-2.79,1.61-4.48.85a37.18,37.18,0,0,1,3.67-18.25c6.64-13.69,11.51-28.16,17.11-42.27,4.37-11,9.58-21.77,13.31-33.08,2.07-1.69,3.79-.28,5.4.76,10.14,6.55,21.32,9.8,33.26,10.84,1.59.14,3.89-.42,4.12,2.35C613.27,411.93,612.45,414.89,611.64,417.85Z"/><path class="cls-7" d="M635.64,416.8l-5.25-.14c-1.8-4.21-2.14-8.65-2.15-13.15,0-23.21-.73-46.41-1.59-69.61l1.62-5c.4-2.84,2.38-3.34,4.73-3,9.68,1.26,19.06-.74,28.46-2.54,1.78-.34,3.52-1,5.34-.24,3.12,22.84,6.43,45.65,8.1,68.66.27,3.8.73,7.59,1.1,11.39,1,10.2-3.45,17.52-12.09,22.59l-5.51-2.93c-.5-2.44,1.8-2.44,3-3.22,10.46-6.87,12.73-11.82,9.78-23.87-1.53-6.24-1.37-12.93-4.79-18.67-6.6-1.37-13.08.45-19.57.87-4.47.28-9.31-.16-13.4,2.55-1,11.28-3,22.61,2,33.51C635.84,414.9,636.25,415.81,635.64,416.8Z"/><path class="cls-37" d="M614.08,409c-3.08-2.14-6.77-1.17-10.09-1.65A69.82,69.82,0,0,1,574.55,396a4.78,4.78,0,0,0-3.25-.94c.57-2.86,2.77-3.07,5-2.78,12.55,1.63,24.7,4.56,35.22,12C612.89,405.27,616.19,405.81,614.08,409Z"/><path class="cls-38" d="M582.89,325.07q.52,3,1.07,6c-1.91,2.91-.46,6.14-.89,9.19-.27,1.92.57,4-.88,5.76q0-10.5-.07-21C582.42,324.59,582.67,324.63,582.89,325.07Z"/><path class="cls-39" d="M598.94,325.06c-1.5-2.23-.88-4.63-.25-7.11l1.26,5.1C599.61,323.72,599.27,324.39,598.94,325.06Z"/><path class="cls-40" d="M617,319c.28,1.66.57,3.32.86,5l-.7,0a7.72,7.72,0,0,1-1.13-5C616.33,318.58,616.65,318.59,617,319Z"/><path class="cls-5" d="M535,295.92a40.86,40.86,0,0,1-19,1.85c-5.08-1.32-10.35-2-15-4.8-1.91-1-1.7-3-2.15-4.75-2.09-8.15-6.14-14.77-14.23-18.09,7.94,3.31,12,9.79,14.07,17.83a3.36,3.36,0,0,1-.61,3.29c-5.37.11-8.15-1.87-10.14-7.24a29.33,29.33,0,0,1-2.43-2.43c-3.19-4-6-8.27-11.56-9.68-2.84-.71-5-3.2-5.86-6.3-2-6.84.93-11.53,8.46-12.36,3.25-.36,3.89-1.53,3.46-4.25l.71-.23a2.3,2.3,0,0,1,1,1c3,10.66,8.86,19.38,18.41,25.09,9.85,5.89,21.24,2.15,24-8.58a28,28,0,0,0,.7-15.59c-.24-6.33,1-7.63,7.35-7.47,4.18,2.92,3.55,8.36,6.32,12a25.39,25.39,0,0,0,11.06,11.68c1.5,1,3.47,1.41,4.33,3.26,5.58,1.81,5.38,1.77,2.11,7.35A44.24,44.24,0,0,1,535,295.92Z"/><path class="cls-41" d="M537.94,214.92c3.56-4.33,8-4.52,13-3.09,1.42.41,3.44,2.42,4.3-.8.73,3.59,3.42,6,5.74,8.35,5.65,5.8,8.17,13,10.1,20.51.46,1.23.93,2.48-.62,3.34-2.41-.84-2.59-3.19-3.26-5.1-1.35-3.87-3.49-7.36-5-11.13a10,10,0,0,0-2.39-4.08,9.94,9.94,0,0,1-.79-1c-.92-1.32-1.72-3.1-3.51-.84a6.86,6.86,0,0,1-3.06,1.9,24.57,24.57,0,0,1-14-3C536.39,218.46,538.38,216.57,537.94,214.92Z"/><path class="cls-42" d="M571.94,256c8,.56,11.32,6.29,7.86,13.47-3.85,8-13.27,14.64-22.27,15.55.55-2.28,2.52-2.39,4.07-3,5.7-2.36,11.14-4.86,14.6-10.57,4.81-8,3.95-11.06-4.9-14.41a.79.79,0,0,1-.45-1A.76.76,0,0,1,571.94,256Z"/><path class="cls-43" d="M571.12,256.13a4.2,4.2,0,0,0,.18.87c-.4,1-.8,2-1.21,3-.81,1.37-1.18,2.94-2,4.31-.51,2.57-2.68,3.07-4.69,3.77a4.26,4.26,0,0,1-3.21.27,1.27,1.27,0,0,1-.3-1.49c6.57-3.84,8.62-9.92,8.79-17.1,0-2-1-4.78,2.12-5.8C572.15,248,571.57,252.05,571.12,256.13Z"/><path class="cls-44" d="M560,268l3.45.07c-2.71,2.64-6.15,2-9.42,2.11l-4.92-2.28c-.1-1,.59-1.43,1.4-1.72C553.77,266.11,557.06,266.07,560,268Z"/><path class="cls-45" d="M571.12,256.13c-.58-4,.9-8.23-1-12.17a.6.6,0,0,1-.25-.65c.07-.22.15-.33.22-.33,1.1-.79.77-2,1-3.09,1.92,5.28.52,10.74.83,16.1A4.54,4.54,0,0,0,571.12,256.13Z"/><path class="cls-46" d="M568.11,264.27a5.12,5.12,0,0,1,2-4.31A4.54,4.54,0,0,1,568.11,264.27Z"/><path class="cls-47" d="M746.83,416.82a45.5,45.5,0,0,0-22,5.26,18,18,0,0,0-3.85,2.27c-1.55,1.4-3.92,2.87-3.4,5.09.46,2,3,2.41,5,2.76,5.87,1,11.74,2,18.46,3.14-6.07,1.29-11.36,2.44-16.66,3.53-1.16.24-2.39.26-2.4,1.89-1.71,1.59-3.8,1-5.7.78a169.24,169.24,0,0,0-20.87-1.06c-2,0-4,.1-5.46-1.76q-5.5-15.24-11-30.5c6.64-1.27,13.42-1.28,20.12-2.22,10.68-1.51,20.55-5.17,30.32-9.32,5.33-2.27,10.81-4.14,16.07-6.59,2.23,6.93,4.33,13.91,6.74,20.78,1.28,3.63,1.15,5.78-3.49,5.33C748.08,416.14,747.44,416.6,746.83,416.82Z"/><path class="cls-7" d="M745.42,390.09c-3.29,5.24-9.49,5-14.26,7.33a113.48,113.48,0,0,1-45.37,11.5,17.79,17.79,0,0,1-6.88-.7c1.65-3.49,6-3.13,8.25-5.69,15.43-6.68,31.69-10.35,48.19-13.08C738.66,388.91,742.19,387.9,745.42,390.09Z"/><path class="cls-48" d="M1118.55,187.85a4.2,4.2,0,0,1,0-4.25C1121.83,185.08,1118.12,186.48,1118.55,187.85Z"/><path class="cls-49" d="M1142.43,189.6a7.77,7.77,0,0,1-.51-1.59c0-.67.11-1.41,1-1.39.23,0,.69.71.61,1A10.35,10.35,0,0,1,1142.43,189.6Z"/><path class="cls-50" d="M513.15,225.14a31.46,31.46,0,0,1,8.1-2.32c3.87-.59,4.4-2.8,1.87-5.43-3-3.09-6.3-5.87-9.52-8.72a7.11,7.11,0,0,1-2.6-5.49l24.89,14.11c-.06,4.66-2.77,8.65-3.1,13.39-.23,3.43,1.83,6.93-.27,10.25-6.38,3.5-8.34,3-11.6-3.26a29.91,29.91,0,0,0-4.71-6.24C514.6,229.67,512.56,228,513.15,225.14Z"/><path class="cls-51" d="M488,284c2.66,3.32,5.57,6.25,10,7,3.35,4.49,2.26,12.48-2.26,16.49-3.88,3.43-9.33,2.84-13.73-1.43-4.77-4.64-5.67-10.62-5.87-16.83a3.52,3.52,0,0,1,1.9-3.26C481.57,286.34,485.27,287.65,488,284Z"/><path class="cls-52" d="M478.06,286c-2.05,6.7,1.3,17.57,6.08,20.58,5.92,3.74,11.19,2.16,13.77-4.45A15.51,15.51,0,0,0,498,291c-1.47-10.65-6.57-18.35-18.43-21.16,5.47-1.53,10,.64,13.89,5.17,4.54,5.23,6.45,11.4,7.57,18a29.38,29.38,0,0,1-1.35,10.75c-3.28,8.94-13,9.26-19.09,2.52-5.34-5.88-5.94-13-5.61-20.44,1.67-2.1.65-5.46,3.47-7.56C479.71,281.17,477.34,283.5,478.06,286Z"/><path class="cls-53" d="M513.15,225.14c3.25,5.53,8.42,9.6,11.18,15.63,1.51,3.31,5-.61,7.59.08a4.61,4.61,0,0,1,2.49-.93c3.1.54,4.62,1.75,2,4.69a3.32,3.32,0,0,1-3.41-.5c-6.91.26-7.07.42-6.81,6.79.39,1-.17,1.26-1,1.33-3.27-3.08-5.55-5.81-5.74-11.32-.2-5.75-5.68-10.41-10.62-14.16-1.69-2-4.66-2.35-6-4.75.08-.8.28-1.44,1.3-1C507.84,220.74,510,223.94,513.15,225.14Z"/><path class="cls-54" d="M534.27,240.75l-2.35.1c.71-3.73-.88-7.31-.29-11.2a30.51,30.51,0,0,1,4.26-12.36l2.05-2.37c3.6,1.2-1.25,2.69.13,4a49.31,49.31,0,0,0-2.67,18.23A4.66,4.66,0,0,1,534.27,240.75Z"/><path class="cls-55" d="M504.06,221l-1,.79c-1.43,1.25-3.13.62-4.67.52-3.44-.23-6.43.44-8.67,3.27-2.7,2.13-4,5.18-5.58,8.11-.69,1.31-.62,3.44-2.95,3.41-1.85-1.71-.9-3.49-.16-5.27s1.47-3.36,2.2-5,.92-3.68,2.82-4.65C492,220.43,497.87,218.54,504.06,221Z"/><path class="cls-56" d="M486,222.14c.11,2.19-1.58,3.28-2.82,4.65-.27-5.91-5.73-8.09-8.93-12,4.66-.81,4.72-.85,6.91,2.46A22.87,22.87,0,0,0,486,222.14Z"/><path class="cls-57" d="M480.06,249c-4.12-5.35-4.33-10.7,0-16.05.86,5.36,2.92,10.73,0,16.09Z"/><path class="cls-58" d="M480,249l0-16.09.95-1.11c.32,1.7-.55,3.61.86,5.13,2.3,2.23,1.55,5,1.27,7.61-.62,1.61-.64,3.52-2.26,4.64Z"/><path class="cls-59" d="M1062.91,114.2h9.26c-3,1.52-6.14,1.12-9.25.78-.32-.17-.42-.34-.32-.51S1062.8,114.2,1062.91,114.2Z"/><path class="cls-60" d="M993.38,107c-2.08,1.35-3.5.93-5.19.93C989.62,106.21,991,106,993.38,107Z"/><path class="cls-61" d="M984.73,113.88v6.52C983.47,117.65,984.11,115.72,984.73,113.88Z"/><path class="cls-62" d="M1062.91,114.2c0,.26,0,.52,0,.78h-5.43A8.21,8.21,0,0,1,1062.91,114.2Z"/><path class="cls-63" d="M1051,112.46c1.81-.66,2.69,0,3.71,1C1053.22,114.13,1052.34,113.15,1051,112.46Z"/><path class="cls-64" d="M1017,212.93a13.92,13.92,0,0,1-13.79-11.35c-.39-2.1.18-2.82,2.3-2.28,7.08,1.8,14.24,3.11,21.59,2.8,2.53-.11,2.62.91,2,3C1027.81,209.28,1022.34,213,1017,212.93Z"/><path class="cls-65" d="M1035.18,184a3.5,3.5,0,0,1-3.82,3.34,2.4,2.4,0,0,1-2.3-3.13c.4-2.06,1.5-3.82,3.86-3.73C1034.74,180.57,1035.17,182.14,1035.18,184Z"/><path class="cls-66" d="M1006.66,178.6c-.49,1.77-.17,4.1-2.21,4.24-2.22.15-2.89-2-3-3.9s.21-3.95,2.71-3.92S1005.76,177.53,1006.66,178.6Z"/><path class="cls-67" d="M1029.75,173.21c7.1-1.84,10.38.13,11.26,6.19C1038.81,175.38,1034.8,174.7,1029.75,173.21Z"/><path class="cls-68" d="M1008.7,171.48c-3.84-2.07-6.55-3-10-2C1002.14,164.58,1004.73,164.94,1008.7,171.48Z"/><path class="cls-64" d="M317.88,256.2c-9.1-.2-14.06-4.34-15.18-11.6-.32-2.07,0-3,2.13-2.44,7.88,2.17,16,2.53,24.06,3.55,3.58.45,2.77,2.1,1.63,3.85C327.37,254.43,322.83,256.71,317.88,256.2Z"/><path class="cls-69" d="M343,224.51c-.27,2.24-.5,4.77-3.6,4.89-2.4.09-3.06-1.84-2.83-3.77.28-2.37,1.18-4.62,4.12-4.73C343.23,220.81,342.94,222.78,343,224.51Z"/><path class="cls-70" d="M339.27,214.4c-1.19-.18-2.74,1-3.15-.6-.48-1.93,1.54-1.72,2.63-2.17a6.71,6.71,0,0,1,5.31,0c2.24.93,6,1.94,5.26,4.18-.85,2.64-3.41-.64-5.34-.72C342.36,215,340.84,214,339.27,214.4Z"/><path class="cls-71" d="M308.42,226.93c-2.34-.63-3-2.31-3.16-4.17-.16-2.08.93-3.73,3-3.86s2.8,1.47,2.88,3.32A4.85,4.85,0,0,1,308.42,226.93Z"/><path class="cls-72" d="M300.11,213.73c3.52-5.6,7.74-6.52,14.84-2.89A40.4,40.4,0,0,0,300.11,213.73Z"/><path class="cls-73" d="M1112.91,271.9a4.64,4.64,0,0,0-6,.13c-1.79,1.13-3.68,1.45-4.45-.91s1.06-3.57,3.07-4.33c1-.22,2.06-.58,3.11-.76,4.44.93,6.45-1.21,7.72-5.32a29.21,29.21,0,0,1,9.84-14.49c1.42-1.13,2.84-2.27,4.79-2.33h1.74c1-.48,1.34.13,1.51,1-.56,2.31-2.59,3.31-4.19,4.7-4.57,4-9,8.38-9.45,14.63a88,88,0,0,1-2,15.46c-1.55,6.22,1.3,12.65,4.87,18.23,1.39,2,3.56,2.69,5.73,3.34,7.39,2.35,13.9.22,19-6.08,1.63-2,2.47-4.82,5.36-5.66a2.11,2.11,0,0,1,1.32.49c-3.94,12.44-15.93,18.32-28.56,14-3.39-.93-6.94-1.68-7.29-6.19C1115.08,289.61,1114.27,280.69,1112.91,271.9Z"/><path class="cls-74" d="M1119,297.79c1.52,3.13,5,3.94,7.29,6.19-3.79,5.41-9.41,6.39-15,4.75-6.08-1.78-9.06-7.09-11.24-13.26C1106.74,296.05,1112.75,298.17,1119,297.79Z"/><path class="cls-75" d="M1133.92,245l-1.18-1.11c16.51-4,21.62,3.24,26,17.73,1,3.25.88,6.83,1.28,10.26-.61,6.34-1.78,12.53-5.14,18.1h-1c-1.45-1.64-.88-3.48-.35-5.19a114.17,114.17,0,0,0,2.79-12.62,40.64,40.64,0,0,0-3.08-15.92c-3-7.86-8.91-11.14-18-10.57A2.25,2.25,0,0,1,1133.92,245Z"/><path class="cls-11" d="M1131,243.89a34.84,34.84,0,0,0-14.72,20.72c-1.32,5.33-4.75,2.21-7.41,2.36-2.19-2.61-.83-5.79-1.41-8.65-1-4.84-1-10-4.39-14.11a2.43,2.43,0,0,1-.18-3.22C1112.71,237.59,1121.92,240.11,1131,243.89Z"/><path class="cls-76" d="M1102.89,241c5.61,7.82,6.36,16.77,6,26l-2,.79c-1.64-1.79-1.17-4-1.25-6.13-.27-7-2-13.35-6.86-18.62-1.08-2.67-4.21-3.89-4.89-6.85l3.2-.11Z"/><path class="cls-77" d="M666.8,323.11c-11,3.63-22.26,5.53-33.87,4-2-.26-3.56,0-4.66,1.79l.81-5.81a92,92,0,0,1,30.62-3.17C662.38,320.11,665.52,319.63,666.8,323.11Z"/><path class="cls-78" d="M582.89,325.07c-.26,0-.51-.06-.77-.07-1.47-1-1.2-2.45-.73-4.61C582,322.35,582.45,323.71,582.89,325.07Z"/><path class="cls-79" d="M617,319a7.89,7.89,0,0,0-1-.06c-1-.84-1.2-1.86-.5-3.51C616.06,316.88,616.5,318,617,319Z"/><path class="cls-7" d="M689.91,438.72c10.71.15,21.43.14,32,2,1.19.36,3-.13,2.83,2.07-1.46,2.34-3.91,3.14-6.33,3.65-18,3.79-36.2,5.62-54.56,2.77-3.58-.55-7.28-1.24-9.82-4.35l-.3-1.67a3.47,3.47,0,0,1,0-4.14l2.22-.17c.08,1.76.12,3.24,2.78,2.71C669.06,439.55,679.56,439.87,689.91,438.72Z"/><path class="cls-80" d="M1093.83,236.16c2.11,1.65,4.69,2.89,5.3,5.89a5.28,5.28,0,0,1-2.44,3,26.14,26.14,0,0,0-9,11.48c-.54,1.34-1,2.87-2.8,3.13-3.41-.32-4.83-2.63-5.17-5.61-.57-4.9-.87-9.83,2.2-14.2C1085.12,236.12,1089.28,235.51,1093.83,236.16Z"/><path class="cls-81" d="M1081.91,239.82a62.51,62.51,0,0,0-1.05,12.74c.11,3.36,1.18,5.78,4.76,6.47,1.84,1.92.62,3.57-.43,5.25-3,1.82-5.91.43-8.84-.29-1.77-.78-3.55-1.56-3.66-3.91.46-2.94.91-5.88,1.37-8.83A19,19,0,0,1,1081.91,239.82Z"/><path class="cls-82" d="M1076,262.94l9,1.25c1.71,1.72,1.51,4,1.48,6.07-.07,6.8.09,13.55,1.76,20.21.41,1.63,1.48,4.41-2.35,3.6a18.87,18.87,0,0,1-11.78-12.26c-.2-1.32.11-2.78-1.1-3.81-.34-4-1.5-7.94-.88-12C1073.4,265,1073.48,262.38,1076,262.94Z"/><path class="cls-83" d="M1076,262.94c-1.37.91-1.69,3.19-3.89,3-.08-2-.44-4,.58-5.9Z"/><path class="cls-7" d="M457.08,718.9c7.95-8.31,18.39-12.15,28.82-16,25.92-9.6,52.73-15.53,79.85-20.77a733.29,733.29,0,0,1,127.86-12.89,259.73,259.73,0,0,1,39.3,2.58c4.15.57,8.11,1.79,10.88,5.31,1.37,4.36-1.08,6.93-4.32,9.06-2.08,1.37-4.24,2.62-6.36,3.92-23.22-6-46.76-5.43-70.42-3.73-21.93,1.57-43.5,5.74-65.21,8.81-15.73,2.24-31.11,7-46.71,10.25a788.9,788.9,0,0,0-83.66,22.34,12.64,12.64,0,0,1-2,.3C460.46,726.77,456,725.24,457.08,718.9Z"/><path class="cls-84" d="M642.89,747.19c-4.9,5.65-10.75,9.92-15.57,15.42a96.54,96.54,0,0,0-20.2,35.67c-4.18,13.79-9.9,27.05-13.31,41.12-2.21,9.14-6.47,17.77-9.14,26.83-3.79,12.88-8.44,25.46-12.74,38.16-.38,1.11,0,3.13-2.06,2.48-1.6-.5-.69-1.91-.35-3,5.75-17.8,11.15-35.72,17.34-53.36s11.69-35.24,17.44-52.86a119.84,119.84,0,0,1,14.51-29.16c5.22-7.85,11.43-15.46,19.75-20.69A4.3,4.3,0,0,1,642.89,747.19Z"/><path class="cls-85" d="M570.11,916.81c-.23-1,.16-2.22-1-2.9l1.15-3.1C570.8,912.86,571.68,914.89,570.11,916.81Z"/><path class="cls-86" d="M654.06,444.9c23.81,7.46,47.31,4.46,70.71-2.07.83,2.75-1.23,6.68,3.23,8a10.35,10.35,0,0,0-1.87,5.39c-.19,3.55-1.14,7.17.92,10.53a3.27,3.27,0,0,1-1.06,3.18c-10.47-2.4-20.93-3-31.38.09-.79.23-1.59.46-2.36.76-2.12.82-5,1.32-5,4-.05,2.45,2.71,3.06,4.56,4.05,5.24,2.8,10.7,5.11,16.26,7.55-5.8-.13-11.52-.67-17.25-.45-3.34.13-6.27.82-7.83,4.17-2.8,2.14-6.09,1-9.16,1.35-5.33.53-6.4,1.69-5.71,6.9,2,15,4.75,29.85,8.19,44.57,1.69,7.23,4,8.59,11.29,7.94,9.27-.81,18.55-1.41,27.5-4.27a4.07,4.07,0,0,1,3.83.21l2,6.23c-6.72,4.61-14.66,3.82-22.13,4.7-6.08.71-12.32,0-18.47.25-4,.16-6-1.72-7.29-5.31a203.21,203.21,0,0,1-11.17-50.94l-1.89-10.86c-1.5-2.56-3-5.13-1.14-8.16q-.93-7.35-1.85-14.7c-1.06-1.86-3.22-1.74-4.8-2.68-1.09-2.92,3.05-2,3.05-4.12C656.1,455.67,653.44,450.4,654.06,444.9Z"/><path class="cls-7" d="M718.91,546.78c-11,4.37-22.63,4.78-34.14,5.9-5.44.54-8.34-1.83-9.61-7.87-2.6-12.3-5.47-24.55-7.19-37-.5-3.6-1-7.22-1.78-10.76-1-4.24.83-6.53,4.83-6.86s8-.08,12-.09c3.49,7.68,11.36,8.17,17.88,10.83a67.64,67.64,0,0,0,7.08,2c.19,1.93-.95,1.41-2,1.08-6.65-.06-13.3-.16-20-.15a19.05,19.05,0,0,0-4.42.66c-1.74.42-3.94.68-4,3-.08,1.94,1.84,2.49,3.31,3.3,8.43,4.65,17.74,6.36,27,8.16q1,.43,0,.81c-8.08.18-16.27-1-24.15,1.84-1.35.48-3.19.44-3.47,2.31s1.2,3,2.47,4c3.83,3.15,8.61,3.18,13.17,3.78,4.26.55,8.56.91,12.86,1.14,4.75.25,7.79,2.1,8.39,7.21A44.46,44.46,0,0,0,718.91,546.78Z"/><path class="cls-25" d="M863,519.91q-1.14,9.35-2.29,18.69a517.34,517.34,0,0,1-65.87-17c-5.83-1.88-11.42-4.48-17.11-6.77-3.07-1.25-6-3.12-9.21-3.69-5.55-1-9-3.86-10.46-9.17,2.34-3.24,5.77-4.79,9.4-6,3.52,3.52,6.9,7.18,10.58,10.52,6.93,6.3,15.66,8.13,24.56,9.39A443.76,443.76,0,0,0,863,519.91Z"/><path class="cls-87" d="M971.32,595.92c-5.75.05-11-1.48-14.4-6.33-3.14-4.5-1-12,5.1-15.94,7.84-5.13,16.44-7.13,25.43-2.54,8,4.1,8.8,13.68,1.57,19.08A32.75,32.75,0,0,1,971.32,595.92Z"/><path class="cls-14" d="M745.07,480c1.64-.15,3.3-.17,4.91-.46,4.91-.91,8.7.21,10.86,5.21a37.16,37.16,0,0,0,3.44,5.33c-1.84,4.62-4.48,6.34-9.52,6.17-2.58-4.83-6.47-8.63-10.08-12.63C743.29,482.09,743,481,745.07,480Z"/><path class="cls-88" d="M754.76,496.25c3.46-1.61,7.2-2.79,9.51-6.17l3.15,5.87c-2.35,3.21-6.24,4-9.4,6C756.62,500.22,755,498.62,754.76,496.25Z"/><path class="cls-89" d="M733.37,512.47c-5-2.68-10.07-4.92-15.69-5.63-1-.12-2.12-.34-1.91-1.69.15-.94,1.11-1.07,2-1.21C721.88,503.28,731.24,508.1,733.37,512.47Z"/><path class="cls-90" d="M726,469.89c0-1.18-.13-2.4,1.06-3.18l13.86.06c1.1-.09,2.59-1.31,2.89,1l-11.7,3.47C729.81,471.94,727.94,470.74,726,469.89Z"/><path class="cls-89" d="M731.42,527.72a16.56,16.56,0,0,0-14-5.87c-1.28,0-3-.08-2.83-1.87.15-1.59,1.83-1.1,2.86-1,4.5.26,8.62,2,12.65,3.81C731.68,523.46,732.41,525.08,731.42,527.72Z"/><path class="cls-91" d="M716.12,488.11c5.36-1.93,12.73,0,15.06,3.55a2.39,2.39,0,0,1,.56,2.29,1,1,0,0,1-1.62.35C726.46,490.39,721.13,490.06,716.12,488.11Z"/><path class="cls-92" d="M705.94,504l2-1.08,5.09,1.3C710.56,504.89,708.18,505.48,705.94,504Z"/><path class="cls-93" d="M707.85,519.8a1.4,1.4,0,0,0,0-.81c1.4,0,2.84-.47,4.21.43C710.69,520.27,709.26,519.86,707.85,519.8Z"/><path class="cls-36" d="M754.27,432.76a17.61,17.61,0,0,1,9.5,2.7,1.93,1.93,0,0,1,.91,2.57c-.58,1.15-1.64.83-2.59.41-3.82-1.7-7.65-3.13-12-1.62a1.78,1.78,0,0,1-2.4-1.21,2,2,0,0,1,1.64-2.17A39.41,39.41,0,0,1,754.27,432.76Z"/><path class="cls-94" d="M758.85,449.94c3.47-1,6.58,1.64,10.13,2.21a1.94,1.94,0,0,1,1.78,2.5c-.62,1.87-2,.75-2.79.22-4.21-2.83-8.94-1.72-13.49-2-1.05-.05-2.73.53-2.86-1.06-.14-1.78,1.57-1.8,2.87-1.87S757.13,449.94,758.85,449.94Z"/><path class="cls-95" d="M761.82,463.93a16,16,0,0,1,8.69,1.42c1.25.65,2.92,1.66,1.82,3.46-1,1.64-2.18.39-3.37-.23-3.24-1.71-6.55-3.09-10.4-2-1.47.4-3.9,1.31-4.12-1-.24-2.51,2.41-1.38,3.84-1.62A23.56,23.56,0,0,1,761.82,463.93Z"/><path class="cls-96" d="M726.13,456.18c-1.41-2.51-2.49-4.9,1.87-5.39l12.26,1.42c.07.17.13.35.2.53Z"/><path class="cls-97" d="M743.8,467.74l-2.89-1c2.61-1.36,5.36-.87,8.24,0Z"/><path class="cls-4" d="M592,462.1c1,.38,1,1.17.73,2-2.93,10.19-4.41,20.77-8,30.78-5-5-11.28-6.13-17.93-7.1-8.42-1.24-16.74-.63-25.11,0-1.93-6.14-.31-11.74,2.84-17,3.82-6.34,4.39-14.19,9.39-20,6,.24,11.45,2.52,17,4.52C577.86,457.86,584.75,460.61,592,462.1Z"/><path class="cls-30" d="M519.13,602.91l-1.07-.08c6-2.77,10.7-7.39,14.86-12.17A71.34,71.34,0,0,0,547.71,564c1.56-5.39,4.16-7,8.9-7.14,8.76-.25,17.57.67,26.28-1a123.79,123.79,0,0,1-26.24,26.22c-10.49,7.68-22,13.43-33.26,19.69A6.8,6.8,0,0,1,519.13,602.91Z"/><path class="cls-98" d="M551.83,526.58a2.43,2.43,0,0,1-2.79,2.23c-5-.28-9.4,1.42-13.48,4.23-1.18.82-3,1.69-3.95.08-.82-1.38.91-2.37,1.9-3.08a25.2,25.2,0,0,1,15.26-5.12C550,524.93,551.57,524.62,551.83,526.58Z"/><path class="cls-99" d="M585.05,498c0,.43.07.87.11,1.31-1.68,3.16-3.43,6.26-7,7.75-5,.77-10,.21-14.92.31a1,1,0,0,1-1.12-1.24C570.52,505.46,577.72,501.54,585.05,498Z"/><path class="cls-100" d="M547.86,540.91c1.5.16,3.7-.3,3.69,2.07,0,2-2,1.93-3.44,1.88-4.91-.15-9.6.23-13.21,4.17-.77.83-1.84,1.12-2.49,0-.79-1.32-.24-2.41,1-3.35C537.72,542.56,542.71,541.64,547.86,540.91Z"/><path class="cls-98" d="M548.63,506.79c1.8.34,4-.5,4,1.61s-2.22,1.27-3.56,1.55c-4,.82-8.36.38-11.48,3.81-.53.59-1.31,1.29-2.09.46s-.32-1.86.35-2.64C539.4,507.52,544.47,507.85,548.63,506.79Z"/><path class="cls-101" d="M562.16,506.11c5.26,1.77,10.72.17,16,.93-.1.27-.19.55-.28.82l-20.84-.09c-.31-.23-.39-.42-.24-.54a.57.57,0,0,1,.4-.16Z"/><path class="cls-102" d="M557.24,507.07c-.06.23-.12.47-.16.7a1.57,1.57,0,0,1-1.93.93.75.75,0,0,1-.32-.68C555.32,507,556.26,506.94,557.24,507.07Z"/><path class="cls-103" d="M1085.87,294.07c1-.22,2.14-.5,1.59-1.87-3.69-9.1-2.25-18.63-2.48-28,.21-1.72.43-3.44.64-5.16a25.15,25.15,0,0,1,13.51-17c6.27,5,7.22,12.09,7.79,19.33.17,2.11-.05,4.25-.09,6.38-1.69.43-4.06.39-3.63,3,.34,2,2.33,1.23,3.72,1.3a29.73,29.73,0,0,1-11.1,20.4A12.62,12.62,0,0,1,1086,295C1085.94,294.7,1085.91,294.38,1085.87,294.07Z"/><path class="cls-4" d="M635.64,416.8a22.91,22.91,0,0,1-4.77-16.75c.71-7-.88-14.08,1.16-21,10.22-.37,20.39-1.49,30.54-2.68,1.81-.22,3.61-.23,5.42-.31a116.54,116.54,0,0,1,5.73,27c.78,9.24-5.5,14.75-13.24,18.61-.71.36-1.39.77-2.08,1.16C651.19,419.39,643.5,417.8,635.64,416.8Z"/><path class="cls-104" d="M658.8,482.69l1.14,8.16c-9.49-4.07-19.9-4.4-29.68-7.64C639.8,483.9,649.3,483.28,658.8,482.69Z"/><path class="cls-105" d="M618.55,464.93a23,23,0,0,0-14.17,3.76c-1.49.93-3.59,2.28-4.69-.07s1.17-3.1,2.88-3.68c6.68-2.29,13.33-4.79,20.62-3.06,1.23.29,3.16-.09,3,1.66s-2,1.35-3.29,1.38S620.28,464.93,618.55,464.93Z"/><path class="cls-106" d="M620.8,440c2.17,0,4.33,0,6.5,0,.84,0,1.81.29,1.91,1.25.15,1.33-1,1.57-2,1.63a48.86,48.86,0,0,1-5,0A17,17,0,0,0,611.41,446c-1.33.92-2.82,2.4-4.28.42s.86-2.91,1.86-3.87C612.34,439.36,616.67,440,620.8,440Z"/><path class="cls-107" d="M655.2,461.19c1.77,3.87-2.31,2.24-3.3,3.51-1.65,1.94-4-.13-5.82,1.06-2.73-.37-5.46-.73-8.19-1.12-.08,0-.21-.23-.19-.34s.16-.27.25-.41c1.56-1,3.47.1,5-.82Z"/><path class="cls-108" d="M653.8,439.09c0,1.38,0,2.75,0,4.13-5.17-.6-10.31-1.56-15.55-1.39,1.22-3,4.18-.34,5.88-1.81A38.69,38.69,0,0,0,653.8,439.09Z"/><path class="cls-109" d="M646.08,465.76c1.75-1.41,3.89-.67,5.82-1.06,2,.63,5.43-1,5.05,3.29Z"/><path class="cls-110" d="M644.09,440c-1.62,1.72-4.3,0-5.89,1.81-2.05.05-4.13.5-6.5-.41C636,440.26,640,439.53,644.09,440Z"/><path class="cls-111" d="M630,464.13h3.27C632.25,465.5,631.16,464.56,630,464.13Z"/><path class="cls-112" d="M643,463.07c-1.5,1.39-3.33.74-5,.82C639.46,462.52,641.27,463,643,463.07Z"/><path class="cls-113" d="M592,462.1c-3.22,1.86-6-.21-8.82-1.13-9.81-3.25-19.54-6.74-29.3-10.14.82-1.69,2.33-1.1,3.5-.83C569.4,452.75,581.21,456,592,462.1Z"/><path class="cls-114" d="M563.93,435c-1.54-.56-1.18-1.85-.68-2.82A168.87,168.87,0,0,0,573.51,408c.44-1.3,1.42-2.67,2.93-1.95s.39,2.06-.09,3c-3.86,7.52-5.52,16-9.83,23.29C565.89,433.4,565.86,435,563.93,435Z"/><path class="cls-115" d="M668,376.07c-11.82,2.95-23.72,5.09-36,3C643.85,376,655.8,374.66,668,376.07Z"/><path class="cls-116" d="M636,349c0,4,0,8,0,12,0,.83-.13,1.78-1.17,1.9-1.35.16-1.63-.89-1.64-1.92q0-12.24,0-24.49c0-.92.32-1.8,1.21-1.91,1.26-.16,1.61.86,1.61,1.93C636,340.69,636,344.86,636,349Z"/><path class="cls-117" d="M548,270.79c-.19,9.93-7.85,17-17.39,16.21a7.54,7.54,0,0,1-5-2c-1.53-1.62-4.64-2.83-3.95-5.2.56-2,3.61-.21,5.41-1,6.28-1.83,13-2.6,18.21-7.08A3.39,3.39,0,0,1,548,270.79Z"/><path class="cls-118" d="M480.88,249.21c.4-1.37-.28-3,1-4.16,1.86,1.29,1.73,3.47,2.38,5.3,3.3,9.27,8.07,17.37,16.94,22.52,7.83,4.55,14.09,3.47,19.54-3.75,1-1.31,1.71-2.89,3.47-3.42.86.15,1.42.5,1,1.5-3.64,11.62-13.53,13.17-22.22,10.56C493.42,274.9,480.88,258.37,480.88,249.21Z"/><path class="cls-119" d="M546.07,272.06c-5.1,5.67-11.68,7.22-19,6.75l-3.63-1.28,21.44-6.73C546,270.61,546.32,271.06,546.07,272.06Z"/><path class="cls-120" d="M550.21,266.92l-1.13.95A22.55,22.55,0,0,1,537.84,256a2.22,2.22,0,0,1,1.29-.56A42.92,42.92,0,0,1,550.21,266.92Z"/><path class="cls-121" d="M525.21,267.2l-1-1.16c-1-4.79-1.75-9.55,1-14.08l1-1.06C528,256.46,527.3,261.87,525.21,267.2Z"/><path class="cls-122" d="M539.26,255.86l-1.42.14c-2.65-3.55-3.53-7.82-4.89-11.89l3.18,0C538,247.8,540.05,251.45,539.26,255.86Z"/><path class="cls-123" d="M546.07,272.06l-1.16-1.26c1-.28,2.07-2.81,3.11,0Z"/><path class="cls-124" d="M539.26,255.86c-1.31-3.85-3.29-7.52-3.13-11.77,2.57-2.89-.13-2.84-1.86-3.34-.27-5.53-.89-11.06.68-16.53.6-2.09,1.22-4.06,3.12-5.34A44.69,44.69,0,0,0,553,222c2.13-.2,2.83,1.49,3.54,2.91,6.1,12.12,6.87,25,5.43,38.23a7.7,7.7,0,0,1-1.86,4c0,.27-.08.55-.13.83-3.38.77-6.53-.53-9.76-1.05C545.77,264,542.54,259.91,539.26,255.86Z"/><path class="cls-125" d="M560.1,267.14c1.43-10.5,1.53-20.94-1-31.31-1.23-5-2.91-9.73-6.07-13.84l2.31-2c2.62-1.81,3.46.72,4.83,2l0,0c.67,1.58,2.12,2.61,2.83,4.15a74.58,74.58,0,0,1,7.2,16.9,1.81,1.81,0,0,0,0,1c-.06,6.11.38,12.22-2.9,17.89C565.54,264.81,563.68,267,560.1,267.14Z"/><path class="cls-126" d="M554.65,217.11c-3.51-.69-6.24-3-9.68-3.62C549.12,212.33,552.19,214.05,554.65,217.11Z"/><path class="cls-9" d="M560.13,222c-1.61-.67-2.79-2.36-4.83-2,.19-.94.65-2.47,1.35-2.2A5.42,5.42,0,0,1,560.13,222Z"/><path class="cls-9" d="M562.93,226.08c-1.47-1-2.93-2.05-2.83-4.15C561.69,222.88,562.92,224.07,562.93,226.08Z"/><path class="cls-124" d="M525.16,252c-.48,4.68.56,9.47-1,14.08-1,1.53-1.88,3.12-2.95,4.59-4.77,6.52-12.3,8.17-19.32,4.22-11.69-6.56-17.76-16.91-20.06-29.8q0-4,0-8.09c1.24-4.74,2.63-9.39,7.21-12.14a3.56,3.56,0,0,1,1.55-.18,31.71,31.71,0,0,0,14.53.43,6,6,0,0,1,3.88.81,26.41,26.41,0,0,1,12.36,15.4c.88,2.81-2,6.79,3.35,7.85C525.06,249.19,525,251,525.16,252Z"/><path class="cls-127" d="M509,225.88l-4,.24c-4.9-1.93-10-.89-15-1a1.82,1.82,0,0,1-.94-.31c3.63-5.71,8.87-4,14-3C505,223.18,507.91,223.24,509,225.88Z"/><path class="cls-103" d="M1157.52,272.27c0,6.14-2.85,11.72-3.59,17.72-2.16,1.42-3,3.87-4.49,5.79-5.63,7.18-14.08,9.69-20.58,6.07-1.12-2.85-3.74-2.6-6.07-2.94-4.85-6.55-7.73-14.61-5.26-21.76,1.5-4.32.75-7.86,1.28-11.73,1.31-9.45,7.83-15.26,15.11-20.41l.78.22c6.91,3.1,10.19,9.62,14.23,15.36a59.58,59.58,0,0,1,4.68,8.19A6,6,0,0,0,1157.52,272.27Z"/><path class="cls-128" d="M1122.79,298.91a5.84,5.84,0,0,1,6.37-.56c1.38.62-.42,2.26-.3,3.5C1126.23,302.12,1124.4,300.74,1122.79,298.91Z"/><path class="cls-129" d="M1157.52,272.27c-1.41.87-2.42,2.84-3.88-.48a79.49,79.49,0,0,0-18.94-26.57c5.68-3.63,15.6,1.13,19.1,8.8A37.32,37.32,0,0,1,1157.52,272.27Z"/><path class="cls-11" d="M971.11,592.91c-4.28-.15-8.72.17-11.63-4s-.63-7.54,1.81-10.82c3.87-5.21,17.35-9.09,24.69-4.76,5.92,3.49,6.89,9.61,1.74,14.25C983,591.8,977.33,593.23,971.11,592.91Z"/><path class="cls-130" d="M1096.74,274c.28-1.57-.07-3.87,2.33-3.6,2,.22,2.81,2.15,2.82,4.15,0,1.82-.54,3.48-2.68,3.48C1096.4,278,1097,275.67,1096.74,274Z"/><path class="cls-131" d="M1093,264.78c3.45-5,6.52-4.73,9.85.75C1099.51,265.2,1096.52,263.88,1093,264.78Z"/><path class="cls-132" d="M536.63,238.92c3.44-6.45,9.36-7.57,13.39-3.2A34.3,34.3,0,0,0,536.63,238.92Z"/><path class="cls-133" d="M552.75,244.65a40.61,40.61,0,0,0-12.29,8C541,246.3,545.07,243.46,552.75,244.65Z"/><path class="cls-134" d="M490,225.13c5.16-2,10.29-3.38,15,1C499.93,227.58,494.87,228.06,490,225.13Z"/><path class="cls-135" d="M513.29,247.59c-3.92,2.57-8,4.36-10.79,8.71C502.32,249,506.44,245.86,513.29,247.59Z"/><path class="cls-136" d="M520.9,259.57c-5.75.41-9.54,2.57-14,5.2C509.59,258,514.28,256.15,520.9,259.57Z"/><path class="cls-137" d="M1131.37,277.87c-.37,2.07-.83,4-3.16,3.91-2.08-.1-2.55-1.8-2.39-3.59.17-2,1.15-3.67,3.21-3.69S1131.3,276.42,1131.37,277.87Z"/><path class="cls-138" d="M1137.62,272.65c-3.5-2-6-5.15-10-6.15C1134.79,265.64,1137,267,1137.62,272.65Z"/></g></g></svg>