<svg xmlns="http://www.w3.org/2000/svg" viewBox="0 0 1441 961"><defs><style>.cls-1{fill:#f1fdfc}.cls-2{fill:#fbd864}.cls-3{fill:#fcfefe}.cls-4{fill:#f8f5f0}.cls-5{fill:#f8fefd}.cls-6{fill:#c3e1df}.cls-7{fill:#c4cfce}.cls-8{fill:#d2e8e7}.cls-9{fill:#e2edeb}.cls-10{fill:#c6d1d0}.cls-11{fill:#53483e}.cls-12{fill:#5a4f42}.cls-13{fill:#b1bfbe}.cls-14{fill:#a8b4b4}.cls-15{fill:#fad970}.cls-16{fill:#fad864}.cls-17{fill:#fad865}.cls-18{fill:#fbd865}.cls-19{fill:#c8deda}.cls-20{fill:#c4e1df}.cls-21{fill:#b3c1bf}.cls-22{fill:#b4c1c0}.cls-23{fill:#b2c0bf}.cls-24{fill:#b6c4c3}.cls-25{fill:#b2bfbf}.cls-26{fill:#5a4f41}.cls-27{fill:#4e5050}.cls-28{fill:#525657}.cls-29{fill:#464748}.cls-30{fill:#4e4e4f}.cls-31{fill:#49494a}.cls-32{fill:#cad4d3}.cls-33{fill:#c6d0ce}.cls-34{fill:#cbd6d5}.cls-35{fill:#4d4e4e}.cls-36{fill:#5a5f5f}.cls-37{fill:#55595a}.cls-38{fill:#dceeec}.cls-39{fill:#4e4d4e}.cls-40{fill:#4d4d4e}.cls-41{fill:#535555}.cls-42{fill:#4c4c4d}.cls-43{fill:#5e6463}.cls-44{fill:#5e6363}.cls-45{fill:#4d4540}.cls-46{fill:#645845}.cls-47{fill:#5e5444}.cls-48{fill:#f9de86}.cls-49{fill:#c6d0cf}.cls-50{fill:#525253}.cls-51{fill:#595b5c}.cls-52{fill:#474547}.cls-53{fill:#cbd4d2}.cls-54{fill:#4d4441}.cls-55{fill:#6a5c45}.cls-56{fill:#605445}.cls-57{fill:#625444}.cls-58{fill:#54483b}.cls-59{fill:#6d5d3f}.cls-60{fill:#8d7a4c}.cls-61{fill:#736546}.cls-62{fill:#7e6d49}.cls-63{fill:#49403c}</style></defs><g id="Layer_2" data-name="Layer 2"><g id="Layer_1-2" data-name="Layer 1"><path d="M697.09,960.87h-1a6,6,0,0,0-3.5-1.12c-13-4.87-26-2.8-39,0a5.63,5.63,0,0,0-3.48,1.09h-1c-2.06-1-4.26-.49-6.39-.49q-317,0-634.09,0a33.34,33.34,0,0,0-4,0c-3.16.4-4-1.06-3.91-4,.15-8.66.06-17.32.05-26,.88-5.49,3.52-10.58,3.11-16.43-.34-5-2.56-9.55-3.11-14.49q0-313,0-625.93c.15-3,2.56-2.89,4.39-2.79C23,271.8,40.59,268,58.37,267.43c12.53-.4,23.63-5.25,31.56-15.7a19.82,19.82,0,0,0,2.86-19.45C84,208,68.26,195.08,40.17,194.51c-1.17,0-2.47-.24-3.47.25-6.29,3.1-9.19,0-12.36-5.29-3.75-6.28-10.24-9.75-17.2-12.14-2.5-.87-5.84-.91-6.38-4.63q0-83.61,0-167.18c0-1.79-.46-3.66.47-5.39h182a15.74,15.74,0,0,0,5.42,2.5c18.08,4.24,34.87,12.24,52.43,18q7.35,2.43,14.74,4.76c7.21,2.26,7.81,3.06,6.54,10.27-1.61,9.18-3.63,18.31-4.09,27.66-.73,14.78-2,29.55-1.61,44.37,0,2,.06,4.29,2.27,5.16,2.42.95,3.71-1.16,4.78-2.72q9.6-14,17.82-28.83C287,71.42,291.07,60.8,298,51.68c2.83-3.71,5.62-5,10.19-3.79,12.38,3.35,25.1,5.29,37.57,8.22C354,58,361.92,61.38,370,63.85c1.57.48,3.17,1.65,4.62.12s.91-3.48,0-5.13A39.55,39.55,0,0,0,367,48.46C356.36,38.32,347,27,336.45,16.81c-4.91-4.73-4.79-4.92-1.26-11,1.17-2,2.06-4.21,4-5.69h416.9C756.72,2.3,755,3.49,754,4.9c-6.35,9-4.17,24.19,10.09,26.86,3.12.59,6.23,1.29,9.38,1,17-1.69,33.63-4.83,47.33-16.18,5.38-4.44,10.67-9.09,12.27-16.43q301.47,0,603-.13c4.53,0,5,1.31,5,5.24q-.2,83.93-.09,167.85a9.71,9.71,0,0,1-1.37.93c-7.25.87-14.57,1.15-21.74,2.68-14.13,3-25.74,16.71-26.41,31.21,0,1,0,2-.08,3-.36,4.47-1.32,5.39-5.62,4.52a52.1,52.1,0,0,0-18.84,0c-13,2.13-25.89,14.22-28.77,27.19-1.67,7.54.44,12.46,7,16.47a29.31,29.31,0,0,0,11.18,4.06q25.63,3.76,51.49,5.69c10.59.78,21.29.25,31.78,2.33a7.93,7.93,0,0,1,1.37.94v26c-.32.31-.63.63-.92.95-1.29,2.47-.7,5.1-.66,7.68a4,4,0,0,0,1.58,2.37V885.89a1.43,1.43,0,0,1-1.55.1c-8.25-9.82-19-15.4-31.26-18.43-6.3-1.56-12.52-2-18.66.3-3.29,1.23-5.27.3-7-2.67-9.41-16.58-24.47-21.38-42.36-20a97.16,97.16,0,0,0-12.35,1.77c-15.64,3.29-27.84,17.7-28.32,33.72-.23,7.72.42,9.3-9.66,8.15-23.65-2.71-33.09,4.67-43.2,25.65-5.83,12.11,1.28,23.23,15.36,25.84,11.45,2.12,23,3.64,34.59,4.83,21.85,2.25,43.74,4,65.71,4.24a245.47,245.47,0,0,0,33.82-2.44c5.65-.72,11.3-.25,16.94-.85,9.47-1,17.92-4.85,26.38-8.79a2.24,2.24,0,0,1,1.51.57v1c-1.12,5.94-.4,11.93-.44,17.89,0,2.87-1,3.93-3.76,3.62a38.1,38.1,0,0,0-4,0q-364.62,0-729.23,0C701.35,960.38,699.15,959.85,697.09,960.87Z" class="cls-1"/><path d="M339.17.13A12.3,12.3,0,0,1,336,7.3c-3.64,3.48-1.54,5.4.93,8Q354.85,34,372.59,53a16.5,16.5,0,0,1,4.56,8.2c.34,1.87.1,3.67-1.69,4.87a4.05,4.05,0,0,1-4.21.17,201.89,201.89,0,0,0-35.54-10.9c-9.92-2.06-19.85-4.09-29.67-6.57-2.92-.74-4.15.14-5.75,2.18-5.83,7.38-10,15.7-14,24.12-6.21,13.1-14.2,25.11-22.31,37.06-1.41,2.07-2.77,3.89-5.58,2.93s-3.14-3.26-3.11-5.68c.3-24.1.28-48.24,5.28-72,.07-.32.21-.63.28-1,1.53-7.45,1.55-7.5-5.91-9.75-18.32-5.52-35.94-13-54.09-19a115.9,115.9,0,0,0-12.5-3.37c-2.55-.54-4.31-1.61-5.13-4.09h102a4.84,4.84,0,0,0,6,0h7a3.76,3.76,0,0,0,5,0Z" class="cls-2"/><path d="M1.32,928.74c0,8.83.13,17.66-.14,26.49-.13,3.87,1.32,5.13,4.92,4.66a27.23,27.23,0,0,1,3.5,0q316.4,0,632.81,0c2.23,0,4.68-.89,6.69,1q-322.17,0-644.35.09C1,961,.16,960.12.16,956.37Q.31,480.5.32,4.63c0-1.46-1.16-3.39.94-4.5l.07,174.11c1.74,1.9,1.6,4.29,1.6,6.59q.06,42.3,0,84.58c0,2.31.12,4.69-1.64,6.58l0,552.52q0,38.22,0,76.43A54.24,54.24,0,0,1,1.32,928.74Z" class="cls-3"/><path d="M765.07.13h64c.22,5.83-4.14,8.88-7.84,12A78.18,78.18,0,0,1,783.9,29a45.59,45.59,0,0,1-19.34-.57C759.49,27.12,754.94,25,754,19.2c-1.08-6.35.48-11.88,6.14-15.77C761.73,2.3,763.62,1.54,765.07.13Z" class="cls-4"/><path d="M697.09,960.87c2-1.85,4.46-1,6.69-1q364-.06,728,0c1.5,0,3-.11,4.5,0,2.88.24,3.8-1.1,3.71-3.84-.15-4.15-.08-8.32,0-12.48,0-1.61-.53-3.38,1-4.7,0,6.5-.12,13,.06,19.5.07,2.15-.41,3-2.56,2.52a10.27,10.27,0,0,0-2,0Z" class="cls-5"/><path d="M765.07.13c-.07,3-2.85,3.51-4.63,4.7-5.43,3.61-6.1,9-5.2,14.51C756,24,759.94,26,764.13,27c13.51,3.22,26.3.45,38.6-5.2,10.62-4.88,20.8-10.47,26.33-21.63h4c1.68,2.39.54,4.37-.86,6.35a58.23,58.23,0,0,1-31,22.28c-10.07,3.15-20.42,6-31.17,5.28-6.28-.43-12.75-1.33-16.92-6.93-6-8-5.31-17.52,1.43-25,.55-.61,1-1.3,1.51-2Z" class="cls-6"/><path d="M1439.87,173.2l1-.11v99l-1.05-.12c-1.79-1.88-1.62-4.28-1.63-6.57q-.06-42.8,0-85.59C1438.24,177.48,1438.07,175.08,1439.87,173.2Z" class="cls-7"/><path d="M1439.92,885.88h1v52l-1-.07c-1.75-1.7-1.61-3.93-1.63-6.06q-.11-19.92,0-39.82C1438.27,889.79,1438.16,887.56,1439.92,885.88Z" class="cls-8"/><path d="M694.07,958.88a3.34,3.34,0,0,1,2,2h-46a3.24,3.24,0,0,1,2-2c7.57-.32,15.13-.7,22.72-.72C681.29,958.16,687.67,958.61,694.07,958.88Z" class="cls-9"/><path d="M1439.91,298.05a4.77,4.77,0,0,1,1,0v11c-1-.12-2.27.28-2.85-1.07C1440.16,304.94,1437.59,301,1439.91,298.05Z" class="cls-10"/><path d="M291.19.13c-2,3.21-4,3.11-6,0Z" class="cls-11"/><path d="M303.18.13c-1.66,2.72-3.33,2.5-5,0Z" class="cls-12"/><path d="M1018.4,321c6.75-4.82,13.54-9.53,21.92-11.18,15.86-3.13,31.66-2.23,44.57,7.64,10.16,7.77,15.86,19.47,14.33,33.19-.48,4.34,1.85,2.69,3.83,2.25,11.92-2.66,23.7-2.18,33.69,5.24a43.22,43.22,0,0,1,17,26.18c2.34,11.43-5.28,20.37-18.94,22.65s-27.14,4-40.84,5.35c-18.66,1.78-37.36,3.05-56,3.37a220.76,220.76,0,0,1-37.66-2.42c-8.44-1.32-17.34,0-25.59-2.42-12.22-3.63-23.21-9.39-28-22.48A27.83,27.83,0,0,1,945,377.1c-1.23-1.55-.61-3.2-.15-4.76,6.95-23.27,21.51-38.61,45.93-43.19,5.66-1.06,11.62-1.32,17.26.6,2.51.86,3.65,0,4.67-2.07C1014,325,1015.46,322.33,1018.4,321Z" class="cls-6"/><path d="M379.45,423.08a44.24,44.24,0,0,1-26.94-7.44c-10.1-6.68-14-16.64-11.37-28.48,2.71-12.33,6.24-24.38,16.37-32.82,9.54-7.94,20-15.37,33.09-14,6.66.67,8.25-1.35,10.5-6.78,5.89-14.21,18.43-19.77,32.58-22.41a75.3,75.3,0,0,1,20.39-.8c12.83,1.12,21,9.09,27.34,19.4,2.62,4.27,4.68,8.87,4.74,14,0,3.14,1.15,3.76,4,2.49,5.54-2.51,11.46-2.81,17.47-3.35,13.2-1.17,22.18,5.59,30.07,14.66,2.79,3.21,5.5,6.57,6.79,10.91,3.11,10.46,1.71,15-7.11,21.48-7.44,5.45-16.41,7.41-24.92,9.84-24.41,7-49,13.29-74.09,17.62-10.63,1.84-21.31,3.95-32.11,3.53C397.14,420.57,388.46,423.58,379.45,423.08Z" class="cls-13"/><path d="M1439.92,885.88q0,26,0,51.93a49.84,49.84,0,0,1-27.86,9.77c-15.11.54-30,3.11-45.14,3.21-21.76.15-43.41-1.67-65.05-3.75-13.53-1.3-27-3.17-40.37-5.24a25.45,25.45,0,0,1-15.38-8.56c-4.35-5-3.47-12-1.62-17.19,3.71-10.34,9.62-19.95,19.93-25.27,8.82-4.56,18.47-5.24,28.08-3.07,4.3,1,5.62.6,5.58-4.31-.13-14.31,6.37-25.54,17.86-33.78,6-4.32,13.5-4.29,20.47-5.56a48,48,0,0,1,34.39,6.29c5.77,3.5,10.52,8,13.18,14.45.54,1.31.78,3.57,3.37,2.4,11.82-5.36,22.81-1.22,33.61,3.29C1428.68,873.72,1435.82,878,1439.92,885.88Z" class="cls-6"/><path d="M974.91,756.16c-20.38-1.17-40.78-2.4-61-5.46-7.61-1.15-15.57-1.42-22.78-4.77C880.55,741,877,733.94,880,722.6a45,45,0,0,1,14.86-23.17c8.89-7.43,20-8.6,31.08-5.88,4,1,4.21.08,4.33-3.46.41-12.86,5.27-23.9,14.84-32.64,5.87-5.35,13.56-6,20.87-7.23,14.13-2.43,27.07.24,38.18,9.78,4.4,3.78,6.95,8.81,9,14.2,11.07-6.59,21.62-2.83,31.88,1.48,18.78,7.9,27.22,24.07,30.64,42.64,2.51,13.65-6,22.82-17.32,29.32-8.63,5-18.12,6.18-27.85,5.88-3.7-.12-7.19,1-10.79,1.27-9.59.79-19.19,1.42-28.79,2.11C985.45,759.75,980.17,758,974.91,756.16Z" class="cls-14"/><path d="M671,62.81c.42-14.77,3.88-28.22,16.47-35.94,13-8,37.36-9.38,52.11,3.33,3.48,3,5.58,7,7.59,11,.45.91.37,2.92,2.62,1.82,8.31-4.06,16.55-2,24.58.85,20,7,29,23.05,32.36,42.45C808.47,96.5,802,104.16,794,110.16c-7.68,5.76-16.64,7.19-25.79,7.87-18.37,1.38-36.75,2.94-55.2,2-16.21-.78-32.37-2.09-48.53-3.62-7.64-.72-14.88-3.15-22.54-3.59-5.12-.3-9.82-2.84-13.87-6.29-6-5.15-4.85-12.11-3.31-18.08A38.64,38.64,0,0,1,640.4,66.05c8.78-6,18.72-5.8,28.73-3.75C669.76,62.43,670.38,62.64,671,62.81Z" class="cls-6"/><path d="M1018.4,321c-1.77,3.35-4.46,6.17-5.74,9.84-.38,1.07-.84,2.07-2.52,1.31-10.73-4.81-21-1.86-31.23,2-19.91,7.51-28.77,23.78-33.9,43-11.15-4.19-19.73-11.38-27.38-20.6-13-15.62-18.78-33.83-17.08-53.15,2.43-27.77,13.28-52.28,38.35-67.59,9-5.48,19.63-7,30.1-7.63,3.11-.19,6.48-2,9.77.5-3,2.31-5.91,4.43-8.69,6.73-8.07,6.67-9.5,15.58-7,24.93,7,26,20.59,47,46.17,58.42C1012.09,320,1015.35,320.25,1018.4,321Z" class="cls-2"/><path d="M1439.87,173.2q0,49.37,0,98.74c-18-.81-36.07-1.86-54.07-3.58-10.57-1-21-2.84-31.51-4.18-5.69-.72-10.38-3.64-14.58-7.09-3.77-3.09-3.88-7.95-3.58-12.46.7-10.16,15.12-28.72,26.72-30.13,7.59-.93,15.13-2.57,22.69-.43,3.51,1,4.42.31,4.39-3.48-.1-14.62,9.55-29.78,22-33.82A76.6,76.6,0,0,1,1439.87,173.2Z" class="cls-13"/><path d="M1.29,272q0-48.87,0-97.75C13.11,177,23.24,182,28.59,193.73c.59,1.3,1.05,2.3,2.87,1.27,6.07-3.42,12.76-2.54,19-1.44a58,58,0,0,1,24.28,9.92c10.94,8,17.44,19.29,20.22,32.13C97.81,248.77,89.34,257.8,77,264a47.25,47.25,0,0,1-21.61,5.14c-16.43,0-32.64,4-49.15,2.94C4.62,272,3,272,1.29,272Z" class="cls-13"/><path d="M329.6,651.54c-.86,10.84-2.12,20.81-3.77,30.74-.29,1.8-.62,3.6-.79,5.41-1.47,15.28-3.88,11.94,11.26,16,11.71,3.1,23.63,5.4,35.13,9.33,2.31.78,4.79,1.44,4.3,4.47s-3.09,2.33-5.22,2.54c-12.09,1.18-23.81,4.49-35.79,6.34-3.78.58-7.53,1.32-11.31,1.8-3.18.4-4.46,1.76-4.28,5.18.89,16.86-1.25,33.52-3.81,50.13-.3,1.93-.15,4.2-2.93,4.51-2.42.27-3.05-1.7-3.81-3.31-4.69-9.9-9-19.94-12-30.54-.36-1.29-.81-2.54-1.21-3.81-4.1-12.82-4.44-12.58-17.75-11.7-12.42.83-24.81,1.34-37,4-3.48.77-4-1.73-3-4.33s3.19-4.6,5.47-6.34c9-6.85,17.93-13.8,27-20.58,2-1.49,1.88-2.61,1.16-4.93-2.91-9.5-9.38-17.21-12.76-26.42-.77-2.08-2.6-4.5-.22-6.41,2.11-1.71,4.38-.42,6.43.87,7.74,4.85,15.54,9.59,23.23,14.52,2.8,1.8,4.63,1.87,7-1,7.92-9.39,16.22-18.47,24.34-27.7C322.09,657.09,325.53,654.62,329.6,651.54Z" class="cls-2"/><path d="M974.91,756.16l16,.74c-1.46,2-2.91,4-4.81,6.61,5.75.9,11,.3,17.31-.11L951,822.67c6.32-15.46,14.6-29.81,23.46-45.22l-16.84,5.87C963.82,773.52,969.36,764.84,974.91,756.16Z" class="cls-15"/><path d="M667,518.92c-6.78-.53-12.27-.58-17.6-1.52-3.71-.65-5.25.8-6.32,3.82-1.55,4.38-3.1,8.76-4.71,13.12-.39,1.07-.79,2.46-2.19,2.36-1.58-.11-1.37-1.78-1.48-2.77-.62-5.27-1.91-10.51-1.5-15.85.26-3.29-.63-4.72-4.17-5.16-6.16-.77-12.23-2.2-19.32-3.54,4.87-3.41,9.6-4.05,14.14-5.15,8-2,7.93-1.9,6.54-10.13-.57-3.39-.75-6.84-1.22-11.27a67.69,67.69,0,0,1,11.54,12c2.35,3.14,4.54,3.89,7.76,1.28a47.42,47.42,0,0,1,6.35-3.94c.8-.46,1.76-1.33,2.71-.52s.34,1.85-.09,2.73c-1.33,2.68-2.71,5.34-4.06,8-1.23,2.42-.79,4.14,1.54,5.88C658.81,511.22,663.17,513.73,667,518.92Z" class="cls-2"/><path d="M887.25,403.32a28.38,28.38,0,0,1-1.93-11.55c.12-4.5-1.06-6.69-5.9-6.87-3.35-.13-6.66-1.32-10.86-2.22,4.22-2.79,8.26-3,12-4,2.41-.65,3.68-1.53,2.93-4.5s-.82-6.44-1.24-10.16c3.45,1.38,4.9,4.2,6.66,6.41,3,3.76,5.82,4.85,9.68,1.37,1-.93,2.19-2.06,3.74-1.63.25.32.46.52.43.56-5.2,7.35-2.7,12.44,4.66,16.2a2,2,0,0,1,1.16,2.57c-3.88-.21-7.85-.11-11.7-.74-2.93-.47-3.91.85-4.67,3.12C891,395.6,890,399.45,887.25,403.32Z" class="cls-16"/><path d="M1052.43,267.68c-5.09-.11-8.63-1.61-12.17-2.86-2.73-1-3.89-.06-4.92,2.32-1.16,2.7-1.72,5.71-4.09,8.4-.79-3.21-1.83-6-2.11-8.9-.43-4.39-2.54-6.1-6.83-5.55a34.21,34.21,0,0,1-4.29,0c-.57-1.61.48-2.08,1.26-2.61,6.31-4.25,6.29-4.24,3.37-11.47-.59-1.46-1.66-2.89-.79-5,2.79,1.93,5.69,3.54,8.1,5.7,3.29,2.94,5.75,2,8.52-.69,2-1.94,4.34-3.45,7.66-6a24.23,24.23,0,0,1-4.39,11.92c-1.74,2.54-1.72,4.22.88,6.17C1045.77,261.48,1048.59,264.28,1052.43,267.68Z" class="cls-16"/><path d="M1252,686c2.31-4.36,5.69-6.78,8.84-9.35,2-1.66,2.48-3.17,1.17-5.52-1.84-3.31-3.39-6.77-5.66-11.37a28,28,0,0,1,8.88,5.95c2.74,2.76,5,3.26,7.53-.26,1.4-2,3.1-3.79,4.67-5.67l1.22,1c-.37,2.54-.34,5.23-1.2,7.6-1.76,4.86.29,7.06,4.71,8.25,1.19.32,2.76.23,3.3,1.89-2.6,2.71-7.89,0-9.4,4.12-1.21,3.32.49,7.23-1.09,11.19-3.12-2.31-4.27-5.66-6-8.44s-3.64-3.24-6.53-2.17C1259.31,684.35,1256.14,685.78,1252,686Z" class="cls-17"/><path d="M846.26,9.67a31.3,31.3,0,0,1-1.53,3c-11.3,17.46-26.54,29.21-47.42,33-2.71.49-4.42-.13-4.94-2.56-.5-2.26,1.73-2.58,3.29-2.8,17.35-2.5,29.92-12.43,40.23-25.85A41.48,41.48,0,0,0,840,8.2c1.17-2.27,2.74-1.35,4.21-.85C845.13,7.67,846.62,7.81,846.26,9.67Z" class="cls-6"/><path d="M276,505.53a7.46,7.46,0,0,1-7.13,7.53,7.2,7.2,0,0,1-7.24-6.81A7.65,7.65,0,0,1,269,498.4C272.53,498.39,275.89,501.82,276,505.53Z" class="cls-17"/><path d="M610,759.07a7.14,7.14,0,0,1,.16-14.27c4.27,0,7.1,2.86,7.07,7.21A6.74,6.74,0,0,1,610,759.07Z" class="cls-17"/><path d="M1325.88,491a7.32,7.32,0,0,1-.05,14.62,7.35,7.35,0,0,1-7-7.65A7,7,0,0,1,1325.88,491Z" class="cls-17"/><path d="M1259.1,87.61a7,7,0,0,1,6.27,7.57,7.19,7.19,0,0,1-7.53,7,7.46,7.46,0,0,1-6.65-7.91A7.32,7.32,0,0,1,1259.1,87.61Z" class="cls-17"/><path d="M902.49,894.14a7.34,7.34,0,0,1-6.79,7.68c-4.05.11-7.07-3-7.13-7.24-.05-4,3.27-7.52,7-7.52A7.18,7.18,0,0,1,902.49,894.14Z" class="cls-18"/><path d="M694.07,958.88a180.29,180.29,0,0,1-41.92,0C666.12,955.23,680.09,953.12,694.07,958.88Z" class="cls-19"/><path d="M1.32,928.74q0-13.9,0-27.8C6.82,909.42,6.83,920.74,1.32,928.74Z" class="cls-20"/><path d="M1436.57,342.23c-1,1.72,1.59,7.37-4,6.58-5.29-.74-1.86-5.18-1.75-8,.07-1.83-.94-4.83,2.82-4.52C1436.8,336.55,1437.27,338.64,1436.57,342.23Z" class="cls-21"/><path d="M1386.89,294.12c-.31,2.27-.71,4.53-.93,6.81-.14,1.55-.12,3.16-2.28,2.95-1.81-.18-3.87-.49-3.73-3a65.73,65.73,0,0,1,1-8.28c.39-2.11,2.24-1.45,3.62-1.48C1386.7,291.09,1387,292.48,1386.89,294.12Z" class="cls-22"/><path d="M1405.88,285.85a23.86,23.86,0,0,1,.2-4c.57-2.65,2.81-1.77,4.48-1.79,2.13,0,2.3,1.26,1.88,3.05a29.76,29.76,0,0,0-.55,4.92c-.13,2.14-.15,3.95-3.34,3.44-2.78-.46-3.79-1.44-2.78-4.16A5.15,5.15,0,0,0,1405.88,285.85Z" class="cls-23"/><path d="M18.29,330.08c0,1.32,0,2.64,0,4-.07,1.78-1.32,2.06-2.76,2s-3.13,0-3.21-2.1c-.07-2,0-4-.05-5.93-.09-2.29.51-3.82,3.2-3.91,3.08-.11,2.91,1.93,2.88,4v2Z" class="cls-23"/><path d="M44.42,291.32c-.7,2.38,1.29,5.74-3.12,5.73-4.65,0-2.94-3.53-3.06-5.78s-1.11-5.29,3.16-5.15C45.88,286.28,43.44,289.75,44.42,291.32Z" class="cls-23"/><path d="M1410.24,322.56c1.23-3.43-.54-8,5-7.61,1.89.14,3.09.95,2.15,2.77-1.26,2.43,1.33,7-3.94,7.23C1411.43,325,1409.85,324.47,1410.24,322.56Z" class="cls-24"/><path d="M22.26,283.19c.08,1.79.26,3.88-3.13,3.85s-3.83-1.8-3.8-4.49S15.65,278,19,278C22.87,277.93,22.22,280.46,22.26,283.19Z" class="cls-24"/><path d="M1439.91,298.05c-.83,3.26,1.93,7.21-1.85,9.93C1438.89,304.7,1435.6,300.67,1439.91,298.05Z" class="cls-25"/><path d="M289.21,9.81c2.1.35,4.21.66,6.3,1,1.1.21,2.53.38,2.07,2s-1.74,1.17-2.89,1c-1.94-.31-3.9-.53-5.82-.92-1.2-.24-3-.22-2.57-2.14C286.64,9.25,288.08,9.77,289.21,9.81Z" class="cls-26"/><path d="M1032.28,362.93a13.58,13.58,0,0,1-3.37-1.31c-1.36-1-3.7-2.2-2.25-4.11,1.29-1.71,2.46.53,3.49,1.39,2.06,1.72,3.9,1.31,5.7-.39.78-.74,1.56-2.24,2.73-1s-.1,2.42-1,3.33A7.92,7.92,0,0,1,1032.28,362.93Z" class="cls-27"/><path d="M1023.85,349.07c-.32,1-.82,1.88-2,1.74a1.81,1.81,0,1,1,.26-3.62A1.7,1.7,0,0,1,1023.85,349.07Z" class="cls-28"/><path d="M1034.45,348.92c.91.1,1.58.54,1.61,1.5,0,1.21-.72,1.77-1.87,1.68a1.42,1.42,0,0,1-1.37-1.68A1.6,1.6,0,0,1,1034.45,348.92Z" class="cls-29"/><path d="M409.29,364.37l15.13-3.89a1.24,1.24,0,0,1,1.64.65,1.13,1.13,0,0,1-.64,1.62c-5.22,1.46-10.34,3.52-15.81,3.43C409.5,365.58,409.4,365,409.29,364.37Z" class="cls-30"/><path d="M420.05,352.83c-.3,1.38-.88,2.14-2,2a1.69,1.69,0,0,1-1.67-2,1.74,1.74,0,0,1,1.93-1.74C419.49,351.19,419.75,352.17,420.05,352.83Z" class="cls-31"/><path d="M405.59,354a1.58,1.58,0,0,1,.33,3.14,1.58,1.58,0,0,1-.33-3.14Z" class="cls-29"/><path d="M408.38,398.09c.27-1.25,1-2,2.66-2.55C410.54,397.15,410.36,398.41,408.38,398.09Z" class="cls-32"/><path d="M507.75,354.42c-.68.21-1.15.53-1.44.4s-.5-.67-.74-1c.28-.14.63-.46.82-.38A6.83,6.83,0,0,1,507.75,354.42Z" class="cls-33"/><path d="M452.92,374.64a5.1,5.1,0,0,1-1.46,1c-.59.16-.81-.4-.45-.82a8.92,8.92,0,0,1,1.48-1.16Z" class="cls-34"/><path d="M1365.18,897.81a7.55,7.55,0,0,1-5.26-2.07c-.85-.85-2.46-1.84-1-3.25s1.94.43,2.75,1.07c2.16,1.73,4.24,1.69,6.25-.2.8-.76,1.52-2.21,2.72-.87,1,1.12-.11,2.17-.87,3A9,9,0,0,1,1365.18,897.81Z" class="cls-35"/><path d="M1364.84,885.27c0,1.37-.68,2.08-1.75,2.14a1.81,1.81,0,0,1-2-1.71c-.12-1.17.68-1.74,1.75-1.85A1.77,1.77,0,0,1,1364.84,885.27Z" class="cls-36"/><path d="M1375.23,885.84a1.78,1.78,0,0,1-1.52-2.14,1.59,1.59,0,0,1,1.61-1.55,1.7,1.7,0,0,1,1.77,1.91A1.64,1.64,0,0,1,1375.23,885.84Z" class="cls-37"/><path d="M1383.73,927.19c-.35-.46-.94-.91-1-1.46s.6-.66.92-.37a8.07,8.07,0,0,1,1.06,1.48Z" class="cls-38"/><path d="M1007.86,703.3a2.2,2.2,0,0,1-1.67,1.64c-4.09,1.18-8.21,2.31-12.31,3.48-.86.24-1.68.26-2.07-.67s.25-1.54,1.09-1.79q6.6-2,13.24-3.82A1.24,1.24,0,0,1,1007.86,703.3Z" class="cls-39"/><path d="M989.56,696.83a1.76,1.76,0,0,1-1.56-2.06c.08-1.08.58-1.85,1.81-1.66.94.14,1.24.92,1.31,1.76A1.58,1.58,0,0,1,989.56,696.83Z" class="cls-40"/><path d="M1003.08,695.22c-.05,1.45-.63,2.19-1.47,2.14a1.67,1.67,0,0,1-1.48-2.11,1.42,1.42,0,0,1,1.72-1.3A1.3,1.3,0,0,1,1003.08,695.22Z" class="cls-41"/><path d="M726.45,76.22c-3.56-.56-5.93-2.71-6.73-6.58-.22-1.08-.16-2,1-2.45,1-.35,1.6.34,1.84,1.17,1,3.27,2.6,5.34,6.45,4.33A1.29,1.29,0,0,1,730.68,74C730.3,76.14,728.45,76.11,726.45,76.22Z" class="cls-42"/><path d="M739.34,61.91a1.5,1.5,0,0,1-1.52-1.52c-.07-.87.28-1.66,1.24-1.73a1.58,1.58,0,0,1,1.84,1.7C740.91,61.29,740.13,61.66,739.34,61.91Z" class="cls-43"/><path d="M728.71,60.38A1.61,1.61,0,0,1,730.19,62c.07.89-.29,1.65-1.23,1.72A1.52,1.52,0,0,1,727.2,62C727.21,61,727.91,60.62,728.71,60.38Z" class="cls-44"/><path d="M961,315.2c-4.2-.13-7.44-1.71-9.39-5.44-.62-1.19-1.11-2.62.46-3.43,1.37-.7,2.5-.2,3.17,1.3,1.57,3.52,4.25,4.83,8,3.89,1.39-.35,3.24-1.23,3.64.9.36,1.94-1.76,2.06-3.07,2.49A12.54,12.54,0,0,1,961,315.2Z" class="cls-45"/><path d="M958.61,298.05c1.85-.07,2.83.86,3,2.28a2.25,2.25,0,0,1-2.32,2.6,2.65,2.65,0,0,1-2.78-2.34C956.21,299,957.46,298.34,958.61,298.05Z" class="cls-46"/><path d="M972.82,296.11c-.3,1.64-1.18,2.63-2.67,2.6s-2.3-1.16-2.26-2.67a2,2,0,0,1,2.24-2.09A2.56,2.56,0,0,1,972.82,296.11Z" class="cls-47"/><path d="M904.33,310.73c2.17,1.87,1.61,4.06,1.76,7C904.28,315.16,903.7,313.22,904.33,310.73Z" class="cls-48"/><path d="M1430.91,236.54l-4.52-2.48C1428.65,233.75,1429.61,234.16,1430.91,236.54Z" class="cls-49"/><path d="M18.35,221c-3.49-.33-6.8-.59-10.09-1-1.17-.14-3.11.31-2.81-1.73.23-1.53,1.84-1,2.93-.9,3.31.23,6.62.44,9.92.81,1.47.16,4.09-.82,4,1.48S19.64,220.66,18.35,221Z" class="cls-50"/><path d="M24,208.27c1.25,0,1.91.62,2.05,1.45a1.73,1.73,0,0,1-1.6,2.1,1.57,1.57,0,0,1-1.74-1.43A1.81,1.81,0,0,1,24,208.27Z" class="cls-51"/><path d="M13.31,209.6a1.36,1.36,0,0,1-1.56,1.49,1.41,1.41,0,0,1-1.55-1.52c0-1.15.5-1.95,1.75-1.75A1.64,1.64,0,0,1,13.31,209.6Z" class="cls-52"/><path d="M29,250.19a3,3,0,0,1-3.38-1.6,4.1,4.1,0,0,1,0-.53C27.25,247.92,28.08,248.91,29,250.19Z" class="cls-53"/><path d="M294.72,712.94c3-1.56,6.13-1.47,10.28-.32C301,714.75,297.86,714.13,294.72,712.94Z" class="cls-54"/><path d="M294.09,703.8a2.09,2.09,0,0,1-2.36-2.11,2.12,2.12,0,0,1,2-2.43,2,2,0,0,1,2.26,2.09A2.19,2.19,0,0,1,294.09,703.8Z" class="cls-55"/><path d="M304.09,705.84c-1.56-.2-2.42-1-2.37-2.28a2.16,2.16,0,0,1,2.57-2.28,2.14,2.14,0,0,1,1.87,2.46C306.09,705.16,305.06,705.59,304.09,705.84Z" class="cls-56"/><path d="M639,504c-.27,1.16-1,1.86-2.1,1.65a1.72,1.72,0,0,1-1.54-2.13,1.78,1.78,0,0,1,1.84-1.38A1.71,1.71,0,0,1,639,504Z" class="cls-57"/><path d="M645.67,500.55a1.64,1.64,0,0,1,1.47,1.62c0,.9-.28,1.65-1.27,1.75-1.23.12-1.77-.59-1.75-1.76C644.13,501.17,644.76,500.74,645.67,500.55Z" class="cls-58"/><path d="M894,379c-.84-.1-1-.73-1-1.4a1.1,1.1,0,0,1,1.3-1.1,1.18,1.18,0,0,1,1,1.39A1.22,1.22,0,0,1,894,379Z" class="cls-59"/><path d="M1033,254.32c0,.71-.27,1.33-1.06,1.4a1.24,1.24,0,0,1-.31-2.47A1.16,1.16,0,0,1,1033,254.32Z" class="cls-60"/><path d="M1038.53,257c-.41.51-.83,1-1.56.59-.56-.33-1.06-.8-.71-1.54s.86-1,1.54-.57C1038.32,255.74,1038.88,256.16,1038.53,257Z" class="cls-61"/><path d="M1271.91,672.7a1.11,1.11,0,0,1-1.34,1,1.19,1.19,0,0,1-1-1.38,1.14,1.14,0,0,1,1.35-1.07C1271.64,671.39,1271.88,672,1271.91,672.7Z" class="cls-62"/><path d="M1276.15,676.1c-.32.53-.47,1.12-.8,1.24a.91.91,0,0,1-1.28-.92c0-.33.5-.85.87-.94S1275.66,675.83,1276.15,676.1Z" class="cls-63"/></g></g></svg>